<svg width="300" height="300" viewBox="0 0 300 300" fill="none" xmlns="http://www.w3.org/2000/svg">
<g clip-path="url(#clip0_3_770)">
<path d="M170.055 116.1C170.055 116.1 188.625 97.05 190.86 57.87C193.245 16.2 181.065 0 161.49 0C141.915 0 131.295 23.94 139.05 61.8C146.805 99.675 149.25 130.365 170.055 116.1Z" fill="#00BCE8"/>
<path d="M295.68 58.1849C280.005 38.1149 257.19 33.9749 219.405 61.4999C186.705 85.3199 157.065 124.365 157.065 124.365C149.37 137.91 168.915 156.99 245.385 125.79C321.855 94.5749 295.68 58.1849 295.68 58.1849Z" fill="#00BCE8"/>
<path d="M243.84 134.625C198.945 127.98 165.09 153.165 165.09 153.165C153.435 161.01 178.365 172.095 178.365 172.095C214.62 188.625 294.69 188.1 299.16 173.775C303.87 158.7 288.84 141.3 243.825 134.64L243.84 134.625Z" fill="#00BCE8"/>
<path d="M215.07 185.07L170.805 79.35C168.255 73.245 161.25 70.38 155.175 72.945L7.31999 135.24C1.24499 137.805 -1.62001 144.825 0.929991 150.93L45.195 256.65C47.745 262.755 54.75 265.62 60.825 263.055L208.665 200.745C214.74 198.18 217.605 191.16 215.055 185.055L215.07 185.07Z" fill="#0B2540"/>
<path d="M167.926 107.424L23.6556 168.752C20.606 170.048 19.1847 173.572 20.4811 176.621L52.2808 251.428C53.5772 254.477 57.1003 255.899 60.1499 254.602L204.421 193.274C207.47 191.977 208.892 188.454 207.595 185.405L175.796 110.598C174.499 107.548 170.976 106.127 167.926 107.424Z" fill="white"/>
<path d="M170.22 96.6301L164.175 82.1851C163.215 79.8901 160.59 78.8251 158.31 79.7851L10.845 141.915C8.56501 142.875 7.48501 145.515 8.44501 147.795L14.49 162.24C15.45 164.535 18.075 165.6 20.355 164.64L167.805 102.495C170.085 101.535 171.165 98.8951 170.205 96.6151L170.22 96.6301Z" fill="white"/>
<path d="M20.055 145.725C17.715 146.715 16.605 149.415 17.595 151.77C18.585 154.125 21.285 155.235 23.625 154.245C25.965 153.255 27.075 150.555 26.085 148.2C25.095 145.845 22.395 144.735 20.055 145.725Z" fill="#4054B2"/>
<path d="M34.2151 139.755C31.8751 140.745 30.7651 143.445 31.7551 145.8C32.7451 148.155 35.4451 149.265 37.7851 148.275C40.1251 147.285 41.2351 144.585 40.2451 142.23C39.2551 139.875 36.5551 138.765 34.2151 139.755Z" fill="#4054B2"/>
<path d="M54.405 136.26C53.415 133.905 50.715 132.795 48.375 133.785C46.035 134.775 44.925 137.475 45.915 139.83C46.905 142.185 49.605 143.295 51.945 142.305C54.285 141.315 55.395 138.615 54.405 136.26Z" fill="#4054B2"/>
<path d="M125.144 131.497L70.5721 154.571C69.0461 155.216 68.332 156.977 68.9773 158.503L70.0054 160.934C70.6507 162.46 72.4109 163.174 73.9369 162.529L128.509 139.454C130.035 138.809 130.749 137.049 130.104 135.523L129.076 133.091C128.431 131.565 126.67 130.851 125.144 131.497Z" fill="#FFC747"/>
<path d="M141.438 138.616L62.8082 171.863C61.2573 172.518 60.5231 174.287 61.1683 175.813L64.6733 184.103C65.3186 185.629 67.099 186.334 68.6499 185.678L147.279 152.432C148.83 151.776 149.564 150.007 148.919 148.481L145.414 140.192C144.769 138.666 142.988 137.96 141.438 138.616Z" fill="#FFC747"/>
<path d="M143.756 194.717L102.93 211.98C101.404 212.625 100.69 214.385 101.336 215.911L104.426 223.22C105.071 224.746 106.831 225.46 108.357 224.814L149.183 207.552C150.709 206.907 151.423 205.147 150.778 203.621L147.687 196.312C147.042 194.786 145.282 194.072 143.756 194.717Z" fill="#00BCE8"/>
<path d="M109.066 173.584L70.3816 189.941C69.6186 190.263 69.2615 191.143 69.5842 191.906L70.7525 194.67C71.0751 195.433 71.9552 195.79 72.7182 195.467L111.402 179.11C112.165 178.788 112.522 177.908 112.2 177.145L111.031 174.381C110.709 173.618 109.829 173.261 109.066 173.584Z" fill="#FFC747"/>
<path d="M154.104 165.584L73.9731 199.466C73.2101 199.789 72.8531 200.669 73.1757 201.432L74.3441 204.195C74.6667 204.958 75.5468 205.315 76.3098 204.992L156.441 171.11C157.204 170.788 157.561 169.908 157.239 169.145L156.07 166.382C155.748 165.619 154.867 165.261 154.104 165.584Z" fill="#FFC747"/>
<path d="M158.643 175.083L78.5122 208.965C77.7492 209.288 77.3922 210.168 77.7148 210.931L78.8831 213.694C79.2057 214.457 80.0858 214.814 80.8489 214.491L160.98 180.609C161.743 180.287 162.1 179.407 161.778 178.644L160.609 175.881C160.287 175.118 159.407 174.761 158.643 175.083Z" fill="#FFC747"/>
<path d="M124.41 72.18L114.825 53.61C114.27 52.53 112.74 52.395 111.72 53.34L103.26 61.245C102.24 62.19 102.27 63.72 103.335 64.35L121.38 75.03C123.075 76.035 125.31 73.935 124.425 72.195L124.41 72.18Z" fill="#4054B2"/>
<path d="M216.96 237.195L209.07 229.5C208.335 228.78 206.925 229.575 207.165 230.58L209.76 241.26C209.91 241.89 210.675 242.145 211.32 241.785L216.63 238.8C217.275 238.44 217.44 237.66 216.975 237.21L216.96 237.195Z" fill="#4054B2"/>
<path d="M240.465 211.875L219.18 214.935C217.185 215.22 216.735 218.34 218.58 219.15L238.17 227.835C239.31 228.345 240.63 227.46 240.825 226.05L242.52 214.305C242.73 212.895 241.71 211.695 240.465 211.875Z" fill="#4054B2"/>
<path d="M26.4449 93.2849C31.4155 93.2849 35.4449 89.2555 35.4449 84.2849C35.4449 79.3143 31.4155 75.2849 26.4449 75.2849C21.4744 75.2849 17.4449 79.3143 17.4449 84.2849C17.4449 89.2555 21.4744 93.2849 26.4449 93.2849Z" fill="#00BCE8"/>
<path d="M63.705 79.7849C66.1902 79.7849 68.205 77.7702 68.205 75.2849C68.205 72.7996 66.1902 70.7849 63.705 70.7849C61.2197 70.7849 59.205 72.7996 59.205 75.2849C59.205 77.7702 61.2197 79.7849 63.705 79.7849Z" fill="#00BCE8"/>
<path d="M177 300C181.971 300 186 295.971 186 291C186 286.029 181.971 282 177 282C172.029 282 168 286.029 168 291C168 295.971 172.029 300 177 300Z" fill="#00BCE8"/>
<path d="M42 49.5149C45.3137 49.5149 48 46.8286 48 43.5149C48 40.2012 45.3137 37.5149 42 37.5149C38.6863 37.5149 36 40.2012 36 43.5149C36 46.8286 38.6863 49.5149 42 49.5149Z" fill="#00BCE8"/>
<path d="M147.15 279C150.464 279 153.15 276.314 153.15 273C153.15 269.686 150.464 267 147.15 267C143.836 267 141.15 269.686 141.15 273C141.15 276.314 143.836 279 147.15 279Z" fill="#00BCE8"/>
<path d="M119.55 289.5C122.035 289.5 124.05 287.485 124.05 285C124.05 282.515 122.035 280.5 119.55 280.5C117.065 280.5 115.05 282.515 115.05 285C115.05 287.485 117.065 289.5 119.55 289.5Z" fill="#00BCE8"/>
</g>
<defs>
<clipPath id="clip0_3_770">
<rect width="300" height="300" fill="white"/>
</clipPath>
</defs>
</svg>
