<svg width="300" height="300" viewBox="0 0 300 300" fill="none" xmlns="http://www.w3.org/2000/svg">
<g clip-path="url(#clip0_3_355)">
<path d="M219.835 144.255C219.835 144.255 151.143 152.46 140.662 140.475C130.196 128.49 115.534 84.8399 120.556 60.1349C125.579 35.4299 149.624 -9.90014 202.977 1.93486C256.331 13.7849 305.218 55.7399 299.549 93.9749C293.88 132.21 272.286 141.66 219.835 144.255Z" fill="#00BCE8"/>
<path d="M99.2633 53.115L82.1956 40.995C81.2032 40.29 79.7746 40.875 79.3084 42.18L75.3986 53.085C74.9325 54.405 75.6543 55.74 76.8874 55.815L97.8798 57.045C99.8498 57.165 100.887 54.27 99.2783 53.13L99.2633 53.115Z" fill="#4054B2"/>
<path d="M109.354 30.315L104.211 20.595C103.91 20.025 103.098 19.965 102.572 20.475L98.1506 24.675C97.6243 25.185 97.6393 25.98 98.1957 26.31L107.76 31.83C108.662 32.34 109.835 31.23 109.354 30.315Z" fill="#4054B2"/>
<path d="M21.9701 89.34C26.9531 89.34 30.9926 85.3105 30.9926 80.34C30.9926 75.3694 26.9531 71.34 21.9701 71.34C16.987 71.34 12.9475 75.3694 12.9475 80.34C12.9475 85.3105 16.987 89.34 21.9701 89.34Z" fill="#00BCE8"/>
<path d="M51.2032 84.84C53.6947 84.84 55.7145 82.8252 55.7145 80.34C55.7145 77.8547 53.6947 75.84 51.2032 75.84C48.7117 75.84 46.6919 77.8547 46.6919 80.34C46.6919 82.8252 48.7117 84.84 51.2032 84.84Z" fill="#00BCE8"/>
<path d="M242.857 189C247.84 189 251.88 184.971 251.88 180C251.88 175.029 247.84 171 242.857 171C237.874 171 233.835 175.029 233.835 180C233.835 184.971 237.874 189 242.857 189Z" fill="#00BCE8"/>
<path d="M248.872 231.45C252.194 231.45 254.887 228.764 254.887 225.45C254.887 222.136 252.194 219.45 248.872 219.45C245.55 219.45 242.857 222.136 242.857 225.45C242.857 228.764 245.55 231.45 248.872 231.45Z" fill="#00BCE8"/>
<path d="M278.947 215.55C281.439 215.55 283.459 213.535 283.459 211.05C283.459 208.565 281.439 206.55 278.947 206.55C276.456 206.55 274.436 208.565 274.436 211.05C274.436 213.535 276.456 215.55 278.947 215.55Z" fill="#00BCE8"/>
<path d="M199.865 210.525L182.812 97.875C181.835 91.38 175.729 86.91 169.188 87.9L10.1956 111.915C3.65421 112.905 -0.842034 118.98 0.13541 125.475L17.188 238.125C18.1655 244.62 24.2708 249.09 30.8121 248.1L189.82 224.07C196.361 223.08 200.857 217.005 199.88 210.51L199.865 210.525Z" fill="#0B2540"/>
<path d="M173.127 123.85L18.6503 147.099C15.5297 147.569 13.3817 150.473 13.8525 153.586L25.523 230.743C25.9938 233.856 28.9053 235.998 32.0259 235.529L186.503 212.28C189.624 211.81 191.772 208.906 191.301 205.793L179.63 128.636C179.16 125.523 176.248 123.381 173.127 123.85Z" fill="white"/>
<path d="M178 114.375L175.669 98.9849C175.293 96.5399 173.008 94.8749 170.556 95.2349L11.985 119.205C9.53386 119.58 7.84965 121.845 8.21055 124.29L10.5414 139.68C10.9173 142.125 13.203 143.79 15.6542 143.43L174.241 119.475C176.692 119.1 178.376 116.835 178.015 114.39L178 114.375Z" fill="white"/>
<path d="M109.292 158.713L155.253 151.796C157.691 151.429 159.967 153.104 160.335 155.537L161.747 164.866C162.114 167.299 160.437 169.584 157.984 169.953L112.023 176.87C109.584 177.237 107.308 175.562 106.941 173.13L105.529 163.8C105.161 161.368 106.838 159.083 109.292 158.713Z" fill="#44B0EF"/>
<path d="M91.4437 185.085L86.8272 154.56C86.4512 152.115 84.1655 150.45 81.7144 150.81L29.6993 158.67C27.2482 159.045 25.564 161.31 25.9249 163.755L30.5414 194.28C30.9174 196.725 33.2031 198.39 35.6542 198.03L87.6693 190.17C90.1204 189.795 91.8046 187.53 91.4437 185.085Z" fill="#4054B2"/>
<path d="M20.0001 125.115C17.4738 125.49 15.7445 127.845 16.1204 130.35C16.4964 132.855 18.8573 134.58 21.3685 134.205C23.8948 133.83 25.6242 131.475 25.2482 128.97C24.8723 126.465 22.5114 124.74 20.0001 125.115Z" fill="#4054B2"/>
<path d="M35.2333 122.82C32.707 123.195 30.9776 125.55 31.3536 128.055C31.7295 130.56 34.0904 132.285 36.6017 131.91C39.128 131.535 40.8573 129.18 40.4814 126.675C40.1054 124.17 37.7445 122.445 35.2333 122.82Z" fill="#4054B2"/>
<path d="M55.6994 124.365C55.3235 121.86 52.9626 120.135 50.4513 120.51C47.925 120.885 46.1956 123.24 46.5716 125.745C46.9475 128.25 49.3084 129.975 51.8197 129.6C54.331 129.225 56.0753 126.87 55.6994 124.365Z" fill="#4054B2"/>
<path d="M112.962 141.345L110.045 145.05C109.699 145.5 109.804 146.16 110.256 146.4L118.165 150.465C118.902 150.84 119.684 149.865 119.218 149.13L114.226 141.36C113.94 140.91 113.308 140.895 112.962 141.345Z" fill="#00BCE8"/>
<path d="M133.609 141.42L129.76 140.64C129.293 140.55 128.842 140.865 128.827 141.3L128.722 148.62C128.722 149.31 129.729 149.505 130.105 148.905L134.06 142.365C134.286 141.99 134.06 141.525 133.609 141.435V141.42Z" fill="#00BCE8"/>
<path d="M81.7895 203.82L35.6542 210.84C34.8271 210.96 34.0602 210.405 33.9399 209.595L33.4887 206.655C33.3684 205.845 33.9248 205.08 34.7519 204.96L80.8872 197.94C81.7143 197.82 82.4812 198.375 82.6015 199.185L83.0527 202.125C83.173 202.935 82.6166 203.7 81.7895 203.82Z" fill="#00BCE8"/>
<path d="M83.1879 212.865L37.0526 219.885C36.2255 220.005 35.4586 219.45 35.3383 218.64L34.8872 215.7C34.7669 214.89 35.3233 214.125 36.1503 214.005L82.2857 206.985C83.1128 206.865 83.8797 207.42 84 208.23L84.4511 211.17C84.5714 211.98 84.015 212.745 83.1879 212.865Z" fill="#00BCE8"/>
<path d="M211.053 296.895C226.166 291.09 234.752 275.685 234.496 260.085C234.496 260.085 234.496 260.07 234.496 260.055C234.406 255.015 233.384 249.885 231.308 244.95C230.737 243.135 227.744 233.88 223.218 222.525C220.181 214.575 216.812 207.57 213.474 204.135C213.323 203.985 213.188 203.82 213.023 203.685C212.948 203.61 212.872 203.55 212.797 203.49C212.541 203.265 212.271 203.055 212 202.86C211.97 202.845 211.94 202.8 211.91 202.785C209.414 201.075 206.181 200.64 203.233 201.9C202.166 202.35 201.248 202.995 200.466 203.775H200.451C200.451 203.775 199.474 204.81 199.008 203.91C196.316 199.23 190.587 197.16 185.594 199.305C182.932 200.445 180.993 202.575 179.97 205.095C179.97 205.095 179.278 207.285 177.805 205.605C174.436 201.42 168.677 199.785 163.594 201.96C160.376 203.34 158.075 205.995 156.963 209.1V209.07C156.963 209.07 155.729 211.755 154.166 209.37L131.85 169.785C130.181 165.825 125.684 163.95 121.82 165.615C117.955 167.28 116.181 171.84 117.85 175.8L134.196 214.575L157.91 267.615C157.91 267.615 172 311.91 211.053 296.91V296.895Z" fill="#FFC747"/>
</g>
<defs>
<clipPath id="clip0_3_355">
<rect width="300" height="300" fill="white"/>
</clipPath>
</defs>
</svg>
