<svg width="141" height="164" viewBox="0 0 141 164" fill="none" xmlns="http://www.w3.org/2000/svg">
<path d="M131.383 0.632812H20.6498C16.0556 0.632812 12.3441 4.68121 12.3441 9.69229V24.7943V100.287C12.3441 105.289 16.0635 109.346 20.6498 109.346H131.383C135.969 109.346 139.689 105.289 139.689 100.287V24.7857V9.69229C139.689 4.68121 135.977 0.632812 131.383 0.632812Z" fill="white"/>
<path d="M129.421 21.8544V36.9564H2.07611V21.8544C2.07611 16.8433 5.7877 12.7949 10.3819 12.7949H121.115C125.717 12.7949 129.421 16.8433 129.421 21.8544Z" fill="#ADCDE2"/>
<path d="M15.9211 27.8884C17.4487 27.8884 18.6871 26.5377 18.6871 24.8715C18.6871 23.2052 17.4487 21.8545 15.9211 21.8545C14.3935 21.8545 13.1552 23.2052 13.1552 24.8715C13.1552 26.5377 14.3935 27.8884 15.9211 27.8884Z" fill="#EDF6FC"/>
<path d="M29.7589 27.8884C31.2865 27.8884 32.5249 26.5377 32.5249 24.8715C32.5249 23.2052 31.2865 21.8545 29.7589 21.8545C28.2313 21.8545 26.9929 23.2052 26.9929 24.8715C26.9929 26.5377 28.2313 27.8884 29.7589 27.8884Z" fill="#EDF6FC"/>
<path d="M43.6044 27.8884C45.132 27.8884 46.3704 26.5377 46.3704 24.8715C46.3704 23.2052 45.132 21.8545 43.6044 21.8545C42.0768 21.8545 40.8384 23.2052 40.8384 24.8715C40.8384 26.5377 42.0768 27.8884 43.6044 27.8884Z" fill="#EDF6FC"/>
<path d="M121.115 12.7951C125.709 12.7951 129.421 16.8435 129.421 21.8546V36.9566V112.449C129.421 117.452 125.701 121.509 121.115 121.509H10.3818C5.79552 121.509 2.07605 117.452 2.07605 112.449V36.948V21.8546C2.07605 16.8435 5.78764 12.7951 10.3818 12.7951H121.115ZM121.115 11.076H10.3818C4.93658 11.076 0.5 15.9152 0.5 21.8546V36.9566V112.449C0.5 118.389 4.9287 123.228 10.3818 123.228H121.115C126.56 123.228 130.997 118.389 130.997 112.449V36.948V21.8546C130.997 15.9066 126.568 11.076 121.115 11.076Z" fill="black"/>
<path d="M129.421 36.9479V112.441C129.421 117.443 125.701 121.5 121.115 121.5H10.3819C5.79558 121.5 2.07611 117.443 2.07611 112.441V36.9479H129.421Z" fill="url(#paint0_linear_3_4109)"/>
<path d="M115.583 68.6562C115.583 70.7363 114.755 72.6444 113.392 74.0025C112.06 75.3605 110.177 76.2029 108.136 76.2029H84.2744C80.1767 76.2029 76.8276 72.8249 76.8276 68.6562C76.8276 66.5761 77.655 64.668 79.0183 63.3099C80.35 61.9518 82.2334 61.1095 84.2744 61.1095H108.136C112.234 61.1095 115.583 64.4875 115.583 68.6562Z" fill="#00BEEC"/>
<path d="M62.9817 52.0502H15.921V82.2456H62.9817V52.0502Z" fill="#FFC40F"/>
<path d="M60.2158 97.3388H18.6869C17.1582 97.3388 15.921 95.9894 15.921 94.3219C15.921 92.6544 17.1582 91.3049 18.6869 91.3049H60.2158C61.7445 91.3049 62.9817 92.6544 62.9817 94.3219C62.9817 95.9894 61.7445 97.3388 60.2158 97.3388Z" fill="#ADCDE2"/>
<path d="M43.6042 109.424H18.6869C17.1582 109.424 15.921 108.074 15.921 106.407C15.921 104.739 17.1582 103.39 18.6869 103.39H43.6042C45.133 103.39 46.3702 104.739 46.3702 106.407C46.3702 108.066 45.133 109.424 43.6042 109.424Z" fill="#ADCDE2"/>
<path d="M140.5 114.375V129.924C140.5 143.513 134.275 156.225 123.888 163.772H85.1335C74.7552 156.225 68.5219 143.513 68.5219 129.924V103.381C68.5219 100.21 70.7914 97.4592 73.6992 97.3389C75.8584 97.2787 77.8521 97.8546 79.5936 98.9376C82.9191 101.052 85.1335 104.946 85.1335 109.415V78.1283C85.1335 74.2002 87.7339 70.5816 91.3352 70.1862C95.4881 69.7307 98.979 73.2634 98.979 77.7071V104.886C98.979 100.45 102.47 96.9177 106.623 97.3646C110.224 97.76 112.825 101.379 112.825 105.307V107.903C112.825 103.467 116.316 99.9346 120.468 100.382C124.07 100.777 126.67 104.396 126.67 108.324V113.936C126.67 109.501 130.161 105.969 134.314 106.416C137.892 106.828 140.5 110.447 140.5 114.375Z" fill="url(#paint1_linear_3_4109)"/>
<path d="M85.1337 109.424V130.56C82.0919 130.56 79.5939 127.844 79.5939 124.517V98.9377C82.9115 101.061 85.1337 104.954 85.1337 109.424Z" fill="#EFAF10"/>
<defs>
<linearGradient id="paint0_linear_3_4109" x1="2.07926" y1="79.2249" x2="129.424" y2="79.2249" gradientUnits="userSpaceOnUse">
<stop stop-color="#CDE6F6"/>
<stop offset="1" stop-color="#EDF6FC"/>
</linearGradient>
<linearGradient id="paint1_linear_3_4109" x1="68.5195" y1="116.965" x2="140.497" y2="116.965" gradientUnits="userSpaceOnUse">
<stop stop-color="#FFC40F"/>
<stop offset="1" stop-color="#FFCF57"/>
</linearGradient>
</defs>
</svg>
