<svg width="141" height="168" viewBox="0 0 141 168" fill="none" xmlns="http://www.w3.org/2000/svg">
<path d="M124.472 24.1396V100.119H28.0259V6.61388C28.0259 3.39952 30.4349 0.771973 33.3818 0.771973H98.865C101.531 0.771973 104.092 1.92809 105.979 3.98633L124.472 24.1396Z" fill="white"/>
<path d="M118.458 13.3231H35.7749C23.6017 13.3231 13.725 24.0872 13.725 37.3738V112.522C13.725 117.505 17.4268 121.543 21.9958 121.543H132.229C136.798 121.543 140.5 117.505 140.5 112.522V37.3738C140.5 24.0872 130.631 13.3231 118.458 13.3231Z" fill="white"/>
<path d="M130.695 43.2418V116.296C130.695 125.966 123.493 133.831 114.62 133.831H18.1815C9.31655 133.831 2.10577 125.974 2.10577 116.296V43.2418C2.10577 33.5725 9.30852 25.7073 18.1815 25.7073V110.446H114.628L107.513 42.0594L106.59 25.7073H114.628C123.493 25.7073 130.695 33.5725 130.695 43.2418Z" fill="#EDF6FC"/>
<path d="M125.877 133.831H6.92367C4.2658 133.831 2.10577 131.475 2.10577 128.576V110.454H130.703V128.576C130.695 131.475 128.543 133.831 125.877 133.831Z" fill="url(#paint0_linear_3_4132)"/>
<path d="M69.0828 125.063H63.7269C62.2495 125.063 61.045 123.758 61.045 122.138C61.045 120.527 62.2414 119.213 63.7269 119.213H69.0828C70.5603 119.213 71.7648 120.518 71.7648 122.138C71.7568 123.75 70.5603 125.063 69.0828 125.063Z" fill="#EDF6FC"/>
<path d="M85.1506 163.049H47.6513L53.0072 133.831H79.7947L85.1506 163.049Z" fill="#ADCDE2"/>
<path d="M90.5144 165.974H42.2873C40.8098 165.974 39.6053 164.669 39.6053 163.049C39.6053 161.437 40.8018 160.124 42.2873 160.124H90.5064C91.9839 160.124 93.1883 161.429 93.1883 163.049C93.1883 164.661 91.9919 165.974 90.5144 165.974Z" fill="#97BBCF"/>
<path d="M114.62 25.7073C123.485 25.7073 130.695 33.5637 130.695 43.2418V110.454V116.296V128.987C130.695 131.659 128.712 133.831 126.255 133.831H114.62H79.7944L84.6203 160.132H90.5142C91.9917 160.132 93.1962 161.437 93.1962 163.058C93.1962 164.669 91.9997 165.983 90.5142 165.983H42.2872C40.8097 165.983 39.6052 164.678 39.6052 163.058C39.6052 161.446 40.8016 160.132 42.2872 160.132H48.181L53.007 133.831H18.1817H6.53842C4.08933 133.831 2.09793 131.667 2.09793 128.987V116.296V110.454V43.2418C2.09793 33.5724 9.30068 25.7073 18.1736 25.7073V110.446H114.62L107.015 37.3911L106.582 25.6986H114.62M114.62 23.9556H106.582H104.912L104.976 25.7774L105.41 37.47V37.5313L105.418 37.5926L112.813 108.694H19.7876V25.7073V23.9556H18.1817C8.43346 23.9556 0.5 32.609 0.5 43.2418V110.454V116.296V128.987C0.5 132.622 3.21408 135.582 6.54645 135.582H18.1817H51.0477L46.8642 158.381H42.2872C39.9264 158.381 37.9992 160.474 37.9992 163.058C37.9992 165.642 39.9184 167.735 42.2872 167.735H90.5062C92.867 167.735 94.7941 165.642 94.7941 163.058C94.7941 160.474 92.875 158.381 90.5062 158.381H85.9292L81.7457 135.582H114.612H126.247C129.579 135.582 132.293 132.622 132.293 128.987V116.296V110.454V43.2418C132.301 32.609 124.368 23.9556 114.62 23.9556Z" fill="black"/>
<path d="M88.6998 11.0981H23.5378C20.5909 11.0981 18.1819 13.7256 18.1819 16.94V110.446H114.628V39.3792C114.628 36.2437 113.488 33.2308 111.448 31.0149L96.3683 14.5664C94.3368 12.3418 91.5745 11.0981 88.6998 11.0981Z" fill="#00BFED"/>
<path d="M93.1884 66.6182H90.5064C89.0289 66.6182 87.8245 65.3132 87.8245 63.6929C87.8245 62.0813 89.0209 60.7675 90.5064 60.7675H93.1884C94.6659 60.7675 95.8703 62.0725 95.8703 63.6929C95.8703 65.3132 94.6739 66.6182 93.1884 66.6182Z" fill="white"/>
<path d="M87.3747 58.3504C86.6922 58.3504 86.0016 58.0614 85.4797 57.4921C84.4358 56.3535 84.4358 54.5054 85.4797 53.3581L87.3747 51.2911C88.4186 50.1525 90.1129 50.1525 91.1648 51.2911C92.2087 52.4297 92.2087 54.2777 91.1648 55.4251L89.2698 57.4921C88.7478 58.0702 88.0573 58.3504 87.3747 58.3504Z" fill="white"/>
<path d="M89.2698 76.953C88.5872 76.953 87.8967 76.664 87.3747 76.0947L85.4797 74.0277C84.4358 72.8891 84.4358 71.041 85.4797 69.8937C86.5236 68.7551 88.2179 68.7551 89.2698 69.8937L91.1648 71.9607C92.2087 73.0993 92.2087 74.9473 91.1648 76.0947C90.6429 76.664 89.9523 76.953 89.2698 76.953Z" fill="white"/>
<path d="M44.9693 28.6326H31.5756C30.0981 28.6326 28.8936 27.3276 28.8936 25.7073C28.8936 24.0957 30.0901 22.7819 31.5756 22.7819H44.9693C46.4468 22.7819 47.6513 24.0869 47.6513 25.7073C47.6513 27.3188 46.4468 28.6326 44.9693 28.6326Z" fill="#EDF6FC"/>
<path d="M44.9693 40.3165H31.5756C30.0981 40.3165 28.8936 39.0115 28.8936 37.3912C28.8936 35.7709 30.0901 34.4659 31.5756 34.4659H44.9693C46.4468 34.4659 47.6513 35.7709 47.6513 37.3912C47.6513 39.0115 46.4468 40.3165 44.9693 40.3165Z" fill="#EDF6FC"/>
<path d="M73.6357 46.1673C73.451 46.1673 73.2904 46.1673 73.1298 46.2286C72.1421 46.3775 71.2508 46.9556 70.7209 47.8664C68.0389 52.2807 63.486 54.9345 58.6119 54.9345H55.689V72.469H58.6119C63.486 72.469 68.0389 75.1316 70.7209 79.5371C71.2588 80.4392 72.1421 81.026 73.1298 81.1749C73.2904 81.2362 73.451 81.2362 73.6357 81.2362C75.5628 81.2362 77.1206 79.5371 77.1206 77.4351V76.384V51.0107V49.9597C77.1206 47.8577 75.5628 46.1673 73.6357 46.1673Z" fill="white"/>
<path d="M55.6892 87.0779C54.6292 87.0779 53.6175 86.3772 53.1999 85.2386L47.844 70.6295C47.298 69.1318 47.9645 67.4326 49.3376 66.8283C50.7187 66.2327 52.2685 66.9597 52.8225 68.4574L58.1784 83.0665C58.7244 84.5642 58.058 86.2634 56.6849 86.8677C56.3556 87.0078 56.0184 87.0779 55.6892 87.0779Z" fill="white"/>
<path d="M55.6809 72.4603H50.325C45.8845 72.4603 42.2872 68.5365 42.2872 63.6931C42.2872 58.8496 45.8845 54.9258 50.325 54.9258H55.6809V72.4603Z" fill="white"/>
<defs>
<linearGradient id="paint0_linear_3_4132" x1="2.10361" y1="122.139" x2="130.697" y2="122.139" gradientUnits="userSpaceOnUse">
<stop stop-color="#CDE6F6"/>
<stop offset="1" stop-color="#EDF6FC"/>
</linearGradient>
</defs>
</svg>
