<svg width="100" height="100" viewBox="0 0 100 100" fill="none" xmlns="http://www.w3.org/2000/svg">
<g clip-path="url(#clip0_3_244)">
<path d="M98.4762 39.9666C98.4762 39.9666 83.0596 92.3141 38.1072 87.9171C19.7143 86.1773 5.00006 71.3417 7.40482 52.6215C11.2858 22.5214 36.6667 0 66.7262 0C66.7262 0 108.393 1.00095 98.4643 39.9666H98.4762Z" fill="#FCF4E0"/>
<path d="M36.3929 38.9657C28.0596 31.0415 14.5596 31.7326 6.23814 40.5029C-2.08329 49.2731 -2.08329 62.7979 6.23814 70.7221L33.7262 98.5701C35.881 100.62 39.3929 100.441 41.5477 98.1768C42.2262 97.4619 42.6667 96.6158 42.9167 95.734H42.9405C43.1905 94.5543 43.9643 95.448 43.9643 95.448C44 95.4838 44.0239 95.5195 44.0596 95.5434C46.4405 97.8074 50.2858 97.6049 52.6667 95.1025C53.7262 93.9824 54.3096 92.6001 54.4286 91.2059C54.3691 89.9666 55.2977 90.622 55.2977 90.622V90.6101C57.6905 92.6478 61.3691 92.3975 63.6667 89.9786C64.9405 88.644 65.5238 86.9161 65.4286 85.2598C65.4286 85.2121 65.4286 85.1764 65.4167 85.1287C65.4167 85.0691 65.4167 84.9976 65.4048 84.938C65.381 83.7703 66.5119 84.2827 66.5119 84.2827C69 85.4028 72.0953 84.8308 74.1786 82.6501C76.7739 79.9214 76.7619 75.715 74.1786 73.2483L36.381 39.0014L36.3929 38.9657Z" fill="#FFC747"/>
<path d="M25.6191 44.5901C25.6191 44.5901 25.881 60.4504 31.6072 66.0748C37.3453 71.6992 39.1548 62.5238 38.7382 60.093C38.3215 57.6621 38.131 52.848 38.9048 50.143C39.6786 47.438 42.5477 44.5067 45.2025 46.9257C47.8572 49.3446 70.3691 69.7808 70.3691 69.7808C70.3691 69.7808 72.4167 71.0439 73.9524 67.3499C75.4882 63.6559 78.2144 48.01 72.631 41.2536C67.0477 34.4971 60.4644 27.2522 49.762 28.2054C39.0596 29.1587 30.1429 33.3413 27.9644 36.3799C25.5477 39.7522 25.6191 44.5901 25.6191 44.5901Z" fill="#0B2540"/>
<path d="M38.6667 85.1883L38.5715 85.093C36.9762 83.4962 34.4881 83.3651 32.7262 84.6759L34.6072 82.7931C36.75 80.6482 36.75 77.1807 34.6072 75.0358L34.5 74.9285C32.3572 72.7836 28.8929 72.7836 26.75 74.9285L26.5834 75.0953C28.6548 73.0219 28.6548 69.6616 26.5834 67.5882L26.4762 67.4809C24.4048 65.4075 21.0477 65.4075 18.9762 67.4809L17.3096 69.1492C19.381 67.0758 19.381 63.7035 17.3096 61.6301L17.2024 61.5229C15.131 59.4495 11.7619 59.4495 9.69052 61.5229L4.51195 66.7064C2.44052 68.7798 2.44052 72.1521 4.51195 74.2255L4.61909 74.3327C5.96433 75.6792 7.84528 76.132 9.57147 75.7388C9.60718 75.7388 9.61909 75.7388 9.66671 75.7388C11.0119 75.2741 10.5953 76.1916 10.5953 76.2393H10.6191C9.59528 78.2412 9.8929 80.7436 11.5596 82.4118L11.6667 82.5191C13.1786 84.0324 15.3691 84.4256 17.2619 83.7345C17.2858 83.7345 17.2977 83.7345 17.3215 83.7345C18.4167 83.2579 18.1786 84.4733 18.1786 84.5091H18.2024C17.6905 86.3561 18.131 88.4176 19.5834 89.8594L19.6905 89.9666C21.1667 91.4442 23.25 91.8732 25.1191 91.3251C25.1548 91.3251 25.1667 91.3251 25.2024 91.3251C26.2977 91.0629 26.2262 92.2307 26.2143 92.2784C26.2143 92.2784 26.2143 92.2784 26.2262 92.2784C26.2143 92.3618 26.1905 92.4452 26.1786 92.5286C26.0358 93.8394 26.4643 95.1978 27.4643 96.1988L27.5596 96.2941C29.3096 98.0458 32.1548 98.0458 33.9167 96.2941L38.6548 91.5515C40.4048 89.7998 40.4048 86.9519 38.6548 85.1883H38.6667Z" fill="#0B2540"/>
<path d="M66.9643 8.41277L60.3929 6.68494C59.9643 6.57769 59.5238 6.87559 59.5119 7.31649L58.881 20.9009C58.8453 21.592 59.7977 21.8422 60.1667 21.2345L67.3691 9.37798C67.5953 8.99666 67.4048 8.53193 66.9762 8.41277H66.9643Z" fill="#0B2540"/>
<path d="M87.3095 26.8947L85.2024 20.4242C85.0595 19.9952 84.5714 19.8046 84.1905 20.0191L72.4405 26.847C71.8452 27.1926 72.1428 28.122 72.8571 28.1101L86.7143 27.7526C87.1547 27.7526 87.4524 27.3236 87.3095 26.8947Z" fill="#0B2540"/>
</g>
<defs>
<clipPath id="clip0_3_244">
<rect width="100" height="100" fill="white"/>
</clipPath>
</defs>
</svg>
