<svg width="105" height="106" viewBox="0 0 105 106" fill="none" xmlns="http://www.w3.org/2000/svg">
<rect y="0.734863" width="105" height="105" rx="8" fill="#E2E5F4"/>
<g clip-path="url(#clip0_3_4172)">
<path d="M77.7773 76.1626C80.2992 76.1626 82.3522 74.116 82.3522 71.5736C82.3522 69.0312 80.3118 66.9846 77.7773 66.9846C75.2428 66.9846 73.2024 69.0312 73.2024 71.5736C73.2024 74.116 75.2428 76.1626 77.7773 76.1626ZM77.7773 78.4507C74.7232 78.4507 68.6403 79.9888 68.6403 83.0397V84.1838C68.6403 84.8194 69.1598 85.3278 69.7808 85.3278H85.7738C86.4074 85.3278 86.9143 84.8066 86.9143 84.1838V83.0397C86.9143 79.9888 80.8314 78.4507 77.7773 78.4507Z" fill="#4054B2"/>
<path d="M52.3558 76.1626C54.8777 76.1626 56.9306 74.116 56.9306 71.5736C56.9306 69.0312 54.8903 66.9846 52.3558 66.9846C49.8212 66.9846 47.7809 69.0312 47.7809 71.5736C47.7809 74.116 49.8212 76.1626 52.3558 76.1626ZM52.3558 78.4507C49.3017 78.4507 43.2188 79.9888 43.2188 83.0397V84.1838C43.2188 84.8194 43.7383 85.3278 44.3593 85.3278H60.3523C60.9859 85.3278 61.4928 84.8066 61.4928 84.1838V83.0397C61.4928 79.9888 55.4099 78.4507 52.3558 78.4507Z" fill="#4054B2"/>
<path d="M27.137 76.1626C29.6589 76.1626 31.7119 74.116 31.7119 71.5736C31.7119 69.0312 29.6716 66.9846 27.137 66.9846C24.6025 66.9846 22.5622 69.0312 22.5622 71.5736C22.5622 74.116 24.6025 76.1626 27.137 76.1626ZM27.137 78.4507C24.0829 78.4507 18 79.9888 18 83.0397V84.1838C18 84.8194 18.5196 85.3278 19.1406 85.3278H35.1335C35.7672 85.3278 36.2741 84.8066 36.2741 84.1838V83.0397C36.2741 79.9888 30.1912 78.4507 27.137 78.4507Z" fill="#4054B2"/>
<path d="M52.3558 32.51C55.8788 32.51 58.7175 29.6499 58.7175 26.1287C58.7175 22.6075 55.8661 19.7473 52.3558 19.7473C48.8454 19.7473 45.9941 22.6075 45.9941 26.1287C45.9941 29.6499 48.8454 32.51 52.3558 32.51ZM52.3558 35.7007C48.1104 35.7007 39.6197 37.8363 39.6197 42.082V43.6837C39.6197 44.5609 40.342 45.2854 41.2165 45.2854H63.4951C64.3695 45.2854 65.0919 44.5609 65.0919 43.6837V42.082C65.0919 37.8363 56.6138 35.7007 52.3558 35.7007Z" fill="#4054B2"/>
<path d="M76.9662 51.3235H27.7327C26.3007 51.3235 25.1348 52.493 25.1348 53.9294V61.8235C25.1348 62.8786 25.9838 63.7303 27.0357 63.7303C28.0875 63.7303 28.9366 62.8786 28.9366 61.8235V55.137H50.4549V61.9633C50.4549 63.0184 51.304 63.8701 52.3558 63.8701C53.4076 63.8701 54.2567 63.0184 54.2567 61.9633V55.137H75.775V61.8235C75.775 62.8786 76.6241 63.7303 77.6759 63.7303C78.7278 63.7303 79.5768 62.8786 79.5768 61.8235V53.9294C79.5768 52.493 78.4109 51.3235 76.9789 51.3235H76.9662Z" fill="#4054B2"/>
</g>
<defs>
<clipPath id="clip0_3_4172">
<rect width="69" height="66" fill="white" transform="translate(18 19.7473)"/>
</clipPath>
</defs>
</svg>
