<svg width="121" height="192" viewBox="0 0 121 192" fill="none" xmlns="http://www.w3.org/2000/svg">
<path d="M2.78002 17.415C2.78002 9.73816 9.00329 3.51488 16.6801 3.51488H103.417C111.093 3.51488 117.317 9.73816 117.317 17.415V189.22H2.78002V17.415Z" fill="white" stroke="#121926" stroke-width="5.56003"/>
<path d="M5.55994 39.0991H114.537V192H5.55994V39.0991Z" fill="#EEF2F6"/>
<path d="M11.6763 48.5511C11.6763 47.0158 12.9209 45.7711 14.4563 45.7711H105.641C107.176 45.7711 108.421 47.0158 108.421 48.5511V192H11.6763V48.5511Z" fill="white"/>
<path d="M21.406 94.1434C21.406 92.7616 22.5262 91.6414 23.908 91.6414H55.0442C56.426 91.6414 57.5462 92.7616 57.5462 94.1434V110.824C57.5462 112.205 56.426 113.326 55.0442 113.326H23.908C22.5262 113.326 21.406 112.205 21.406 110.824V94.1434Z" fill="white" stroke="#CDD5DF" stroke-width="0.556003"/>
<path d="M62.5503 94.1434C62.5503 92.7616 63.6705 91.6414 65.0523 91.6414H96.1885C97.5703 91.6414 98.6905 92.7616 98.6905 94.1434V110.824C98.6905 112.205 97.5703 113.326 96.1885 113.326H65.0523C63.6705 113.326 62.5503 112.205 62.5503 110.824V94.1434Z" fill="white" stroke="#CDD5DF" stroke-width="0.556003"/>
<path d="M22.1934 67.4474V60.1688H23.512V66.3421H26.7177V67.4474H22.1934ZM30.2219 67.554C29.6746 67.554 29.2019 67.4403 28.8039 67.2128C28.4082 66.983 28.1037 66.6584 27.8905 66.239C27.6773 65.8173 27.5706 65.3209 27.5706 64.7499C27.5706 64.1884 27.6773 63.6956 27.8905 63.2714C28.1061 62.845 28.407 62.5133 28.7932 62.2763C29.1794 62.037 29.6331 61.9174 30.1544 61.9174C30.4908 61.9174 30.8083 61.9719 31.1069 62.0809C31.4078 62.1875 31.6731 62.3533 31.903 62.5784C32.1351 62.8035 32.3176 63.0902 32.4503 63.4385C32.583 63.7844 32.6493 64.1967 32.6493 64.6753V65.0698H28.1748V64.2026H31.4161C31.4137 63.9562 31.3604 63.737 31.2561 63.5451C31.1519 63.3508 31.0062 63.198 30.819 63.0866C30.6342 62.9753 30.4186 62.9196 30.1722 62.9196C29.9092 62.9196 29.6782 62.9836 29.4791 63.1115C29.2801 63.2371 29.1249 63.4029 29.0136 63.6091C28.9046 63.8128 28.8489 64.0367 28.8465 64.2808V65.0378C28.8465 65.3553 28.9046 65.6277 29.0207 65.8552C29.1368 66.0803 29.2991 66.2532 29.5076 66.3741C29.7161 66.4925 29.9601 66.5518 30.2397 66.5518C30.4269 66.5518 30.5963 66.5257 30.7479 66.4736C30.8995 66.4191 31.031 66.3397 31.1424 66.2355C31.2538 66.1312 31.3379 66.0021 31.3947 65.8481L32.596 65.9831C32.5202 66.3006 32.3756 66.5778 32.1624 66.8148C31.9515 67.0493 31.6814 67.2318 31.3521 67.3621C31.0227 67.49 30.646 67.554 30.2219 67.554ZM36.4636 61.9884V62.9836H33.3254V61.9884H36.4636ZM34.1002 60.6806H35.3868V65.8054C35.3868 65.9784 35.4128 66.1111 35.465 66.2035C35.5194 66.2935 35.5905 66.3551 35.6782 66.3883C35.7659 66.4215 35.863 66.4381 35.9696 66.4381C36.0502 66.4381 36.1236 66.4321 36.19 66.4203C36.2587 66.4084 36.3108 66.3978 36.3463 66.3883L36.5631 67.3941C36.4944 67.4178 36.3961 67.4438 36.2682 67.4723C36.1426 67.5007 35.9886 67.5173 35.8061 67.522C35.4839 67.5315 35.1937 67.4829 34.9354 67.3763C34.6771 67.2673 34.4722 67.0991 34.3206 66.8716C34.1713 66.6442 34.0978 66.3599 34.1002 66.0187V60.6806ZM38.8848 60.1688V60.8938C38.8848 61.1023 38.8445 61.3191 38.7639 61.5442C38.6858 61.7669 38.578 61.9802 38.4405 62.1839C38.3031 62.3853 38.1467 62.5583 37.9714 62.7028L37.3743 62.3154C37.5046 62.1188 37.6184 61.9067 37.7155 61.6792C37.8127 61.4494 37.8612 61.19 37.8612 60.9009V60.1688H38.8848ZM43.5352 63.4314L42.3624 63.5593C42.3292 63.4408 42.2712 63.3295 42.1882 63.2252C42.1077 63.121 41.9987 63.0369 41.8613 62.9729C41.7238 62.9089 41.5556 62.8769 41.3566 62.8769C41.0889 62.8769 40.8638 62.935 40.6813 63.0511C40.5013 63.1672 40.4124 63.3176 40.4148 63.5024C40.4124 63.6612 40.4705 63.7903 40.5889 63.8898C40.7098 63.9893 40.9088 64.0711 41.186 64.1351L42.1171 64.3341C42.6337 64.4454 43.0175 64.622 43.2686 64.8636C43.5222 65.1053 43.6501 65.4216 43.6525 65.8125C43.6501 66.1561 43.5494 66.4594 43.3504 66.7224C43.1537 66.983 42.8801 67.1868 42.5294 67.3337C42.1787 67.4806 41.776 67.554 41.321 67.554C40.6529 67.554 40.1151 67.4142 39.7075 67.1346C39.3 66.8527 39.0572 66.4606 38.979 65.9583L40.2335 65.8374C40.2904 66.0838 40.4112 66.2698 40.596 66.3954C40.7808 66.521 41.0213 66.5838 41.3175 66.5838C41.6231 66.5838 41.8684 66.521 42.0532 66.3954C42.2404 66.2698 42.3339 66.1146 42.3339 65.9298C42.3339 65.7735 42.2735 65.6443 42.1527 65.5424C42.0342 65.4406 41.8494 65.3624 41.5983 65.3079L40.6671 65.1124C40.1435 65.0034 39.7561 64.8198 39.505 64.5615C39.2538 64.3009 39.1294 63.9716 39.1318 63.5735C39.1294 63.2371 39.2206 62.9457 39.4054 62.6992C39.5926 62.4505 39.8521 62.2586 40.1838 62.1235C40.5178 61.9861 40.9029 61.9174 41.3388 61.9174C41.9785 61.9174 42.482 62.0536 42.8493 62.3261C43.2189 62.5985 43.4475 62.967 43.5352 63.4314ZM49.5699 69.6082C49.1079 69.6082 48.711 69.5454 48.3793 69.4199C48.0476 69.2967 47.781 69.1308 47.5796 68.9223C47.3782 68.7138 47.2385 68.4828 47.1603 68.2293L48.3189 67.9485C48.371 68.0551 48.4468 68.1606 48.5463 68.2648C48.6458 68.3714 48.7797 68.4591 48.9479 68.5278C49.1185 68.5989 49.3329 68.6344 49.5912 68.6344C49.9561 68.6344 50.2582 68.5456 50.4975 68.3679C50.7368 68.1925 50.8564 67.9035 50.8564 67.5007V66.4665H50.7925C50.7261 66.5992 50.629 66.7354 50.501 66.8752C50.3755 67.015 50.2084 67.1323 49.9999 67.227C49.7938 67.3218 49.5343 67.3692 49.2216 67.3692C48.8022 67.3692 48.4219 67.2709 48.0808 67.0742C47.7419 66.8752 47.4718 66.579 47.2704 66.1857C47.0714 65.79 46.9719 65.2948 46.9719 64.7001C46.9719 64.1007 47.0714 63.5949 47.2704 63.1826C47.4718 62.768 47.7431 62.454 48.0843 62.2408C48.4255 62.0252 48.8058 61.9174 49.2251 61.9174C49.545 61.9174 49.808 61.9719 50.0141 62.0809C50.2226 62.1875 50.3885 62.3166 50.5117 62.4682C50.6349 62.6175 50.7285 62.7585 50.7925 62.8912H50.8635V61.9884H52.1323V67.5362C52.1323 68.003 52.021 68.3892 51.7982 68.6948C51.5755 69.0005 51.2711 69.2291 50.8849 69.3808C50.4987 69.5324 50.0603 69.6082 49.5699 69.6082ZM49.5805 66.3599C49.853 66.3599 50.0852 66.2935 50.2771 66.1608C50.469 66.0282 50.6148 65.8374 50.7143 65.5886C50.8138 65.3399 50.8635 65.0413 50.8635 64.693C50.8635 64.3495 50.8138 64.0486 50.7143 63.7903C50.6171 63.5321 50.4726 63.3319 50.2807 63.1897C50.0911 63.0452 49.8578 62.9729 49.5805 62.9729C49.2939 62.9729 49.0546 63.0475 48.8626 63.1968C48.6707 63.3461 48.5262 63.551 48.429 63.8116C48.3319 64.0699 48.2833 64.3637 48.2833 64.693C48.2833 65.0271 48.3319 65.3197 48.429 65.5709C48.5286 65.8197 48.6743 66.0139 48.8662 66.1537C49.0605 66.2912 49.2986 66.3599 49.5805 66.3599ZM55.8676 67.554C55.3202 67.554 54.8476 67.4403 54.4495 67.2128C54.0538 66.983 53.7494 66.6584 53.5361 66.239C53.3229 65.8173 53.2163 65.3209 53.2163 64.7499C53.2163 64.1884 53.3229 63.6956 53.5361 63.2714C53.7518 62.845 54.0527 62.5133 54.4389 62.2763C54.8251 62.037 55.2788 61.9174 55.8 61.9174C56.1365 61.9174 56.454 61.9719 56.7525 62.0809C57.0534 62.1875 57.3188 62.3533 57.5486 62.5784C57.7808 62.8035 57.9632 63.0902 58.0959 63.4385C58.2286 63.7844 58.2949 64.1967 58.2949 64.6753V65.0698H53.8205V64.2026H57.0617C57.0593 63.9562 57.006 63.737 56.9018 63.5451C56.7975 63.3508 56.6518 63.198 56.4646 63.0866C56.2798 62.9753 56.0642 62.9196 55.8178 62.9196C55.5548 62.9196 55.3238 62.9836 55.1248 63.1115C54.9258 63.2371 54.7706 63.4029 54.6592 63.6091C54.5502 63.8128 54.4945 64.0367 54.4922 64.2808V65.0378C54.4922 65.3553 54.5502 65.6277 54.6663 65.8552C54.7824 66.0803 54.9447 66.2532 55.1532 66.3741C55.3617 66.4925 55.6058 66.5518 55.8853 66.5518C56.0725 66.5518 56.2419 66.5257 56.3936 66.4736C56.5452 66.4191 56.6767 66.3397 56.7881 66.2355C56.8994 66.1312 56.9835 66.0021 57.0404 65.8481L58.2416 65.9831C58.1658 66.3006 58.0213 66.5778 57.808 66.8148C57.5972 67.0493 57.3271 67.2318 56.9977 67.3621C56.6684 67.49 56.2917 67.554 55.8676 67.554ZM62.1093 61.9884V62.9836H58.9711V61.9884H62.1093ZM59.7459 60.6806H61.0324V65.8054C61.0324 65.9784 61.0585 66.1111 61.1106 66.2035C61.1651 66.2935 61.2362 66.3551 61.3238 66.3883C61.4115 66.4215 61.5086 66.4381 61.6153 66.4381C61.6958 66.4381 61.7693 66.4321 61.8356 66.4203C61.9043 66.4084 61.9565 66.3978 61.992 66.3883L62.2088 67.3941C62.1401 67.4178 62.0417 67.4438 61.9138 67.4723C61.7882 67.5007 61.6342 67.5173 61.4518 67.522C61.1296 67.5315 60.8393 67.4829 60.5811 67.3763C60.3228 67.2673 60.1178 67.0991 59.9662 66.8716C59.8169 66.6442 59.7435 66.3599 59.7459 66.0187V60.6806ZM69.9823 63.4314L68.8094 63.5593C68.7763 63.4408 68.7182 63.3295 68.6353 63.2252C68.5547 63.121 68.4458 63.0369 68.3083 62.9729C68.1709 62.9089 68.0027 62.8769 67.8037 62.8769C67.5359 62.8769 67.3108 62.935 67.1284 63.0511C66.9483 63.1672 66.8595 63.3176 66.8619 63.5024C66.8595 63.6612 66.9175 63.7903 67.036 63.8898C67.1568 63.9893 67.3559 64.0711 67.6331 64.1351L68.5642 64.3341C69.0807 64.4454 69.4646 64.622 69.7157 64.8636C69.9692 65.1053 70.0972 65.4216 70.0995 65.8125C70.0972 66.1561 69.9965 66.4594 69.7975 66.7224C69.6008 66.983 69.3271 67.1868 68.9765 67.3337C68.6258 67.4806 68.223 67.554 67.7681 67.554C67.1 67.554 66.5621 67.4142 66.1546 67.1346C65.7471 66.8527 65.5042 66.4606 65.426 65.9583L66.6806 65.8374C66.7375 66.0838 66.8583 66.2698 67.0431 66.3954C67.2279 66.521 67.4684 66.5838 67.7646 66.5838C68.0702 66.5838 68.3154 66.521 68.5002 66.3954C68.6874 66.2698 68.781 66.1146 68.781 65.9298C68.781 65.7735 68.7206 65.6443 68.5998 65.5424C68.4813 65.4406 68.2965 65.3624 68.0453 65.3079L67.1142 65.1124C66.5906 65.0034 66.2032 64.8198 65.952 64.5615C65.7009 64.3009 65.5765 63.9716 65.5789 63.5735C65.5765 63.2371 65.6677 62.9457 65.8525 62.6992C66.0397 62.4505 66.2991 62.2586 66.6308 62.1235C66.9649 61.9861 67.3499 61.9174 67.7859 61.9174C68.4256 61.9174 68.9291 62.0536 69.2963 62.3261C69.666 62.5985 69.8946 62.967 69.9823 63.4314ZM73.8863 61.9884V62.9836H70.7482V61.9884H73.8863ZM71.5229 60.6806H72.8095V65.8054C72.8095 65.9784 72.8355 66.1111 72.8877 66.2035C72.9422 66.2935 73.0132 66.3551 73.1009 66.3883C73.1886 66.4215 73.2857 66.4381 73.3923 66.4381C73.4729 66.4381 73.5463 66.4321 73.6127 66.4203C73.6814 66.4084 73.7335 66.3978 73.7691 66.3883L73.9858 67.3941C73.9171 67.4178 73.8188 67.4438 73.6909 67.4723C73.5653 67.5007 73.4113 67.5173 73.2288 67.522C72.9066 67.5315 72.6164 67.4829 72.3581 67.3763C72.0999 67.2673 71.8949 67.0991 71.7433 66.8716C71.594 66.6442 71.5206 66.3599 71.5229 66.0187V60.6806ZM76.5332 67.5576C76.1873 67.5576 75.8757 67.496 75.5985 67.3728C75.3236 67.2472 75.1057 67.0624 74.9445 66.8183C74.7858 66.5743 74.7064 66.2734 74.7064 65.9156C74.7064 65.6076 74.7633 65.3529 74.877 65.1515C74.9907 64.9501 75.1459 64.789 75.3426 64.6682C75.5392 64.5473 75.7608 64.4561 76.0072 64.3945C76.256 64.3305 76.513 64.2843 76.7784 64.2559C77.0983 64.2227 77.3577 64.1931 77.5567 64.167C77.7557 64.1386 77.9003 64.096 77.9903 64.0391C78.0827 63.9799 78.1289 63.8887 78.1289 63.7654V63.7441C78.1289 63.4764 78.0495 63.2691 77.8908 63.1222C77.7321 62.9753 77.5034 62.9018 77.2049 62.9018C76.8898 62.9018 76.6398 62.9705 76.455 63.108C76.2725 63.2454 76.1493 63.4077 76.0854 63.5949L74.8841 63.4243C74.9789 63.0926 75.1353 62.8153 75.3532 62.5926C75.5712 62.3675 75.8378 62.1993 76.1529 62.088C76.468 61.9742 76.8163 61.9174 77.1978 61.9174C77.4608 61.9174 77.7226 61.9482 77.9832 62.0098C78.2438 62.0714 78.4819 62.1733 78.6976 62.3154C78.9132 62.4552 79.0861 62.6459 79.2164 62.8876C79.3491 63.1293 79.4155 63.4314 79.4155 63.7939V67.4474H78.1787V66.6975H78.136C78.0578 66.8491 77.9477 66.9913 77.8055 67.124C77.6657 67.2543 77.4892 67.3597 77.276 67.4403C77.0651 67.5185 76.8175 67.5576 76.5332 67.5576ZM76.8672 66.6122C77.1255 66.6122 77.3494 66.5613 77.539 66.4594C77.7285 66.3551 77.8742 66.2177 77.9761 66.0471C78.0803 65.8765 78.1325 65.6905 78.1325 65.4891V64.8459C78.0922 64.879 78.0235 64.9098 77.9263 64.9383C77.8316 64.9667 77.7249 64.9916 77.6065 65.0129C77.488 65.0342 77.3707 65.0532 77.2546 65.0698C77.1385 65.0863 77.0378 65.1006 76.9525 65.1124C76.7606 65.1385 76.5889 65.1811 76.4372 65.2404C76.2856 65.2996 76.1659 65.3825 76.0783 65.4891C75.9906 65.5934 75.9468 65.7284 75.9468 65.8943C75.9468 66.1312 76.0332 66.3101 76.2062 66.4309C76.3792 66.5518 76.5995 66.6122 76.8672 66.6122ZM80.7091 67.4474V61.9884H81.9566V62.8983H82.0134C82.1129 62.5831 82.2835 62.3403 82.5252 62.1697C82.7693 61.9967 83.0477 61.9103 83.3604 61.9103C83.4315 61.9103 83.5109 61.9138 83.5985 61.9209C83.6886 61.9257 83.7632 61.934 83.8224 61.9458V63.1293C83.7679 63.1103 83.6814 63.0937 83.563 63.0795C83.4469 63.0629 83.3343 63.0546 83.2254 63.0546C82.9908 63.0546 82.7799 63.1056 82.5927 63.2075C82.4079 63.307 82.2622 63.4456 82.1556 63.6233C82.049 63.801 81.9957 64.0059 81.9957 64.2381V67.4474H80.7091ZM87.6963 61.9884V62.9836H84.5581V61.9884H87.6963ZM85.3329 60.6806H86.6194V65.8054C86.6194 65.9784 86.6455 66.1111 86.6976 66.2035C86.7521 66.2935 86.8232 66.3551 86.9109 66.3883C86.9985 66.4215 87.0957 66.4381 87.2023 66.4381C87.2828 66.4381 87.3563 66.4321 87.4226 66.4203C87.4913 66.4084 87.5435 66.3978 87.579 66.3883L87.7958 67.3941C87.7271 67.4178 87.6288 67.4438 87.5008 67.4723C87.3752 67.5007 87.2212 67.5173 87.0388 67.522C86.7166 67.5315 86.4263 67.4829 86.1681 67.3763C85.9098 67.2673 85.7049 67.0991 85.5532 66.8716C85.404 66.6442 85.3305 66.3599 85.3329 66.0187V60.6806ZM91.1303 67.554C90.583 67.554 90.1103 67.4403 89.7123 67.2128C89.3166 66.983 89.0121 66.6584 88.7989 66.239C88.5857 65.8173 88.479 65.3209 88.479 64.7499C88.479 64.1884 88.5857 63.6956 88.7989 63.2714C89.0145 62.845 89.3154 62.5133 89.7016 62.2763C90.0878 62.037 90.5415 61.9174 91.0628 61.9174C91.3992 61.9174 91.7167 61.9719 92.0153 62.0809C92.3162 62.1875 92.5815 62.3533 92.8114 62.5784C93.0436 62.8035 93.226 63.0902 93.3587 63.4385C93.4914 63.7844 93.5577 64.1967 93.5577 64.6753V65.0698H89.0832V64.2026H92.3245C92.3221 63.9562 92.2688 63.737 92.1645 63.5451C92.0603 63.3508 91.9146 63.198 91.7274 63.0866C91.5426 62.9753 91.327 62.9196 91.0806 62.9196C90.8176 62.9196 90.5866 62.9836 90.3875 63.1115C90.1885 63.2371 90.0333 63.4029 89.922 63.6091C89.813 63.8128 89.7573 64.0367 89.7549 64.2808V65.0378C89.7549 65.3553 89.813 65.6277 89.9291 65.8552C90.0452 66.0803 90.2075 66.2532 90.416 66.3741C90.6245 66.4925 90.8685 66.5518 91.1481 66.5518C91.3353 66.5518 91.5047 66.5257 91.6563 66.4736C91.808 66.4191 91.9395 66.3397 92.0508 66.2355C92.1622 66.1312 92.2463 66.0021 92.3031 65.8481L93.5044 65.9831C93.4286 66.3006 93.2841 66.5778 93.0708 66.8148C92.8599 67.0493 92.5898 67.2318 92.2605 67.3621C91.9312 67.49 91.5544 67.554 91.1303 67.554ZM96.6719 67.5433C96.2431 67.5433 95.8592 67.4332 95.5204 67.2128C95.1816 66.9925 94.9139 66.6726 94.7172 66.2532C94.5206 65.8339 94.4222 65.3245 94.4222 64.725C94.4222 64.1185 94.5217 63.6067 94.7208 63.1897C94.9222 62.7703 95.1934 62.454 95.5346 62.2408C95.8758 62.0252 96.2561 61.9174 96.6755 61.9174C96.9953 61.9174 97.2583 61.9719 97.4644 62.0809C97.6706 62.1875 97.8341 62.3166 97.9549 62.4682C98.0757 62.6175 98.1693 62.7585 98.2357 62.8912H98.289V60.1688H99.5791V67.4474H98.3139V66.5873H98.2357C98.1693 66.72 98.0734 66.861 97.9478 67.0102C97.8222 67.1571 97.6564 67.2827 97.4502 67.387C97.2441 67.4912 96.9847 67.5433 96.6719 67.5433ZM97.0309 66.4878C97.3033 66.4878 97.5355 66.4144 97.7274 66.2675C97.9194 66.1182 98.0651 65.9109 98.1646 65.6455C98.2641 65.3801 98.3139 65.0709 98.3139 64.7179C98.3139 64.3649 98.2641 64.0581 98.1646 63.7974C98.0674 63.5368 97.9229 63.3342 97.731 63.1897C97.5415 63.0452 97.3081 62.9729 97.0309 62.9729C96.7442 62.9729 96.5049 63.0475 96.313 63.1968C96.121 63.3461 95.9765 63.5522 95.8794 63.8152C95.7822 64.0782 95.7337 64.3791 95.7337 64.7179C95.7337 65.0591 95.7822 65.3636 95.8794 65.6313C95.9789 65.8967 96.1246 66.1063 96.3165 66.2604C96.5108 66.412 96.7489 66.4878 97.0309 66.4878Z" fill="#121926"/>
<path d="M25.0327 81.7951C24.9805 81.6355 24.9118 81.4926 24.8265 81.3662C24.7428 81.2383 24.6425 81.1293 24.5256 81.0393C24.4103 80.9492 24.2792 80.8805 24.1323 80.8331C23.9854 80.7857 23.8243 80.7621 23.649 80.7621C23.3615 80.7621 23.1001 80.8363 22.8647 80.9848C22.6294 81.1333 22.4422 81.352 22.3032 81.6411C22.1642 81.9301 22.0947 82.2847 22.0947 82.7049C22.0947 83.1251 22.165 83.4797 22.3055 83.7687C22.4461 84.0578 22.6365 84.2766 22.8766 84.425C23.1167 84.5735 23.3868 84.6478 23.6869 84.6478C23.9649 84.6478 24.2097 84.5885 24.4214 84.4701C24.6346 84.35 24.8005 84.181 24.9189 83.963C25.039 83.7435 25.099 83.4852 25.099 83.1883L25.2791 83.2262H23.8196V82.7049H25.6676V83.2262C25.6676 83.6258 25.5823 83.9733 25.4117 84.2687C25.2427 84.564 25.009 84.7931 24.7104 84.9558C24.4135 85.1169 24.0723 85.1974 23.6869 85.1974C23.2572 85.1974 22.8797 85.0964 22.5543 84.8942C22.2305 84.692 21.9778 84.4045 21.7961 84.0317C21.6161 83.659 21.526 83.2167 21.526 82.7049C21.526 82.3211 21.5774 81.9759 21.68 81.6695C21.7843 81.3615 21.9312 81.0993 22.1207 80.8829C22.3103 80.6665 22.5346 80.5006 22.7936 80.3853C23.0527 80.27 23.3378 80.2124 23.649 80.2124C23.9048 80.2124 24.1434 80.2511 24.3645 80.3285C24.5872 80.4043 24.7854 80.5125 24.9592 80.6531C25.1345 80.7921 25.2806 80.9587 25.3975 81.153C25.5144 81.3457 25.595 81.5597 25.6392 81.7951H25.0327ZM28.124 85.2069C27.7734 85.2069 27.4709 85.1295 27.2166 84.9747C26.9639 84.8184 26.7688 84.6004 26.6314 84.3208C26.4955 84.0396 26.4276 83.7127 26.4276 83.3399C26.4276 82.9671 26.4955 82.6386 26.6314 82.3542C26.7688 82.0683 26.9599 81.8456 27.2047 81.6861C27.4511 81.525 27.7386 81.4444 28.0672 81.4444C28.2567 81.4444 28.4439 81.476 28.6287 81.5392C28.8135 81.6024 28.9817 81.705 29.1334 81.8472C29.285 81.9878 29.4058 82.1742 29.4959 82.4064C29.5859 82.6386 29.6309 82.9245 29.6309 83.2641V83.501H26.8256V83.0177H29.0623C29.0623 82.8123 29.0212 82.6291 28.9391 82.468C28.8585 82.3069 28.7432 82.1797 28.5932 82.0865C28.4447 81.9933 28.2694 81.9467 28.0672 81.9467C27.8445 81.9467 27.6517 82.002 27.4891 82.1126C27.3279 82.2216 27.2039 82.3637 27.1171 82.5391C27.0302 82.7144 26.9868 82.9024 26.9868 83.103V83.4252C26.9868 83.7 27.0341 83.933 27.1289 84.1241C27.2253 84.3137 27.3587 84.4582 27.5293 84.5577C27.6999 84.6557 27.8982 84.7046 28.124 84.7046C28.2709 84.7046 28.4036 84.6841 28.5221 84.643C28.6421 84.6004 28.7456 84.5372 28.8325 84.4535C28.9193 84.3682 28.9865 84.2623 29.0339 84.136L29.5741 84.2876C29.5172 84.4708 29.4216 84.632 29.2874 84.771C29.1531 84.9084 28.9873 85.0158 28.7898 85.0932C28.5924 85.169 28.3704 85.2069 28.124 85.2069ZM31.0407 82.9418V85.1311H30.4815V81.4918H31.0217V82.0604H31.0691C31.1544 81.8756 31.2839 81.7272 31.4577 81.615C31.6314 81.5013 31.8557 81.4444 32.1306 81.4444C32.377 81.4444 32.5926 81.495 32.7774 81.5961C32.9622 81.6956 33.106 81.8472 33.2086 82.051C33.3113 82.2532 33.3626 82.509 33.3626 82.8186V85.1311H32.8035V82.8565C32.8035 82.5706 32.7292 82.3479 32.5807 82.1884C32.4323 82.0273 32.2285 81.9467 31.9695 81.9467C31.791 81.9467 31.6314 81.9854 31.4909 82.0628C31.3519 82.1402 31.2421 82.2532 31.1615 82.4016C31.081 82.5501 31.0407 82.7302 31.0407 82.9418ZM35.7586 85.2069C35.4553 85.2069 35.1876 85.1303 34.9554 84.9771C34.7232 84.8223 34.5416 84.6043 34.4105 84.3232C34.2794 84.0404 34.2138 83.7063 34.2138 83.3209C34.2138 82.9387 34.2794 82.607 34.4105 82.3258C34.5416 82.0447 34.724 81.8275 34.9578 81.6742C35.1916 81.521 35.4617 81.4444 35.7681 81.4444C36.005 81.4444 36.1922 81.4839 36.3296 81.5629C36.4686 81.6403 36.5745 81.7287 36.6471 81.8283C36.7214 81.9262 36.779 82.0067 36.8201 82.0699H36.8675V80.2787H37.4266V85.1311H36.8864V84.5719H36.8201C36.779 84.6383 36.7206 84.722 36.6447 84.8231C36.5689 84.9226 36.4607 85.0118 36.3201 85.0908C36.1796 85.1682 35.9924 85.2069 35.7586 85.2069ZM35.8344 84.7046C36.0587 84.7046 36.2483 84.6462 36.4031 84.5293C36.5579 84.4108 36.6755 84.2473 36.7561 84.0388C36.8367 83.8288 36.8769 83.5863 36.8769 83.3115C36.8769 83.0398 36.8375 82.802 36.7585 82.5983C36.6795 82.3929 36.5626 82.2334 36.4078 82.1197C36.253 82.0044 36.0619 81.9467 35.8344 81.9467C35.5975 81.9467 35.4001 82.0075 35.2421 82.1292C35.0857 82.2492 34.968 82.4127 34.8891 82.6196C34.8117 82.825 34.773 83.0556 34.773 83.3115C34.773 83.5705 34.8125 83.8059 34.8914 84.0175C34.972 84.2276 35.0905 84.395 35.2468 84.5198C35.4048 84.643 35.6007 84.7046 35.8344 84.7046ZM40.0542 85.2069C39.7036 85.2069 39.4011 85.1295 39.1468 84.9747C38.894 84.8184 38.699 84.6004 38.5615 84.3208C38.4257 84.0396 38.3578 83.7127 38.3578 83.3399C38.3578 82.9671 38.4257 82.6386 38.5615 82.3542C38.699 82.0683 38.8901 81.8456 39.1349 81.6861C39.3813 81.525 39.6688 81.4444 39.9974 81.4444C40.1869 81.4444 40.3741 81.476 40.5589 81.5392C40.7437 81.6024 40.9119 81.705 41.0636 81.8472C41.2152 81.9878 41.336 82.1742 41.4261 82.4064C41.5161 82.6386 41.5611 82.9245 41.5611 83.2641V83.501H38.7558V83.0177H40.9925C40.9925 82.8123 40.9514 82.6291 40.8693 82.468C40.7887 82.3069 40.6734 82.1797 40.5233 82.0865C40.3749 81.9933 40.1995 81.9467 39.9974 81.9467C39.7746 81.9467 39.5819 82.002 39.4192 82.1126C39.2581 82.2216 39.1341 82.3637 39.0472 82.5391C38.9604 82.7144 38.9169 82.9024 38.9169 83.103V83.4252C38.9169 83.7 38.9643 83.933 39.0591 84.1241C39.1554 84.3137 39.2889 84.4582 39.4595 84.5577C39.6301 84.6557 39.8283 84.7046 40.0542 84.7046C40.2011 84.7046 40.3338 84.6841 40.4523 84.643C40.5723 84.6004 40.6758 84.5372 40.7626 84.4535C40.8495 84.3682 40.9167 84.2623 40.964 84.136L41.5042 84.2876C41.4474 84.4708 41.3518 84.632 41.2176 84.771C41.0833 84.9084 40.9174 85.0158 40.72 85.0932C40.5226 85.169 40.3006 85.2069 40.0542 85.2069ZM42.4117 85.1311V81.4918H42.9519V82.0415H42.9898C43.0562 81.8614 43.1762 81.7153 43.35 81.6032C43.5237 81.491 43.7196 81.4349 43.9376 81.4349C43.9786 81.4349 44.03 81.4357 44.0916 81.4373C44.1532 81.4389 44.1998 81.4413 44.2313 81.4444V82.0131C44.2124 82.0083 44.169 82.0012 44.101 81.9917C44.0347 81.9807 43.9644 81.9752 43.8902 81.9752C43.7133 81.9752 43.5553 82.0123 43.4163 82.0865C43.2789 82.1592 43.1699 82.2603 43.0893 82.3898C43.0104 82.5177 42.9709 82.6638 42.9709 82.8281V85.1311H42.4117Z" fill="#121926"/>
<path d="M37.2838 99.183H37.9851L39.6342 103.211H39.6911L41.3401 99.183H42.0414V104.035H41.4918V100.349H41.4444L39.928 104.035H39.3973L37.8809 100.349H37.8335V104.035H37.2838V99.183Z" fill="#121926"/>
<path d="M78.428 104.035V99.183H81.3376V99.7043H79.0156V101.344H81.1196V101.865H79.0156V104.035H78.428Z" fill="#121926"/>
<path d="M21.406 132.508C21.406 131.126 22.5262 130.006 23.908 130.006H96.1884C97.5703 130.006 98.6905 131.126 98.6905 132.508V149.188C98.6905 150.57 97.5703 151.69 96.1884 151.69H23.908C22.5262 151.69 21.406 150.57 21.406 149.188V132.508Z" fill="white" stroke="#CDD5DF" stroke-width="0.556003"/>
<path d="M23.213 124.052H21.7156V119.199H23.2793C23.7501 119.199 24.1528 119.296 24.4877 119.491C24.8226 119.683 25.0792 119.96 25.2577 120.322C25.4362 120.682 25.5255 121.114 25.5255 121.616C25.5255 122.121 25.4354 122.556 25.2554 122.921C25.0753 123.285 24.8131 123.564 24.4687 123.76C24.1244 123.954 23.7058 124.052 23.213 124.052ZM22.3032 123.53H23.1751C23.5763 123.53 23.9088 123.453 24.1726 123.298C24.4364 123.143 24.633 122.923 24.7625 122.637C24.8921 122.351 24.9568 122.011 24.9568 121.616C24.9568 121.224 24.8929 120.887 24.7649 120.604C24.637 120.32 24.4458 120.102 24.1915 119.95C23.9372 119.797 23.6205 119.72 23.2414 119.72H22.3032V123.53ZM27.5062 124.137C27.2756 124.137 27.0663 124.093 26.8784 124.006C26.6904 123.918 26.5411 123.791 26.4306 123.625C26.32 123.458 26.2647 123.255 26.2647 123.018C26.2647 122.81 26.3058 122.641 26.3879 122.511C26.47 122.38 26.5798 122.278 26.7172 122.203C26.8547 122.129 27.0063 122.074 27.1722 122.038C27.3396 122 27.5078 121.97 27.6768 121.948C27.898 121.919 28.0772 121.898 28.2147 121.884C28.3537 121.868 28.4548 121.842 28.5179 121.805C28.5827 121.769 28.6151 121.706 28.6151 121.616V121.597C28.6151 121.363 28.5511 121.181 28.4232 121.052C28.2968 120.922 28.1049 120.858 27.8474 120.858C27.5805 120.858 27.3712 120.916 27.2195 121.033C27.0679 121.15 26.9613 121.275 26.8997 121.407L26.369 121.218C26.4637 120.997 26.5901 120.824 26.748 120.701C26.9076 120.576 27.0813 120.49 27.2693 120.441C27.4588 120.39 27.6452 120.365 27.8285 120.365C27.9453 120.365 28.0796 120.379 28.2312 120.407C28.3845 120.434 28.5322 120.49 28.6743 120.576C28.8181 120.661 28.9373 120.79 29.0321 120.962C29.1269 121.134 29.1742 121.365 29.1742 121.654V124.052H28.6151V123.559H28.5866C28.5487 123.638 28.4856 123.722 28.3971 123.812C28.3086 123.902 28.191 123.979 28.0441 124.042C27.8972 124.105 27.7179 124.137 27.5062 124.137ZM27.5915 123.635C27.8127 123.635 27.9991 123.591 28.1507 123.504C28.3039 123.417 28.4192 123.305 28.4966 123.168C28.5756 123.03 28.6151 122.886 28.6151 122.734V122.222C28.5914 122.251 28.5393 122.277 28.4587 122.301C28.3797 122.323 28.2881 122.342 28.1839 122.36C28.0812 122.376 27.9809 122.39 27.883 122.402C27.7866 122.414 27.7084 122.423 27.6484 122.431C27.5031 122.45 27.3672 122.481 27.2409 122.523C27.1161 122.564 27.015 122.627 26.9376 122.71C26.8618 122.793 26.8239 122.905 26.8239 123.047C26.8239 123.241 26.8957 123.388 27.0395 123.488C27.1848 123.586 27.3688 123.635 27.5915 123.635ZM31.7775 120.412V120.886H29.8916V120.412H31.7775ZM30.4412 119.54H31.0004V123.009C31.0004 123.167 31.0233 123.285 31.0691 123.364C31.1165 123.442 31.1765 123.494 31.2492 123.521C31.3234 123.546 31.4016 123.559 31.4837 123.559C31.5454 123.559 31.5959 123.556 31.6354 123.549C31.6749 123.541 31.7065 123.535 31.7302 123.53L31.8439 124.033C31.806 124.047 31.7531 124.061 31.6851 124.075C31.6172 124.091 31.5311 124.099 31.4269 124.099C31.2689 124.099 31.1141 124.065 30.9625 123.997C30.8124 123.929 30.6877 123.826 30.5881 123.687C30.4902 123.548 30.4412 123.372 30.4412 123.161V119.54ZM34.1054 124.127C33.7548 124.127 33.4523 124.05 33.198 123.895C32.9452 123.739 32.7502 123.521 32.6127 123.241C32.4769 122.96 32.409 122.633 32.409 122.26C32.409 121.888 32.4769 121.559 32.6127 121.275C32.7502 120.989 32.9413 120.766 33.1861 120.607C33.4325 120.445 33.72 120.365 34.0486 120.365C34.2381 120.365 34.4253 120.396 34.6101 120.46C34.7949 120.523 34.9631 120.625 35.1148 120.768C35.2664 120.908 35.3872 121.095 35.4773 121.327C35.5673 121.559 35.6123 121.845 35.6123 122.184V122.421H32.807V121.938H35.0437C35.0437 121.733 35.0026 121.549 34.9205 121.388C34.8399 121.227 34.7246 121.1 34.5745 121.007C34.4261 120.914 34.2507 120.867 34.0486 120.867C33.8258 120.867 33.6331 120.922 33.4704 121.033C33.3093 121.142 33.1853 121.284 33.0984 121.459C33.0116 121.635 32.9681 121.823 32.9681 122.023V122.346C32.9681 122.62 33.0155 122.853 33.1103 123.045C33.2066 123.234 33.3401 123.379 33.5107 123.478C33.6813 123.576 33.8795 123.625 34.1054 123.625C34.2523 123.625 34.385 123.604 34.5035 123.563C34.6235 123.521 34.727 123.458 34.8138 123.374C34.9007 123.289 34.9679 123.183 35.0152 123.056L35.5554 123.208C35.4986 123.391 35.403 123.552 35.2688 123.691C35.1345 123.829 34.9686 123.936 34.7712 124.014C34.5738 124.089 34.3518 124.127 34.1054 124.127ZM39.8179 124.127C39.4893 124.127 39.2011 124.049 38.9531 123.893C38.7067 123.736 38.514 123.518 38.375 123.236C38.2375 122.955 38.1688 122.627 38.1688 122.251C38.1688 121.872 38.2375 121.541 38.375 121.258C38.514 120.975 38.7067 120.756 38.9531 120.599C39.2011 120.443 39.4893 120.365 39.8179 120.365C40.1464 120.365 40.4339 120.443 40.6803 120.599C40.9283 120.756 41.121 120.975 41.2584 121.258C41.3974 121.541 41.4669 121.872 41.4669 122.251C41.4669 122.627 41.3974 122.955 41.2584 123.236C41.121 123.518 40.9283 123.736 40.6803 123.893C40.4339 124.049 40.1464 124.127 39.8179 124.127ZM39.8179 123.625C40.0674 123.625 40.2728 123.561 40.4339 123.433C40.595 123.305 40.7143 123.137 40.7917 122.928C40.8691 122.72 40.9078 122.494 40.9078 122.251C40.9078 122.008 40.8691 121.781 40.7917 121.571C40.7143 121.361 40.595 121.191 40.4339 121.061C40.2728 120.932 40.0674 120.867 39.8179 120.867C39.5683 120.867 39.363 120.932 39.2018 121.061C39.0407 121.191 38.9215 121.361 38.8441 121.571C38.7667 121.781 38.728 122.008 38.728 122.251C38.728 122.494 38.7667 122.72 38.8441 122.928C38.9215 123.137 39.0407 123.305 39.2018 123.433C39.363 123.561 39.5683 123.625 39.8179 123.625ZM43.9411 120.412V120.886H41.9793V120.412H43.9411ZM42.5669 124.052V119.91C42.5669 119.701 42.6159 119.528 42.7138 119.389C42.8117 119.25 42.9389 119.145 43.0953 119.076C43.2516 119.006 43.4167 118.972 43.5904 118.972C43.7279 118.972 43.84 118.983 43.9269 119.005C44.0138 119.027 44.0785 119.047 44.1212 119.066L43.9601 119.55C43.9316 119.54 43.8921 119.528 43.8416 119.514C43.7926 119.5 43.7279 119.493 43.6473 119.493C43.4625 119.493 43.329 119.54 43.2469 119.633C43.1663 119.726 43.1261 119.863 43.1261 120.043V124.052H42.5669ZM46.6771 124.052V119.199H47.2363V120.99H47.2836C47.3247 120.927 47.3816 120.847 47.4542 120.749C47.5285 120.649 47.6343 120.561 47.7717 120.483C47.9107 120.404 48.0987 120.365 48.3356 120.365C48.6421 120.365 48.9122 120.441 49.1459 120.595C49.3797 120.748 49.5621 120.965 49.6933 121.246C49.8244 121.527 49.8899 121.859 49.8899 122.241C49.8899 122.627 49.8244 122.961 49.6933 123.244C49.5621 123.525 49.3805 123.743 49.1483 123.898C48.9161 124.051 48.6484 124.127 48.3451 124.127C48.1113 124.127 47.9241 124.089 47.7836 124.011C47.643 123.932 47.5348 123.843 47.459 123.744C47.3832 123.642 47.3247 123.559 47.2836 123.492H47.2173V124.052H46.6771ZM47.2268 122.232C47.2268 122.507 47.2671 122.749 47.3476 122.959C47.4282 123.168 47.5458 123.331 47.7006 123.45C47.8554 123.567 48.045 123.625 48.2693 123.625C48.5031 123.625 48.6981 123.563 48.8545 123.44C49.0125 123.315 49.1309 123.148 49.2099 122.938C49.2905 122.726 49.3307 122.491 49.3307 122.232C49.3307 121.976 49.2913 121.745 49.2123 121.54C49.1349 121.333 49.0172 121.17 48.8592 121.05C48.7029 120.928 48.5062 120.867 48.2693 120.867C48.0418 120.867 47.8507 120.925 47.6959 121.04C47.5411 121.154 47.4242 121.313 47.3452 121.519C47.2663 121.722 47.2268 121.96 47.2268 122.232ZM50.7452 124.052V120.412H51.3044V124.052H50.7452ZM51.0296 119.806C50.9206 119.806 50.8266 119.769 50.7476 119.694C50.6702 119.62 50.6315 119.531 50.6315 119.427C50.6315 119.322 50.6702 119.233 50.7476 119.159C50.8266 119.085 50.9206 119.047 51.0296 119.047C51.1385 119.047 51.2317 119.085 51.3091 119.159C51.3881 119.233 51.4276 119.322 51.4276 119.427C51.4276 119.531 51.3881 119.62 51.3091 119.694C51.2317 119.769 51.1385 119.806 51.0296 119.806ZM52.3285 124.052V120.412H52.8687V120.962H52.9067C52.973 120.782 53.093 120.636 53.2668 120.524C53.4405 120.411 53.6364 120.355 53.8544 120.355C53.8955 120.355 53.9468 120.356 54.0084 120.358C54.07 120.359 54.1166 120.362 54.1482 120.365V120.933C54.1292 120.929 54.0858 120.922 54.0179 120.912C53.9515 120.901 53.8812 120.896 53.807 120.896C53.6301 120.896 53.4721 120.933 53.3331 121.007C53.1957 121.08 53.0867 121.181 53.0062 121.31C52.9272 121.438 52.8877 121.584 52.8877 121.749V124.052H52.3285ZM56.6218 120.412V120.886H54.7358V120.412H56.6218ZM55.2855 119.54H55.8446V123.009C55.8446 123.167 55.8675 123.285 55.9133 123.364C55.9607 123.442 56.0207 123.494 56.0934 123.521C56.1676 123.546 56.2458 123.559 56.328 123.559C56.3896 123.559 56.4401 123.556 56.4796 123.549C56.5191 123.541 56.5507 123.535 56.5744 123.53L56.6881 124.033C56.6502 124.047 56.5973 124.061 56.5294 124.075C56.4614 124.091 56.3754 124.099 56.2711 124.099C56.1132 124.099 55.9584 124.065 55.8067 123.997C55.6567 123.929 55.5319 123.826 55.4324 123.687C55.3344 123.548 55.2855 123.372 55.2855 123.161V119.54ZM58.1002 121.862V124.052H57.5411V119.199H58.1002V120.981H58.1476C58.2329 120.793 58.3609 120.644 58.5314 120.533C58.7036 120.421 58.9327 120.365 59.2186 120.365C59.4665 120.365 59.6837 120.415 59.8701 120.514C60.0565 120.612 60.201 120.763 60.3037 120.967C60.408 121.169 60.4601 121.426 60.4601 121.739V124.052H59.9009V121.777C59.9009 121.488 59.8259 121.264 59.6758 121.106C59.5274 120.947 59.3212 120.867 59.0574 120.867C58.8742 120.867 58.7099 120.906 58.5646 120.983C58.4209 121.061 58.3072 121.174 58.2234 121.322C58.1413 121.471 58.1002 121.651 58.1002 121.862Z" fill="#121926"/>
<path d="M30.5359 142.4V138.76H31.0762V139.329H31.1235C31.1994 139.135 31.3218 138.984 31.4908 138.876C31.6598 138.767 31.8628 138.713 32.0997 138.713C32.3398 138.713 32.5396 138.767 32.6991 138.876C32.8603 138.984 32.9858 139.135 33.0759 139.329H33.1138C33.207 139.141 33.3468 138.992 33.5332 138.881C33.7195 138.769 33.943 138.713 34.2037 138.713C34.5291 138.713 34.7952 138.815 35.0021 139.019C35.2091 139.221 35.3125 139.536 35.3125 139.964V142.4H34.7534V139.964C34.7534 139.695 34.6799 139.504 34.533 139.388C34.3861 139.273 34.2131 139.215 34.0141 139.215C33.7582 139.215 33.56 139.293 33.4194 139.447C33.2788 139.601 33.2086 139.795 33.2086 140.03V142.4H32.6399V139.907C32.6399 139.7 32.5728 139.534 32.4385 139.407C32.3043 139.279 32.1313 139.215 31.9196 139.215C31.7743 139.215 31.6385 139.254 31.5121 139.331C31.3873 139.409 31.2862 139.516 31.2088 139.654C31.133 139.789 31.0951 139.947 31.0951 140.125V142.4H30.5359ZM36.3349 142.4V138.76H36.8751V139.329H36.9225C36.9983 139.135 37.1207 138.984 37.2897 138.876C37.4587 138.767 37.6617 138.713 37.8986 138.713C38.1387 138.713 38.3386 138.767 38.4981 138.876C38.6592 138.984 38.7848 139.135 38.8748 139.329H38.9127C39.0059 139.141 39.1457 138.992 39.3321 138.881C39.5185 138.769 39.742 138.713 40.0026 138.713C40.328 138.713 40.5942 138.815 40.8011 139.019C41.008 139.221 41.1115 139.536 41.1115 139.964V142.4H40.5523V139.964C40.5523 139.695 40.4788 139.504 40.3319 139.388C40.1851 139.273 40.0121 139.215 39.8131 139.215C39.5572 139.215 39.3589 139.293 39.2184 139.447C39.0778 139.601 39.0075 139.795 39.0075 140.03V142.4H38.4389V139.907C38.4389 139.7 38.3717 139.534 38.2375 139.407C38.1032 139.279 37.9302 139.215 37.7186 139.215C37.5733 139.215 37.4374 139.254 37.3111 139.331C37.1863 139.409 37.0852 139.516 37.0078 139.654C36.932 139.789 36.894 139.947 36.894 140.125V142.4H36.3349ZM43.8492 137.32L42.2855 143.129H41.7737L43.3374 137.32H43.8492ZM45.8863 142.475C45.583 142.475 45.3152 142.399 45.0831 142.246C44.8509 142.091 44.6692 141.873 44.5381 141.592C44.407 141.309 44.3415 140.975 44.3415 140.589C44.3415 140.207 44.407 139.876 44.5381 139.594C44.6692 139.313 44.8516 139.096 45.0854 138.943C45.3192 138.79 45.5893 138.713 45.8957 138.713C46.1327 138.713 46.3198 138.752 46.4573 138.831C46.5963 138.909 46.7021 138.997 46.7748 139.097C46.849 139.195 46.9066 139.275 46.9477 139.338H46.9951V137.547H47.5543V142.4H47.0141V141.84H46.9477C46.9066 141.907 46.8482 141.991 46.7724 142.092C46.6966 142.191 46.5884 142.28 46.4478 142.359C46.3072 142.437 46.12 142.475 45.8863 142.475ZM45.9621 141.973C46.1864 141.973 46.3759 141.915 46.5307 141.798C46.6855 141.679 46.8032 141.516 46.8837 141.307C46.9643 141.097 47.0046 140.855 47.0046 140.58C47.0046 140.308 46.9651 140.071 46.8861 139.867C46.8071 139.662 46.6902 139.502 46.5355 139.388C46.3807 139.273 46.1895 139.215 45.9621 139.215C45.7251 139.215 45.5277 139.276 45.3697 139.398C45.2134 139.518 45.0957 139.681 45.0167 139.888C44.9393 140.094 44.9006 140.324 44.9006 140.58C44.9006 140.839 44.9401 141.074 45.0191 141.286C45.0996 141.496 45.2181 141.664 45.3745 141.788C45.5324 141.912 45.7283 141.973 45.9621 141.973ZM50.0302 142.475C49.7269 142.475 49.4592 142.399 49.227 142.246C48.9948 142.091 48.8132 141.873 48.6821 141.592C48.551 141.309 48.4854 140.975 48.4854 140.589C48.4854 140.207 48.551 139.876 48.6821 139.594C48.8132 139.313 48.9956 139.096 49.2294 138.943C49.4632 138.79 49.7333 138.713 50.0397 138.713C50.2766 138.713 50.4638 138.752 50.6012 138.831C50.7402 138.909 50.8461 138.997 50.9187 139.097C50.993 139.195 51.0506 139.275 51.0917 139.338H51.1391V137.547H51.6982V142.4H51.158V141.84H51.0917C51.0506 141.907 50.9922 141.991 50.9163 142.092C50.8405 142.191 50.7323 142.28 50.5918 142.359C50.4512 142.437 50.264 142.475 50.0302 142.475ZM50.106 141.973C50.3303 141.973 50.5199 141.915 50.6747 141.798C50.8295 141.679 50.9471 141.516 51.0277 141.307C51.1083 141.097 51.1485 140.855 51.1485 140.58C51.1485 140.308 51.1091 140.071 51.0301 139.867C50.9511 139.662 50.8342 139.502 50.6794 139.388C50.5246 139.273 50.3335 139.215 50.106 139.215C49.8691 139.215 49.6717 139.276 49.5137 139.398C49.3573 139.518 49.2397 139.681 49.1607 139.888C49.0833 140.094 49.0446 140.324 49.0446 140.58C49.0446 140.839 49.0841 141.074 49.163 141.286C49.2436 141.496 49.3621 141.664 49.5184 141.788C49.6764 141.912 49.8723 141.973 50.106 141.973ZM54.5154 137.32L52.9516 143.129H52.4398L54.0036 137.32H54.5154ZM55.5383 143.764C55.4435 143.764 55.359 143.756 55.2848 143.741C55.2106 143.726 55.1592 143.712 55.1308 143.698L55.273 143.205C55.4088 143.24 55.5288 143.253 55.6331 143.243C55.7373 143.234 55.8298 143.187 55.9103 143.103C55.9924 143.021 56.0675 142.888 56.1354 142.703L56.2396 142.419L54.8939 138.76H55.5004L56.505 141.66H56.5429L57.5475 138.76H58.1541L56.6093 142.93C56.5398 143.118 56.4537 143.274 56.351 143.397C56.2483 143.522 56.1291 143.614 55.9932 143.674C55.859 143.734 55.7073 143.764 55.5383 143.764ZM59.2523 143.764C59.1575 143.764 59.073 143.756 58.9987 143.741C58.9245 143.726 58.8732 143.712 58.8447 143.698L58.9869 143.205C59.1227 143.24 59.2428 143.253 59.347 143.243C59.4513 143.234 59.5437 143.187 59.6242 143.103C59.7064 143.021 59.7814 142.888 59.8493 142.703L59.9536 142.419L58.6078 138.76H59.2143L60.2189 141.66H60.2568L61.2614 138.76H61.868L60.3232 142.93C60.2537 143.118 60.1676 143.274 60.0649 143.397C59.9623 143.522 59.843 143.614 59.7072 143.674C59.5729 143.734 59.4213 143.764 59.2523 143.764ZM62.9662 143.764C62.8714 143.764 62.7869 143.756 62.7127 143.741C62.6384 143.726 62.5871 143.712 62.5587 143.698L62.7008 143.205C62.8367 143.24 62.9567 143.253 63.061 143.243C63.1652 143.234 63.2576 143.187 63.3382 143.103C63.4203 143.021 63.4953 142.888 63.5633 142.703L63.6675 142.419L62.3217 138.76H62.9283L63.9329 141.66H63.9708L64.9754 138.76H65.5819L64.0371 142.93C63.9676 143.118 63.8815 143.274 63.7789 143.397C63.6762 143.522 63.5569 143.614 63.4211 143.674C63.2868 143.734 63.1352 143.764 62.9662 143.764ZM66.6801 143.764C66.5853 143.764 66.5008 143.756 66.4266 143.741C66.3523 143.726 66.301 143.712 66.2726 143.698L66.4147 143.205C66.5506 143.24 66.6706 143.253 66.7749 143.243C66.8791 143.234 66.9715 143.187 67.0521 143.103C67.1342 143.021 67.2093 142.888 67.2772 142.703L67.3814 142.419L66.0356 138.76H66.6422L67.6468 141.66H67.6847L68.6893 138.76H69.2959L67.751 142.93C67.6815 143.118 67.5955 143.274 67.4928 143.397C67.3901 143.522 67.2709 143.614 67.135 143.674C67.0008 143.734 66.8491 143.764 66.6801 143.764Z" fill="#9AA4B2"/>
<path d="M21.406 165.312C21.406 163.93 22.5262 162.81 23.908 162.81H96.1884C97.5703 162.81 98.6905 163.93 98.6905 165.312V181.992C98.6905 183.374 97.5703 184.494 96.1884 184.494H23.908C22.5262 184.494 21.406 183.374 21.406 181.992V165.312Z" fill="white" stroke="#CDD5DF" stroke-width="0.556003"/>
<path d="M30.4506 175.204V174.777L33.0664 170.873H30.4222V170.351H33.7677V170.778L31.152 174.683H33.7961V175.204H30.4506ZM35.3694 170.351V175.204H34.7818V170.351H35.3694ZM36.5475 175.204V170.351H38.1871C38.5678 170.351 38.879 170.42 39.1206 170.558C39.3639 170.693 39.5439 170.877 39.6608 171.11C39.7777 171.342 39.8362 171.601 39.8362 171.887C39.8362 172.173 39.7777 172.433 39.6608 172.666C39.5455 172.9 39.367 173.086 39.1254 173.225C38.8837 173.363 38.5741 173.432 38.1966 173.432H37.0214V172.91H38.1776C38.4383 172.91 38.6476 172.865 38.8055 172.775C38.9635 172.685 39.078 172.564 39.1491 172.41C39.2217 172.256 39.258 172.081 39.258 171.887C39.258 171.693 39.2217 171.519 39.1491 171.366C39.078 171.212 38.9627 171.092 38.8031 171.005C38.6436 170.917 38.4319 170.873 38.1682 170.873H37.1351V175.204H36.5475ZM46.5639 171.868H45.9763C45.9415 171.699 45.8807 171.55 45.7939 171.422C45.7086 171.294 45.6043 171.187 45.4811 171.1C45.3595 171.012 45.2244 170.945 45.0759 170.901C44.9275 170.857 44.7727 170.835 44.6116 170.835C44.3178 170.835 44.0516 170.909 43.8131 171.058C43.5762 171.206 43.3874 171.425 43.2468 171.714C43.1078 172.003 43.0383 172.357 43.0383 172.778C43.0383 173.198 43.1078 173.552 43.2468 173.841C43.3874 174.131 43.5762 174.349 43.8131 174.498C44.0516 174.646 44.3178 174.721 44.6116 174.721C44.7727 174.721 44.9275 174.698 45.0759 174.654C45.2244 174.61 45.3595 174.544 45.4811 174.458C45.6043 174.369 45.7086 174.261 45.7939 174.133C45.8807 174.003 45.9415 173.855 45.9763 173.687H46.5639C46.5197 173.935 46.4391 174.157 46.3222 174.353C46.2053 174.549 46.06 174.716 45.8863 174.853C45.7125 174.989 45.5174 175.092 45.301 175.164C45.0862 175.235 44.8564 175.27 44.6116 175.27C44.1977 175.27 43.8297 175.169 43.5074 174.967C43.1852 174.765 42.9317 174.477 42.7469 174.104C42.5621 173.732 42.4697 173.289 42.4697 172.778C42.4697 172.266 42.5621 171.824 42.7469 171.451C42.9317 171.078 43.1852 170.791 43.5074 170.588C43.8297 170.386 44.1977 170.285 44.6116 170.285C44.8564 170.285 45.0862 170.321 45.301 170.392C45.5174 170.463 45.7125 170.567 45.8863 170.704C46.06 170.84 46.2053 171.006 46.3222 171.202C46.4391 171.396 46.5197 171.618 46.5639 171.868ZM48.916 175.28C48.5875 175.28 48.2992 175.201 48.0512 175.045C47.8048 174.889 47.6121 174.67 47.4731 174.389C47.3357 174.108 47.267 173.779 47.267 173.403C47.267 173.024 47.3357 172.693 47.4731 172.41C47.6121 172.128 47.8048 171.908 48.0512 171.752C48.2992 171.595 48.5875 171.517 48.916 171.517C49.2446 171.517 49.5321 171.595 49.7785 171.752C50.0265 171.908 50.2192 172.128 50.3566 172.41C50.4956 172.693 50.5651 173.024 50.5651 173.403C50.5651 173.779 50.4956 174.108 50.3566 174.389C50.2192 174.67 50.0265 174.889 49.7785 175.045C49.5321 175.201 49.2446 175.28 48.916 175.28ZM48.916 174.777C49.1656 174.777 49.371 174.713 49.5321 174.585C49.6932 174.458 49.8124 174.289 49.8898 174.081C49.9672 173.872 50.0059 173.646 50.0059 173.403C50.0059 173.16 49.9672 172.933 49.8898 172.723C49.8124 172.513 49.6932 172.343 49.5321 172.214C49.371 172.084 49.1656 172.019 48.916 172.019C48.6665 172.019 48.4611 172.084 48.3 172.214C48.1389 172.343 48.0196 172.513 47.9422 172.723C47.8648 172.933 47.8261 173.16 47.8261 173.403C47.8261 173.646 47.8648 173.872 47.9422 174.081C48.0196 174.289 48.1389 174.458 48.3 174.585C48.4611 174.713 48.6665 174.777 48.916 174.777ZM52.7929 175.28C52.4896 175.28 52.2218 175.203 51.9897 175.05C51.7575 174.895 51.5758 174.677 51.4447 174.396C51.3136 174.113 51.2481 173.779 51.2481 173.394C51.2481 173.011 51.3136 172.68 51.4447 172.399C51.5758 172.117 51.7582 171.9 51.992 171.747C52.2258 171.594 52.4959 171.517 52.8023 171.517C53.0393 171.517 53.2264 171.557 53.3639 171.636C53.5029 171.713 53.6087 171.801 53.6814 171.901C53.7556 171.999 53.8133 172.079 53.8543 172.143H53.9017V170.351H54.4609V175.204H53.9207V174.645H53.8543C53.8133 174.711 53.7548 174.795 53.679 174.896C53.6032 174.995 53.495 175.085 53.3544 175.164C53.2138 175.241 53.0266 175.28 52.7929 175.28ZM52.8687 174.777C53.093 174.777 53.2825 174.719 53.4373 174.602C53.5921 174.484 53.7098 174.32 53.7903 174.112C53.8709 173.902 53.9112 173.659 53.9112 173.384C53.9112 173.113 53.8717 172.875 53.7927 172.671C53.7137 172.466 53.5969 172.306 53.4421 172.192C53.2873 172.077 53.0961 172.019 52.8687 172.019C52.6317 172.019 52.4343 172.08 52.2763 172.202C52.12 172.322 52.0023 172.485 51.9233 172.692C51.8459 172.898 51.8072 173.128 51.8072 173.384C51.8072 173.643 51.8467 173.879 51.9257 174.09C52.0062 174.3 52.1247 174.468 52.2811 174.593C52.439 174.716 52.6349 174.777 52.8687 174.777ZM57.0885 175.28C56.7378 175.28 56.4353 175.202 56.181 175.047C55.9283 174.891 55.7332 174.673 55.5958 174.394C55.4599 174.112 55.392 173.785 55.392 173.413C55.392 173.04 55.4599 172.711 55.5958 172.427C55.7332 172.141 55.9243 171.918 56.1692 171.759C56.4156 171.598 56.703 171.517 57.0316 171.517C57.2211 171.517 57.4083 171.549 57.5931 171.612C57.7779 171.675 57.9462 171.778 58.0978 171.92C58.2494 172.061 58.3703 172.247 58.4603 172.479C58.5503 172.711 58.5954 172.997 58.5954 173.337V173.574H55.7901V173.09H58.0267C58.0267 172.885 57.9856 172.702 57.9035 172.541C57.823 172.38 57.7076 172.252 57.5576 172.159C57.4091 172.066 57.2338 172.019 57.0316 172.019C56.8089 172.019 56.6162 172.075 56.4535 172.185C56.2924 172.294 56.1684 172.436 56.0815 172.612C55.9946 172.787 55.9512 172.975 55.9512 173.176V173.498C55.9512 173.773 55.9986 174.006 56.0933 174.197C56.1897 174.386 56.3232 174.531 56.4938 174.63C56.6643 174.728 56.8626 174.777 57.0885 174.777C57.2354 174.777 57.368 174.757 57.4865 174.716C57.6066 174.673 57.71 174.61 57.7969 174.526C57.8838 174.441 57.9509 174.335 57.9983 174.209L58.5385 174.36C58.4816 174.544 58.3861 174.705 58.2518 174.844C58.1175 174.981 57.9517 175.089 57.7542 175.166C57.5568 175.242 57.3349 175.28 57.0885 175.28Z" fill="#9AA4B2"/>
<path d="M24.1103 21.0797H25.4331L26.699 23.4519H26.7559L28.0219 21.0797H29.3447L27.3107 24.631V26.5681H26.1443V24.631L24.1103 21.0797Z" fill="#44B0EF"/>
<path d="M30.9805 26.6523C30.5538 26.6523 30.1982 26.5681 29.8853 26.3856C29.5723 26.2031 29.3447 25.9645 29.1741 25.6416C29.0034 25.3188 28.918 24.9539 28.918 24.5327C28.918 24.1116 29.0034 23.7327 29.1741 23.4098C29.3447 23.087 29.5723 22.8483 29.8853 22.6659C30.1982 22.4834 30.5538 22.3992 30.9805 22.3992C31.4072 22.3992 31.7628 22.4834 32.0757 22.6659C32.3887 22.8483 32.6163 23.087 32.7869 23.4098C32.9576 23.7327 33.043 24.0976 33.043 24.5327C33.043 24.9539 32.9576 25.3188 32.7869 25.6416C32.6163 25.9645 32.3887 26.2031 32.0757 26.3856C31.777 26.5681 31.4072 26.6523 30.9805 26.6523ZM30.9947 25.768C31.1939 25.768 31.3503 25.7118 31.4783 25.5995C31.6064 25.4872 31.7059 25.3469 31.777 25.1504C31.8482 24.9539 31.8766 24.7433 31.8766 24.5047C31.8766 24.2661 31.8482 24.0555 31.777 23.859C31.7059 23.6625 31.6206 23.5221 31.4783 23.4098C31.3361 23.2975 31.1939 23.2414 30.9947 23.2414C30.7956 23.2414 30.6391 23.2975 30.5111 23.4098C30.3831 23.5221 30.2835 23.6625 30.2124 23.859C30.1413 24.0415 30.1128 24.2661 30.1128 24.5047C30.1128 24.7433 30.1413 24.9539 30.2124 25.1504C30.2835 25.3328 30.3831 25.4872 30.5111 25.5995C30.6391 25.7118 30.7956 25.768 30.9947 25.768Z" fill="#44B0EF"/>
<path d="M36.471 24.8136V22.4554H37.6231V26.5822H36.5137V25.8383H36.471C36.3714 26.0769 36.2149 26.2734 36.0016 26.4138C35.7882 26.5542 35.518 26.6384 35.205 26.6384C34.9206 26.6384 34.6788 26.5822 34.4654 26.4559C34.252 26.3296 34.0814 26.1471 33.9676 25.9225C33.8538 25.6979 33.7827 25.4172 33.7827 25.0943V22.4554H34.9348V24.8698C34.9348 25.1084 35.0059 25.3049 35.1339 25.4453C35.2619 25.5856 35.4326 25.6558 35.6602 25.6558C35.8025 25.6558 35.9305 25.6277 36.0585 25.5576C36.1865 25.4874 36.2718 25.4032 36.3572 25.2768C36.4425 25.1505 36.471 24.9961 36.471 24.8136Z" fill="#44B0EF"/>
<path d="M38.5619 26.5681V22.4553H39.6856V23.1712H39.7283C39.7994 22.9185 39.9274 22.722 40.1123 22.5957C40.2972 22.4694 40.4963 22.3992 40.7382 22.3992C40.795 22.3992 40.8519 22.3992 40.9231 22.4132C40.9942 22.4272 41.0511 22.4272 41.0937 22.4413V23.4519C41.0369 23.4379 40.9657 23.4238 40.8662 23.4098C40.7666 23.3958 40.6813 23.3958 40.5959 23.3958C40.4252 23.3958 40.2688 23.4379 40.1407 23.5081C40.0127 23.5783 39.8989 23.6765 39.8278 23.8169C39.7567 23.9432 39.714 24.0976 39.714 24.2661V26.5961H38.5619V26.5681Z" fill="#44B0EF"/>
<path d="M47.2177 22.8037H46.7185C46.6769 22.6258 46.6214 22.448 46.5244 22.2974C46.4273 22.1469 46.3025 22.0101 46.1639 21.8869C46.0252 21.7638 45.8588 21.6817 45.6647 21.6133C45.4706 21.5449 45.2764 21.5175 45.0685 21.5175C44.7218 21.5175 44.4168 21.5996 44.1256 21.7775C43.8344 21.9554 43.6125 22.2153 43.4461 22.5574C43.2797 22.8995 43.1966 23.31 43.1966 23.8026C43.1966 24.2952 43.2797 24.7194 43.4461 25.0615C43.6125 25.4036 43.8344 25.6636 44.1256 25.8278C44.4029 26.0057 44.7218 26.0878 45.0685 26.0878C45.2764 26.0878 45.4844 26.0604 45.6647 25.992C45.8449 25.9236 46.0113 25.8415 46.1639 25.7183C46.3164 25.5951 46.4273 25.472 46.5244 25.3078C46.6214 25.1573 46.6908 24.9794 46.7185 24.8015H47.2177C47.1761 25.0478 47.0929 25.2804 46.9681 25.4857C46.8433 25.6909 46.6908 25.8825 46.5105 26.0467C46.3303 26.2109 46.1084 26.3341 45.8727 26.4162C45.637 26.4983 45.3596 26.553 45.0685 26.553C44.6109 26.553 44.2088 26.4435 43.8483 26.2109C43.5016 25.9783 43.2243 25.6636 43.0163 25.2531C42.8222 24.8426 42.7112 24.35 42.7112 23.8026C42.7112 23.2416 42.8083 22.7627 43.0163 22.3522C43.2104 21.9417 43.4877 21.627 43.8483 21.3943C44.1949 21.1617 44.6109 21.0522 45.0685 21.0522C45.3596 21.0522 45.6231 21.0933 45.8727 21.1891C46.1084 21.2712 46.3303 21.3943 46.5105 21.5585C46.6908 21.7227 46.8572 21.9006 46.9681 22.1196C47.0929 22.3248 47.1761 22.5574 47.2177 22.8037Z" fill="#44B0EF"/>
<path d="M49.866 26.5666C49.5193 26.5666 49.2004 26.4845 48.937 26.3066C48.6735 26.1287 48.4517 25.8824 48.2991 25.5814C48.1466 25.2667 48.0773 24.9109 48.0773 24.5004C48.0773 24.0899 48.1466 23.7205 48.2991 23.4194C48.4517 23.1047 48.6596 22.8584 48.937 22.6805C49.2004 22.5026 49.5193 22.4205 49.866 22.4205C50.2126 22.4205 50.5315 22.5026 50.795 22.6805C51.0585 22.8584 51.2803 23.1047 51.4328 23.4194C51.5854 23.7341 51.6686 24.0899 51.6686 24.5004C51.6686 24.9109 51.5992 25.2667 51.4467 25.5814C51.2942 25.8961 51.0862 26.1424 50.8089 26.3066C50.5315 26.4845 50.2126 26.5666 49.866 26.5666ZM49.866 26.1424C50.1433 26.1424 50.3929 26.074 50.587 25.9235C50.7811 25.773 50.9337 25.5677 51.0307 25.3214C51.1278 25.0751 51.1832 24.8015 51.1832 24.5004C51.1832 24.1994 51.1278 23.9257 51.0307 23.6794C50.9337 23.4331 50.7811 23.2279 50.587 23.0773C50.3929 22.9268 50.1572 22.8447 49.866 22.8447C49.5887 22.8447 49.3391 22.9268 49.1449 23.0773C48.9508 23.2279 48.7983 23.4331 48.7012 23.6794C48.6042 23.9257 48.5487 24.1994 48.5487 24.5004C48.5487 24.8015 48.6042 25.0751 48.7012 25.3214C48.7983 25.5677 48.9508 25.773 49.1449 25.9235C49.3391 26.074 49.5887 26.1424 49.866 26.1424Z" fill="#44B0EF"/>
<path d="M52.6947 26.4845V22.4753H53.1523V23.091H53.1939C53.2771 22.8858 53.4157 22.7216 53.596 22.5984C53.7901 22.4753 54.012 22.4205 54.2754 22.4205C54.5527 22.4205 54.7885 22.4889 54.9687 22.6121C55.149 22.7489 55.2876 22.9268 55.3708 23.1458H55.3986C55.4956 22.9268 55.6343 22.7489 55.8423 22.6121C56.0503 22.4753 56.2998 22.4205 56.6049 22.4205C56.9793 22.4205 57.2843 22.5437 57.5062 22.7763C57.728 23.0089 57.839 23.351 57.839 23.8026V26.4982H57.3675V23.8026C57.3675 23.4878 57.2843 23.2415 57.1179 23.091C56.9515 22.9268 56.7436 22.8584 56.4662 22.8584C56.1612 22.8584 55.9116 22.9542 55.7452 23.1458C55.5788 23.3373 55.4956 23.5699 55.4956 23.8573V26.4982H55.0103V23.7615C55.0103 23.4878 54.9271 23.2689 54.7746 23.1047C54.6221 22.9405 54.4002 22.8584 54.1229 22.8584C53.9288 22.8584 53.7624 22.8995 53.6237 22.9952C53.4712 23.091 53.3603 23.2142 53.2771 23.3784C53.1939 23.5426 53.1523 23.7205 53.1523 23.9394V26.5119H52.6947V26.4845Z" fill="#44B0EF"/>
<path d="M59.0869 27.9897V22.4753H59.5445V23.2415H59.6C59.6554 23.1184 59.7247 22.9952 59.8357 22.8721C59.9466 22.7489 60.0714 22.6395 60.2239 22.5574C60.3903 22.4753 60.5983 22.4205 60.8479 22.4205C61.1807 22.4205 61.4719 22.5026 61.7353 22.6805C61.9849 22.8584 62.179 23.091 62.3315 23.4057C62.4702 23.7205 62.5395 24.0762 62.5395 24.4867C62.5395 24.8972 62.4702 25.2667 62.3315 25.5814C62.1929 25.8961 61.9988 26.1424 61.7492 26.3066C61.4996 26.4708 61.2084 26.5666 60.8756 26.5666C60.626 26.5666 60.418 26.5256 60.2517 26.4298C60.0853 26.3477 59.9466 26.2382 59.8495 26.1014C59.7525 25.9782 59.6693 25.8414 59.6138 25.7319H59.5722V27.9897H59.0869ZM59.5584 24.4867C59.5584 24.8151 59.6138 25.1025 59.7109 25.3488C59.8079 25.5951 59.9466 25.8003 60.1407 25.9372C60.321 26.074 60.5567 26.1561 60.8063 26.1561C61.0836 26.1561 61.3055 26.0877 61.4996 25.9372C61.6937 25.7867 61.8324 25.5951 61.9294 25.3351C62.0265 25.0888 62.082 24.8015 62.082 24.4867C62.082 24.172 62.0404 23.8983 61.9433 23.652C61.8462 23.4057 61.7076 23.2142 61.5135 23.0637C61.3332 22.9131 61.0975 22.8447 60.8202 22.8447C60.5567 22.8447 60.3348 22.9131 60.1407 23.05C59.9605 23.1868 59.8079 23.3784 59.7247 23.6247C59.6 23.871 59.5584 24.1583 59.5584 24.4867Z" fill="#44B0EF"/>
<path d="M64.7027 26.5804C64.4531 26.5804 64.2312 26.5394 64.0232 26.4436C63.8152 26.3478 63.6627 26.211 63.5379 26.0331C63.4131 25.8552 63.3577 25.6363 63.3577 25.3763C63.3577 25.171 63.3993 25.0068 63.4686 24.87C63.5379 24.7331 63.6489 24.6237 63.7875 24.5416C63.9262 24.4595 64.0926 24.3911 64.2867 24.3363C64.4808 24.2816 64.6888 24.2405 64.9107 24.2132C65.1325 24.1858 65.3266 24.1584 65.493 24.1448C65.6594 24.1311 65.7703 24.09 65.8535 24.049C65.9367 24.0079 65.9783 23.9258 65.9783 23.83V23.7343C65.9783 23.4606 65.8951 23.2416 65.7288 23.0911C65.5624 22.9269 65.3266 22.8585 65.0216 22.8585C64.7304 22.8585 64.4947 22.9269 64.3006 23.0501C64.1203 23.1732 63.9816 23.3237 63.9123 23.5016L63.4686 23.3374C63.5657 23.1185 63.6905 22.9406 63.8568 22.8038C64.0232 22.6669 64.2035 22.5712 64.3976 22.5164C64.6056 22.4617 64.7997 22.4343 65.0077 22.4343C65.1602 22.4343 65.3266 22.448 65.493 22.4891C65.6594 22.5301 65.8119 22.5985 65.9645 22.6943C66.117 22.7901 66.2279 22.9269 66.3111 23.1048C66.3943 23.2827 66.4498 23.5016 66.4498 23.7753V26.4983H65.9783V25.8689H65.9506C65.8951 25.992 65.8119 26.1015 65.701 26.211C65.5901 26.3204 65.4514 26.4162 65.285 26.4846C65.1325 26.5394 64.9384 26.5804 64.7027 26.5804ZM64.772 26.1562C65.0216 26.1562 65.2434 26.1015 65.4237 25.992C65.604 25.8826 65.7426 25.732 65.8535 25.5542C65.9506 25.3763 66.0061 25.171 66.0061 24.9521V24.3774C65.9645 24.4047 65.909 24.4458 65.8258 24.4595C65.7426 24.4732 65.6456 24.5142 65.5485 24.5279C65.4376 24.5416 65.3405 24.5689 65.2296 24.5826C65.1186 24.5963 65.0216 24.61 64.9384 24.6237C64.7027 24.651 64.5085 24.6921 64.356 24.7605C64.1896 24.8152 64.0648 24.8973 63.9816 25.0068C63.8984 25.1163 63.8568 25.2394 63.8568 25.4036C63.8568 25.6499 63.94 25.8415 64.1203 25.9647C64.3006 26.0878 64.5085 26.1562 64.772 26.1562Z" fill="#44B0EF"/>
<path d="M68.1969 23.9804V26.4982H67.7255V22.4753H68.183V23.1047H68.2246C68.3217 22.8995 68.4742 22.7353 68.6684 22.6121C68.8625 22.4889 69.1259 22.4205 69.4171 22.4205C69.6944 22.4205 69.9301 22.4753 70.1381 22.5847C70.3461 22.6942 70.5125 22.8584 70.6234 23.0773C70.7344 23.2963 70.8037 23.5563 70.8037 23.8847V26.4845H70.3323V23.912C70.3323 23.5836 70.2352 23.3236 70.0549 23.1321C69.8747 22.9405 69.6251 22.8447 69.3062 22.8447C69.0982 22.8447 68.9041 22.8858 68.7377 22.9816C68.5713 23.0773 68.4465 23.2005 68.3494 23.3784C68.2385 23.5426 68.1969 23.7478 68.1969 23.9804Z" fill="#44B0EF"/>
<path d="M72.2319 27.9899C72.1348 27.9899 72.0516 27.9762 71.9684 27.9625C71.8852 27.9488 71.8159 27.9215 71.7743 27.9078L71.8991 27.4973C72.1348 27.5794 72.3428 27.5794 72.5092 27.4973C72.6756 27.4152 72.8143 27.2373 72.9252 26.9363L73.0777 26.5258L71.5802 22.4755H72.0932L73.2996 25.8826H73.3412L74.5475 22.4755L75.0605 22.4891L73.3412 27.1278C73.2718 27.3194 73.1748 27.4836 73.0777 27.6068C72.9668 27.7299 72.842 27.8394 72.7172 27.8941C72.5508 27.9625 72.3983 27.9899 72.2319 27.9899Z" fill="#44B0EF"/>
<path d="M17.6405 28.5348C20.3204 28.5348 22.4929 26.4189 22.4929 23.8088C22.4929 21.1987 20.3204 19.0828 17.6405 19.0828C14.9606 19.0828 12.7881 21.1987 12.7881 23.8088C12.7881 26.4189 14.9606 28.5348 17.6405 28.5348Z" fill="#44B0EF"/>
<path d="M17.6405 20.0751C16.7022 20.0751 15.8444 20.4015 15.1875 20.9367C15.1741 20.9498 15.1473 20.9628 15.1339 20.9759C14.3297 21.6548 13.8203 22.647 13.8069 23.7697C13.8069 23.7828 13.8069 23.7958 13.8069 23.8089C13.8069 23.822 13.8069 23.835 13.8069 23.8481C13.8203 24.9578 14.3297 25.963 15.1339 26.6419C15.1473 26.655 15.1741 26.6811 15.1875 26.6811C15.8444 27.2163 16.7022 27.5427 17.6271 27.5427C19.745 27.5427 21.4608 25.8716 21.4608 23.8089C21.4742 21.7462 19.7584 20.0751 17.6405 20.0751ZM21.1123 23.6261H20.1338C20.107 22.8297 19.9193 22.0725 19.5842 21.4459C19.7182 21.3937 19.8389 21.3414 19.9729 21.2892C20.6431 21.8767 21.0721 22.7122 21.1123 23.6261ZM19.4099 21.1587C19.3027 20.9889 19.182 20.8453 19.048 20.7148C19.2625 20.8062 19.4769 20.9237 19.6646 21.0542C19.5842 21.0934 19.5038 21.1195 19.4099 21.1587ZM17.8282 26.185C18.2571 26.198 18.6727 26.2633 19.0614 26.3547C18.7263 26.8116 18.2974 27.125 17.8282 27.1772C17.8282 26.9422 17.8282 26.6158 17.8282 26.185ZM17.4663 27.1772C17.0239 27.1119 16.6084 26.8247 16.2733 26.3416C16.6486 26.2502 17.0507 26.185 17.4663 26.185C17.4663 26.6158 17.4663 26.9291 17.4663 27.1772ZM17.4663 20.8845C17.4663 21.0673 17.4663 21.2501 17.4663 21.4328C17.0507 21.4198 16.6486 21.3676 16.2733 21.2762C16.6084 20.7931 17.0239 20.5059 17.4663 20.4406C17.4663 20.5973 17.4663 20.7409 17.4663 20.8845ZM17.8282 20.8845C17.8282 20.7409 17.8282 20.5973 17.8282 20.4406C18.2974 20.5059 18.7263 20.8062 19.0614 21.2631C18.6727 21.3676 18.2571 21.4198 17.8282 21.4328C17.8282 21.2501 17.8282 21.0673 17.8282 20.8845ZM15.9114 21.1717C15.8041 21.1326 15.7103 21.1064 15.6165 21.0673C15.8309 20.9237 16.0588 20.7931 16.3001 20.7017C16.1661 20.8192 16.032 20.9889 15.9114 21.1717ZM17.4663 21.7853C17.4663 22.2423 17.4663 22.8036 17.4663 23.6392H15.5629C15.5897 22.882 15.7639 22.1639 16.0722 21.5895C16.5146 21.707 16.9837 21.7723 17.4663 21.7853ZM17.4797 23.9786C17.4797 24.7358 17.4797 25.3494 17.4797 25.8325C16.9971 25.8455 16.528 25.9108 16.0856 26.0283C15.7773 25.4539 15.5897 24.7358 15.5763 23.9786H17.4797ZM15.9114 26.4461C16.032 26.6288 16.1527 26.7855 16.3001 26.9291C16.0588 26.8247 15.8309 26.7072 15.6165 26.5636C15.7103 26.5244 15.8175 26.4852 15.9114 26.4461ZM19.4099 26.4591C19.5038 26.4852 19.5842 26.5244 19.6646 26.5636C19.4769 26.6941 19.2625 26.8116 19.048 26.903C19.182 26.7725 19.3027 26.6288 19.4099 26.4591ZM17.8282 25.8325C17.8282 25.3494 17.8282 24.7489 17.8282 23.9786H19.7852C19.7584 24.7619 19.5574 25.48 19.2491 26.0414C18.8067 25.9239 18.3242 25.8455 17.8282 25.8325ZM17.8282 23.6261C17.8282 22.7906 17.8282 22.2292 17.8282 21.7723C18.3242 21.7592 18.8067 21.6809 19.2491 21.5634C19.5574 22.1248 19.7584 22.8428 19.7852 23.6261H17.8282ZM15.3082 21.3023C15.4422 21.3676 15.5897 21.4198 15.7371 21.472C15.4154 22.0856 15.2412 22.8297 15.2143 23.6261H14.1822C14.2224 22.7122 14.6514 21.8898 15.3082 21.3023ZM14.1688 23.9786H15.2143C15.2412 24.775 15.4154 25.5191 15.7371 26.1327C15.5897 26.185 15.4422 26.2372 15.3082 26.3025C14.6514 25.728 14.2224 24.9055 14.1688 23.9786ZM19.9729 26.3155C19.8523 26.2633 19.7182 26.2111 19.5842 26.1589C19.9193 25.5453 20.107 24.788 20.1338 23.9786H21.1123C21.0721 24.9055 20.6431 25.728 19.9729 26.3155Z" fill="white"/>
</svg>
