<svg width="132" height="31" viewBox="0 0 132 31" fill="none" xmlns="http://www.w3.org/2000/svg">
<path d="M14.1871 1.39673C14.9299 1.39673 15.1528 1.6908 15.3013 2.20542L23.9925 24.8487C24.2153 25.4368 23.9182 25.8044 23.3239 25.8044H19.684C19.0155 25.8044 18.7926 25.5838 18.5698 25.0692L16.8613 20.5112H7.20447L5.49595 25.0692C5.27311 25.5838 5.05026 25.8044 4.45599 25.8044H0.816117C0.147569 25.8044 -0.149564 25.3633 0.0732856 24.8487L8.76441 2.20542C8.98726 1.6908 9.21011 1.39673 9.87866 1.39673H14.1871ZM15.747 16.4677L12.1072 6.24885H11.9586L8.24443 16.4677H15.747Z" fill="#9AA3B2"/>
<path d="M31.2723 26.2455C29.5638 26.2455 28.0038 26.025 26.6667 25.7309C26.2953 25.6574 26.1467 25.4368 26.0725 25.0693C25.9239 24.7017 25.2553 22.8638 25.1068 22.6432C25.0325 22.3491 25.0325 21.908 25.2553 21.8345C25.5525 21.6875 25.9239 21.761 26.1467 21.8345C27.3353 22.2756 28.8952 22.5697 30.6037 22.5697C33.2036 22.5697 34.5407 22.0551 34.5407 20.5112C34.5407 19.0409 32.9808 18.4527 30.5294 17.5705C27.5581 16.5413 24.4382 15.7326 24.4382 11.4686C24.4382 7.86628 27.1124 5.95483 31.9408 5.95483C34.3922 5.95483 36.6207 6.39594 38.032 6.98407C38.552 7.20462 38.7749 7.49869 38.552 8.01331L37.8835 9.85124C37.7349 10.3659 37.4378 10.5864 36.8435 10.4394C35.655 10.0718 34.3179 9.7042 32.6094 9.7042C30.3066 9.7042 29.2666 10.2923 29.2666 11.6156C29.2666 13.1595 30.8266 13.6741 33.2779 14.5563C36.6207 15.7326 39.3691 17.0559 39.3691 20.6582C39.2949 24.9222 35.8035 26.2455 31.2723 26.2455Z" fill="#9AA3B2"/>
<path d="M47.2431 26.2456C44.7174 26.2456 42.3404 25.8045 40.7804 25.1428C40.2605 24.9223 40.0376 24.6282 40.1862 24.1871L40.7804 22.2756C40.929 21.761 41.2261 21.5405 41.8204 21.6875C43.0832 22.1286 44.6432 22.4962 46.5002 22.4962C49.1002 22.4962 50.4372 21.9816 50.4372 20.4377C50.4372 18.9674 48.8773 18.3792 46.426 17.497C43.4546 16.4678 40.3347 15.6591 40.3347 11.3951C40.3347 7.79279 43.0089 5.88135 47.8373 5.88135C50.2887 5.88135 52.5172 6.32245 53.9286 6.91059C54.4485 7.13114 54.6714 7.42521 54.4485 7.93983L53.8543 9.77775C53.7057 10.2924 53.4086 10.5129 52.8143 10.3659C51.6258 9.9983 50.2887 9.63072 48.5802 9.63072C46.2774 9.63072 45.2374 10.2189 45.2374 11.5422C45.2374 13.086 46.7974 13.6006 49.2487 14.4828C52.5915 15.6591 55.3399 16.9824 55.3399 20.5848C55.2657 24.9223 51.7001 26.2456 47.2431 26.2456Z" fill="#9AA3B2"/>
<path d="M56.9741 7.20471C56.9741 6.61658 57.2713 6.32251 57.8655 6.32251H61.0597C61.654 6.32251 61.8768 6.61658 61.8768 7.20471V18.2323C61.8768 20.5848 62.6939 22.0552 65.3681 22.0552C68.0423 22.0552 69.7508 20.3643 69.7508 17.7177V7.20471C69.7508 6.61658 70.048 6.32251 70.6422 6.32251H73.9107C74.5049 6.32251 74.7278 6.61658 74.7278 7.20471V24.9958C74.7278 25.584 74.4307 25.878 73.9107 25.878H70.9394C70.3451 25.878 70.048 25.584 70.048 25.1429L69.8251 23.1579C68.9337 24.6283 67.2252 26.2456 63.7339 26.2456C59.1283 26.2456 56.9741 23.8196 56.9741 19.188V7.20471Z" fill="#9AA3B2"/>
<path d="M81.636 6.39603C82.2303 6.39603 82.5274 6.69009 82.5274 7.20471L82.7503 10.1454C83.4931 8.52802 85.4988 6.32251 88.6929 6.32251C89.2129 6.32251 89.4358 6.46954 89.4358 7.05768V10.513C89.4358 11.1011 89.1386 11.1746 88.6929 11.1746C88.3215 11.1746 88.0244 11.1011 87.5044 11.1011C84.6817 11.1011 82.7503 13.7477 82.7503 16.6149V24.9958C82.7503 25.584 82.4532 25.878 81.8589 25.878H78.6647C78.0705 25.878 77.7733 25.584 77.7733 24.9958V7.20471C77.7733 6.61658 78.0705 6.32251 78.6647 6.32251H81.636V6.39603Z" fill="#9AA3B2"/>
<path d="M95.6014 6.396H92.3329C91.7387 6.396 91.4415 6.69006 91.4415 7.2782V24.9958C91.4415 25.5839 91.7387 25.878 92.3329 25.878H95.6014C96.1956 25.878 96.4928 25.5839 96.4928 24.9958V7.20468C96.4928 6.61655 96.1956 6.396 95.6014 6.396Z" fill="#9AA3B2"/>
<path d="M95.6756 0H92.3329C91.7386 0 91.5157 0.294068 91.5157 0.882204V3.4553C91.5157 4.04344 91.7386 4.33751 92.3329 4.33751H95.6756C96.2699 4.33751 96.4927 4.04344 96.4927 3.4553V0.882204C96.4927 0.294068 96.2699 0 95.6756 0Z" fill="#9AA3B2"/>
<path d="M123.606 24.2606C122.269 28.5246 120.932 30.142 116.401 30.142C114.989 30.142 113.504 29.9215 112.835 29.7009C112.315 29.5539 112.018 29.3333 112.092 28.8187L112.389 26.6867C112.464 26.1721 112.686 25.9515 113.206 26.025C113.726 26.0986 114.246 26.2456 115.361 26.2456C117.292 26.2456 117.961 25.1428 117.366 23.6725L110.755 7.35172C110.532 6.76358 110.755 6.396 111.424 6.396H114.766C115.361 6.396 115.583 6.69006 115.806 7.20468L118.852 15.8797L120.486 21.2464H120.56L121.972 15.8797L124.423 7.20468C124.572 6.69006 124.869 6.396 125.463 6.396H128.732C129.4 6.396 129.623 6.8371 129.474 7.35172L123.606 24.2606Z" fill="#9AA3B2"/>
<path d="M109.047 10.1453C109.418 10.1453 109.715 9.77767 109.567 9.41009L108.675 7.27809C108.452 6.68996 108.081 6.39589 107.487 6.39589H104.367V2.20542C104.367 1.61728 104.07 1.39673 103.475 1.39673H100.43C99.8355 1.39673 99.5383 1.61728 99.5383 2.20542V19.9965C99.5383 24.4811 101.321 26.0985 105.63 26.0985C106.818 26.0985 108.081 25.8779 108.749 25.6574C109.269 25.5103 109.492 25.2898 109.492 24.7751L109.269 22.7167C109.195 22.2021 108.972 21.908 108.527 21.9815C108.007 22.055 107.635 22.2021 106.967 22.2021C104.887 22.2021 104.367 21.5404 104.367 19.4084V10.1453H109.047Z" fill="#9AA3B2"/>
<path d="M128.36 22.2756H129.474C129.772 22.2756 130.069 22.3492 130.217 22.4962C130.366 22.6432 130.44 22.8638 130.44 23.0843C130.44 23.4519 130.217 23.746 129.92 23.8195L130.514 24.7017H129.846L129.326 23.893H128.88V24.7017H128.36V22.2756ZM129.474 23.4519C129.772 23.4519 129.92 23.3049 129.92 23.0843C129.92 22.8638 129.772 22.7167 129.474 22.7167H128.954V23.4519H129.474Z" fill="#9AA3B2"/>
<path d="M129.326 26.0986C127.84 26.0986 126.652 24.9224 126.652 23.452C126.652 21.9817 127.84 20.8054 129.326 20.8054C130.812 20.8054 132 21.9817 132 23.452C132 24.9224 130.812 26.0986 129.326 26.0986ZM129.326 21.3936C128.137 21.3936 127.246 22.3493 127.246 23.452C127.246 24.6283 128.212 25.5105 129.326 25.5105C130.514 25.5105 131.406 24.5548 131.406 23.452C131.48 22.3493 130.514 21.3936 129.326 21.3936Z" fill="#9AA3B2"/>
</svg>
