<svg width="141" height="149" viewBox="0 0 141 149" fill="none" xmlns="http://www.w3.org/2000/svg">
<path d="M132.203 0.542236H21.6066C17.0201 0.542236 13.3093 4.58165 13.3093 9.59247V24.6735V100.071C13.3093 105.065 17.0201 109.121 21.6066 109.121H132.203C136.782 109.121 140.5 105.073 140.5 100.071V24.6654V9.58438C140.5 4.58165 136.789 0.542236 132.203 0.542236Z" fill="white"/>
<path d="M79.4055 119.815C80.3777 119.815 81.1644 120.673 81.1644 121.733V123.652C81.1644 124.712 80.3777 125.57 79.4055 125.57C78.4333 125.57 77.6466 124.712 77.6466 123.652V121.733C77.6466 120.681 78.4333 119.815 79.4055 119.815Z" fill="url(#paint0_linear_3_4070)"/>
<path d="M65.3194 119.815C66.2917 119.815 67.0784 120.673 67.0784 121.733V140.943C67.0784 142.003 66.2917 142.861 65.3194 142.861C64.3472 142.861 63.5605 142.003 63.5605 140.943V121.741C63.5531 120.681 64.3472 119.815 65.3194 119.815Z" fill="url(#paint1_linear_3_4070)"/>
<path d="M58.2692 119.815C59.2414 119.815 60.0281 120.673 60.0281 121.733V133.261C60.0281 136.442 57.6606 139.024 54.7439 139.024H47.7009C46.7286 139.024 45.942 138.166 45.942 137.106C45.942 136.045 46.7286 135.187 47.7009 135.187H54.7439C55.7161 135.187 56.5028 134.329 56.5028 133.269V121.741C56.5103 120.681 57.2969 119.815 58.2692 119.815Z" fill="url(#paint2_linear_3_4070)"/>
<path d="M72.3628 119.815C73.3351 119.815 74.1217 120.673 74.1217 121.733V129.415C74.1217 130.476 74.9084 131.334 75.8806 131.334H79.4059C80.3781 131.334 81.1648 132.192 81.1648 133.252C81.1648 134.313 80.3781 135.171 79.4059 135.171H75.8806C72.964 135.171 70.5965 132.589 70.5965 129.407V121.725C70.6039 120.681 71.3906 119.815 72.3628 119.815Z" fill="url(#paint3_linear_3_4070)"/>
<path d="M51.2257 119.815C52.1979 119.815 52.9846 120.673 52.9846 121.733V127.497C52.9846 128.557 52.1979 129.415 51.2257 129.415C50.2535 129.415 49.4668 128.557 49.4668 127.497V121.733C49.4668 120.681 50.2535 119.815 51.2257 119.815Z" fill="url(#paint4_linear_3_4070)"/>
<path d="M120.878 13.1302C125.464 13.1302 129.175 17.1697 129.175 22.1805V37.2615V112.659C129.175 117.653 125.464 121.709 120.878 121.709H10.2816C5.70251 121.709 1.98431 117.661 1.98431 112.659V37.2615V22.1805C1.98431 17.1777 5.68767 13.1302 10.2816 13.1302H120.878ZM120.878 11.5112H10.2816C4.88614 11.5112 0.5 16.2954 0.5 22.1805V37.2615V112.659C0.5 118.544 4.88614 123.328 10.2816 123.328H120.885C126.281 123.328 130.667 118.544 130.667 112.659V37.2615V22.1805C130.659 16.2954 126.273 11.5112 120.878 11.5112Z" fill="black"/>
<path d="M65.3199 148.633C67.2668 148.633 68.8451 146.911 68.8451 144.788C68.8451 142.664 67.2668 140.942 65.3199 140.942C63.3729 140.942 61.7946 142.664 61.7946 144.788C61.7946 146.911 63.3729 148.633 65.3199 148.633Z" fill="#00BEEC"/>
<path d="M44.183 140.95C46.13 140.95 47.7083 139.229 47.7083 137.105C47.7083 134.982 46.13 133.26 44.183 133.26C42.2361 133.26 40.6578 134.982 40.6578 137.105C40.6578 139.229 42.2361 140.95 44.183 140.95Z" fill="#00BEEC"/>
<path d="M82.931 137.113C84.8779 137.113 86.4562 135.391 86.4562 133.268C86.4562 131.144 84.8779 129.423 82.931 129.423C80.9841 129.423 79.4058 131.144 79.4058 133.268C79.4058 135.391 80.9841 137.113 82.931 137.113Z" fill="#00BEEC"/>
<path d="M129.175 22.18V37.261H1.98407V22.18C1.98407 17.1773 5.68743 13.1298 10.2814 13.1298H120.885C125.471 13.1298 129.175 17.1773 129.175 22.18Z" fill="#ADCDE2"/>
<path d="M15.8102 28.2194C17.339 28.2194 18.5784 26.8676 18.5784 25.2C18.5784 23.5324 17.339 22.1805 15.8102 22.1805C14.2813 22.1805 13.0419 23.5324 13.0419 25.2C13.0419 26.8676 14.2813 28.2194 15.8102 28.2194Z" fill="#EDF6FC"/>
<path d="M29.6369 28.2194C31.1657 28.2194 32.4051 26.8676 32.4051 25.2C32.4051 23.5324 31.1657 22.1805 29.6369 22.1805C28.108 22.1805 26.8687 23.5324 26.8687 25.2C26.8687 26.8676 28.108 28.2194 29.6369 28.2194Z" fill="#EDF6FC"/>
<path d="M43.4626 28.2194C44.9914 28.2194 46.2308 26.8676 46.2308 25.2C46.2308 23.5324 44.9914 22.1805 43.4626 22.1805C41.9337 22.1805 40.6943 23.5324 40.6943 25.2C40.6943 26.8676 41.9337 28.2194 43.4626 28.2194Z" fill="#EDF6FC"/>
<path d="M129.175 37.2611V112.658C129.175 117.653 125.464 121.708 120.877 121.708H10.2814C5.70227 121.708 1.98407 117.661 1.98407 112.658V37.2611H129.175Z" fill="url(#paint5_linear_3_4070)"/>
<path d="M87.0353 105.963H43.6934C41.5263 105.963 39.7748 104.053 39.7748 101.689V48.9179C39.7748 46.5541 41.5263 44.6437 43.6934 44.6437H87.0353C89.2023 44.6437 90.9538 46.5541 90.9538 48.9179V101.689C90.9538 104.045 89.1949 105.963 87.0353 105.963Z" fill="white"/>
<path d="M61.8612 84.18H44.5393C43.9382 84.18 43.4557 83.6539 43.4557 82.9982C43.4557 82.3425 43.9382 81.8163 44.5393 81.8163H61.8612C62.4624 81.8163 62.9448 82.3425 62.9448 82.9982C62.9448 83.6539 62.455 84.18 61.8612 84.18Z" fill="#FFC40F"/>
<path d="M75.6724 99.2607C75.6724 100.078 75.3458 100.823 74.8189 101.349C74.2994 101.884 73.5647 102.207 72.7631 102.207H57.9645C56.3615 102.207 55.0553 100.888 55.0553 99.2526C55.0553 98.435 55.3818 97.6903 55.9088 97.1641C56.4283 96.6298 57.163 96.306 57.9645 96.306H72.7631C74.3662 96.3141 75.6724 97.6336 75.6724 99.2607Z" fill="#00BEEC"/>
<path d="M78.4781 59.6849H52.2503C51.8421 59.6849 51.5081 59.3206 51.5081 58.8754V53.7107C51.5081 53.2655 51.8421 52.9012 52.2503 52.9012H78.4781C78.8862 52.9012 79.2202 53.2655 79.2202 53.7107V58.8754C79.2202 59.3287 78.8862 59.6849 78.4781 59.6849Z" fill="#FFC40F"/>
<path d="M86.1814 78.8128H44.205C43.7969 78.8128 43.4629 78.4485 43.4629 78.0032V65.2536C43.4629 64.8084 43.7969 64.4441 44.205 64.4441H86.1888C86.597 64.4441 86.931 64.8084 86.931 65.2536V78.0032C86.9235 78.4485 86.597 78.8128 86.1814 78.8128Z" fill="#FFC40F"/>
<path d="M85.8403 87.8552H44.5393C43.9382 87.8552 43.4557 87.329 43.4557 86.6733C43.4557 86.0176 43.9382 85.4915 44.5393 85.4915H85.8403C86.4414 85.4915 86.9238 86.0176 86.9238 86.6733C86.9238 87.329 86.4414 87.8552 85.8403 87.8552Z" fill="#FFC40F"/>
<path d="M85.9665 91.5379H44.6655C44.0644 91.5379 43.582 91.0118 43.582 90.3561C43.582 89.7004 44.0644 89.1742 44.6655 89.1742H85.9665C86.5676 89.1742 87.05 89.7004 87.05 90.3561C87.05 91.0037 86.5676 91.5379 85.9665 91.5379Z" fill="#FFC40F"/>
<defs>
<linearGradient id="paint0_linear_3_4070" x1="81.1691" y1="122.699" x2="77.6465" y2="122.699" gradientUnits="userSpaceOnUse">
<stop stop-color="#FFC40F"/>
<stop offset="1" stop-color="#FFB000"/>
</linearGradient>
<linearGradient id="paint1_linear_3_4070" x1="67.0789" y1="131.344" x2="63.5564" y2="131.344" gradientUnits="userSpaceOnUse">
<stop stop-color="#FFC40F"/>
<stop offset="1" stop-color="#FFB000"/>
</linearGradient>
<linearGradient id="paint2_linear_3_4070" x1="60.034" y1="129.423" x2="45.9438" y2="129.423" gradientUnits="userSpaceOnUse">
<stop stop-color="#FFC40F"/>
<stop offset="1" stop-color="#FFB000"/>
</linearGradient>
<linearGradient id="paint3_linear_3_4070" x1="81.1695" y1="127.501" x2="70.6018" y2="127.501" gradientUnits="userSpaceOnUse">
<stop stop-color="#FFC40F"/>
<stop offset="1" stop-color="#FFB000"/>
</linearGradient>
<linearGradient id="paint4_linear_3_4070" x1="52.9885" y1="124.62" x2="49.4659" y2="124.62" gradientUnits="userSpaceOnUse">
<stop stop-color="#FFC40F"/>
<stop offset="1" stop-color="#FFB000"/>
</linearGradient>
<linearGradient id="paint5_linear_3_4070" x1="1.98503" y1="79.4828" x2="129.176" y2="79.4828" gradientUnits="userSpaceOnUse">
<stop stop-color="#CDE6F6"/>
<stop offset="1" stop-color="#EDF6FC"/>
</linearGradient>
</defs>
</svg>
