<svg width="300" height="300" viewBox="0 0 300 300" fill="none" xmlns="http://www.w3.org/2000/svg">
<g clip-path="url(#clip0_3_320)">
<path d="M194.925 206.985L182.265 93.12C181.53 86.55 175.65 81.825 169.125 82.575L10.56 100.77C4.03504 101.52 -0.65996 107.445 0.0750397 114.015L12.735 227.88C13.47 234.45 19.35 239.175 25.875 238.425L184.44 220.245C190.965 219.495 195.66 213.57 194.925 207V206.985Z" fill="#0B2540"/>
<path d="M180.885 210.78L84.7201 222.06C82.2601 222.345 80.0401 220.575 79.7551 218.115L70.7701 140.82C70.4851 138.345 72.2401 136.125 74.7001 135.825L170.865 124.545C173.325 124.26 175.545 126.03 175.83 128.49L184.815 205.785C185.1 208.26 183.345 210.48 180.885 210.78Z" fill="white"/>
<path d="M65.3251 203.595L29.2651 207.825C26.8051 208.11 24.5851 206.34 24.3001 203.88L20.6251 172.245C20.3401 169.77 22.0951 167.55 24.5551 167.25L60.6151 163.02C63.0751 162.735 65.2951 164.505 65.5801 166.965L69.2551 198.6C69.5401 201.075 67.7851 203.295 65.3251 203.595Z" fill="#FFC747"/>
<path d="M176.865 109.53L175.14 93.975C174.87 91.515 172.665 89.745 170.22 90.015L12.0751 108.15C9.63009 108.435 7.87508 110.655 8.14508 113.115L9.87009 128.67C10.1401 131.13 12.3451 132.9 14.7901 132.63L172.935 114.495C175.38 114.21 177.135 111.99 176.865 109.53Z" fill="white"/>
<path d="M19.7851 114.405C17.2651 114.69 15.4651 116.985 15.7351 119.52C16.0201 122.055 18.2851 123.87 20.8051 123.585C23.3251 123.3 25.1251 121.005 24.8551 118.47C24.5701 115.935 22.3051 114.12 19.7851 114.405Z" fill="#4054B2"/>
<path d="M34.9651 112.665C32.4451 112.95 30.6451 115.245 30.9151 117.78C31.2001 120.315 33.4651 122.13 35.9851 121.845C38.5051 121.56 40.3051 119.265 40.0351 116.73C39.7651 114.195 37.4851 112.38 34.9651 112.665Z" fill="#4054B2"/>
<path d="M55.215 114.99C54.93 112.455 52.665 110.64 50.145 110.925C47.625 111.21 45.825 113.505 46.095 116.04C46.38 118.575 48.645 120.39 51.165 120.105C53.685 119.82 55.485 117.525 55.215 114.99Z" fill="#4054B2"/>
<path d="M61.0801 143.955L18.2101 148.92C17.3851 149.01 16.6501 148.425 16.5601 147.6L16.2151 144.615C16.1251 143.79 16.7101 143.055 17.5201 142.95L60.3901 137.985C61.2151 137.895 61.9501 138.48 62.0401 139.305L62.3851 142.29C62.4751 143.115 61.8901 143.85 61.0801 143.955Z" fill="#FFC747"/>
<path d="M62.1301 153.105L19.2601 158.07C18.4351 158.16 17.7001 157.575 17.6101 156.75L17.2651 153.765C17.1751 152.94 17.7601 152.205 18.5701 152.1L61.4401 147.135C62.2651 147.045 63.0001 147.63 63.0901 148.455L63.4351 151.44C63.5251 152.265 62.9401 153 62.1301 153.105Z" fill="#FFC747"/>
<path d="M92.28 195.495C89.79 195.78 88.005 198.03 88.305 200.52L99.435 295.8C99.72 298.29 101.97 300.075 104.46 299.775L161.01 293.175C163.5 292.89 165.285 290.64 164.985 288.15L155.79 209.415C155.655 208.23 155.055 207.15 154.11 206.415L135.585 191.76C134.655 191.025 133.455 190.68 132.27 190.815L92.28 195.48V195.495Z" fill="#4054B2"/>
<path d="M287.884 102.631L246.492 7.84979C243.612 1.25139 235.904 -1.7791 229.275 1.07225L227.04 2.02767C223.576 3.52053 221.101 6.31216 219.931 9.59643L219.901 9.53672C219.797 9.80543 199.055 52.6055 162.867 65.3694C161.082 65.8023 159.313 66.3696 157.573 67.116C141.091 74.1921 133.547 93.226 140.701 109.603C146.805 123.591 161.667 131.1 176.14 128.592L194.481 170.586C196.461 175.139 201.785 177.229 206.359 175.258L208.894 174.168C213.468 172.198 215.567 166.928 213.573 162.375L195.261 120.426C228.33 106.811 266.738 119.829 267.008 119.933C270.502 121.963 274.881 122.396 278.886 120.68L281.12 119.724C287.749 116.873 290.793 109.214 287.914 102.616L287.884 102.631Z" fill="#00BCE8"/>
<path d="M282.097 47.9462L298.902 44.0594C299.878 43.8325 300.307 42.6075 299.76 41.579L295.207 33.0037C294.66 31.9753 293.434 31.6728 292.709 32.3988L280.456 44.8761C279.303 46.0406 280.515 48.3243 282.097 47.9614V47.9462Z" fill="#4054B2"/>
<path d="M271.325 30.4787L276.92 21.4278C277.25 20.895 276.898 20.201 276.217 20.0073L270.554 18.3864C269.872 18.1927 269.21 18.6091 269.224 19.2323L269.292 29.9041C269.3 30.8972 270.8 31.3364 271.325 30.4787Z" fill="#4054B2"/>
<path d="M283.793 73.9096L297.006 79.8991C297.773 80.2478 298.66 79.6564 298.81 78.686L299.983 70.6799C300.118 69.7095 299.442 68.8907 298.6 69.012L284.199 71.0438C282.846 71.2258 282.545 73.3638 283.778 73.9248L283.793 73.9096Z" fill="#4054B2"/>
<path d="M78.735 36.42C83.7055 36.42 87.735 32.3906 87.735 27.42C87.735 22.4495 83.7055 18.42 78.735 18.42C73.7644 18.42 69.735 22.4495 69.735 27.42C69.735 32.3906 73.7644 36.42 78.735 36.42Z" fill="#44B0EF"/>
<path d="M62.37 79.215C64.8553 79.215 66.87 77.2002 66.87 74.715C66.87 72.2297 64.8553 70.215 62.37 70.215C59.8847 70.215 57.87 72.2297 57.87 74.715C57.87 77.2002 59.8847 79.215 62.37 79.215Z" fill="#44B0EF"/>
<path d="M240 252.45C244.971 252.45 249 248.421 249 243.45C249 238.479 244.971 234.45 240 234.45C235.029 234.45 231 238.479 231 243.45C231 248.421 235.029 252.45 240 252.45Z" fill="#00BCE8"/>
<path d="M105.885 70.215C109.199 70.215 111.885 67.5287 111.885 64.215C111.885 60.9013 109.199 58.215 105.885 58.215C102.571 58.215 99.885 60.9013 99.885 64.215C99.885 67.5287 102.571 70.215 105.885 70.215Z" fill="#44B0EF"/>
<path d="M265.5 214.5C267.985 214.5 270 212.485 270 210C270 207.515 267.985 205.5 265.5 205.5C263.015 205.5 261 207.515 261 210C261 212.485 263.015 214.5 265.5 214.5Z" fill="#00BCE8"/>
</g>
<defs>
<clipPath id="clip0_3_320">
<rect width="300" height="300" fill="white"/>
</clipPath>
</defs>
</svg>
