<svg width="300" height="300" viewBox="0 0 300 300" fill="none" xmlns="http://www.w3.org/2000/svg">
<path d="M223.725 0.017446C168.675 1.35244 145.62 33.4822 132.54 79.8918C118.395 130.036 151.185 165.106 151.185 165.106C188.925 205.831 271.38 170.821 293.475 122.551C315.585 74.2668 278.79 -1.31754 223.725 0.017446Z" fill="#00BCE8"/>
<path d="M115.2 42.8421L116.865 31.9822C116.97 31.3522 116.355 30.8122 115.62 30.9022L109.575 31.6372C108.84 31.7272 108.39 32.3872 108.645 32.9722L113.025 43.0971C113.43 44.0421 115.035 43.8471 115.2 42.8271V42.8421Z" fill="#4054B2"/>
<path d="M264.96 181.591L277.695 186.901C278.445 187.216 279.27 186.631 279.375 185.716L280.29 178.126C280.395 177.211 279.735 176.461 278.94 176.581L265.29 178.861C264.015 179.071 263.775 181.096 264.96 181.591Z" fill="#4054B2"/>
<path d="M76.1113 37.7406L73.2319 38.5826L74.2844 42.1818L77.1638 41.3398L76.1113 37.7406Z" fill="#121926"/>
<path d="M91.9649 102.647L89.7599 95.0867L92.6399 94.2467L94.8449 101.807L91.9649 102.647ZM87.5399 87.5268L85.3349 79.9668L88.2149 79.1268L90.4199 86.6868L87.5399 87.5268ZM83.1149 72.4069L80.9099 64.847L83.7899 64.007L85.9949 71.5669L83.1149 72.4069ZM78.6899 57.287L76.4849 49.7271L79.3649 48.8871L81.5699 56.447L78.6899 57.287Z" fill="#121926"/>
<path d="M97.0467 109.348L94.1675 110.19L95.2206 113.789L98.0999 112.947L97.0467 109.348Z" fill="#121926"/>
<path d="M59.3842 105.262L57.3018 107.421L60.0011 110.024L62.0836 107.865L59.3842 105.262Z" fill="#121926"/>
<path d="M77.0101 126.436L72.7501 122.327L74.8351 120.167L79.0951 124.277L77.0101 126.436ZM68.5051 118.232L64.2451 114.122L66.3301 111.962L70.5901 116.072L68.5051 118.232Z" fill="#121926"/>
<path d="M83.3469 128.383L81.2644 130.542L83.9637 133.145L86.0462 130.986L83.3469 128.383Z" fill="#121926"/>
<path d="M32.8879 137.732L31.6106 140.447L35.0037 142.043L36.281 139.329L32.8879 137.732Z" fill="#121926"/>
<path d="M61.3051 154.411L54.7351 151.321L56.0101 148.606L62.5801 151.696L61.3051 154.411ZM48.1501 148.216L41.5801 145.126L42.8551 142.411L49.4251 145.501L48.1501 148.216Z" fill="#121926"/>
<path d="M69.1614 154.782L67.884 157.497L71.2771 159.093L72.5545 156.379L69.1614 154.782Z" fill="#121926"/>
<path d="M37.3895 255.003L34.811 257.726L36.9893 259.789L39.5678 257.066L37.3895 255.003Z" fill="#121926"/>
<path d="M45.0151 251.325L42.8401 249.255L48.2701 243.525L50.4451 245.595L45.0151 251.325ZM55.8751 239.85L53.7001 237.781L59.1301 232.051L61.3051 234.121L55.8751 239.85ZM66.7351 228.391L64.5601 226.321L69.9901 220.591L72.1651 222.661L66.7351 228.391Z" fill="#121926"/>
<path d="M77.9813 212.158L75.4019 214.88L77.5794 216.943L80.1588 214.221L77.9813 212.158Z" fill="#121926"/>
<path d="M100.941 245.85L99.9731 249.474L102.872 250.247L103.839 246.624L100.941 245.85Z" fill="#121926"/>
<path d="M103.977 234.457L102.456 240.152L105.355 240.926L106.876 235.231L103.977 234.457Z" fill="#121926"/>
<path d="M106.475 225.139L105.507 228.762L108.406 229.536L109.373 225.913L106.475 225.139Z" fill="#121926"/>
<path d="M157.413 271.682L154.416 271.819L154.587 275.565L157.584 275.428L157.413 271.682Z" fill="#121926"/>
<path d="M156.737 257.248L153.74 257.386L154.071 264.608L157.068 264.471L156.737 257.248Z" fill="#121926"/>
<path d="M156.237 246.262L153.24 246.399L153.411 250.145L156.408 250.008L156.237 246.262Z" fill="#121926"/>
<path d="M245.066 234.017L243.583 236.625L246.844 238.478L248.326 235.87L245.066 234.017Z" fill="#121926"/>
<path d="M237.09 232.921L230.595 229.231L232.08 226.621L238.575 230.311L237.09 232.921ZM224.1 225.541L217.605 221.851L219.09 219.241L225.585 222.931L224.1 225.541Z" fill="#121926"/>
<path d="M209.327 213.704L207.844 216.312L211.105 218.165L212.587 215.557L209.327 213.704Z" fill="#121926"/>
<path d="M44.79 89.1317L64.8 93.9466C67.08 94.5016 67.875 97.3216 66.225 98.9866L51.03 114.181C49.38 115.831 46.545 115.036 45.99 112.756L41.175 92.7467C40.65 90.5717 42.615 88.6067 44.79 89.1317Z" fill="#00BCE8"/>
<path d="M242.715 227.266L280.065 228.136C284.565 228.241 287.28 233.176 284.94 237.031L265.74 268.8C263.415 272.655 257.79 272.55 255.6 268.62L237.45 235.965C235.245 232.006 238.185 227.146 242.715 227.251V227.266Z" fill="#44B0EF"/>
<path d="M24 147.001C29.799 147.001 34.5 142.3 34.5 136.501C34.5 130.702 29.799 126.001 24 126.001C18.201 126.001 13.5 130.702 13.5 136.501C13.5 142.3 18.201 147.001 24 147.001Z" fill="#44B0EF"/>
<path d="M156 300C161.799 300 166.5 295.299 166.5 289.5C166.5 283.701 161.799 279 156 279C150.201 279 145.5 283.701 145.5 289.5C145.5 295.299 150.201 300 156 300Z" fill="#4054B2"/>
<path d="M6 37.5022C9.31371 37.5022 12 34.8159 12 31.5022C12 28.1885 9.31371 25.5023 6 25.5023C2.68629 25.5023 0 28.1885 0 31.5022C0 34.8159 2.68629 37.5022 6 37.5022Z" fill="#44B0EF"/>
<path d="M20.6401 289.755C31.4097 289.755 40.1401 281.025 40.1401 270.255C40.1401 259.486 31.4097 250.755 20.6401 250.755C9.87058 250.755 1.14014 259.486 1.14014 270.255C1.14014 281.025 9.87058 289.755 20.6401 289.755Z" fill="#4054B2"/>
<path d="M81.218 19.0262L67.0624 12.5782C65.5546 11.8914 63.7755 12.5569 63.0887 14.0647L56.6406 28.2201C55.9538 29.7279 56.6193 31.507 58.1271 32.1938L72.2827 38.6418C73.7905 39.3287 75.5695 38.6631 76.2564 37.1554L82.7045 22.9999C83.3913 21.4921 82.7257 19.713 81.218 19.0262Z" fill="#4054B2"/>
<path d="M110.741 267.087L101.977 254.235C101.044 252.866 99.1777 252.513 97.8088 253.447L84.9573 262.21C83.5884 263.143 83.2354 265.01 84.1688 266.379L92.9322 279.23C93.8657 280.599 95.7321 280.952 97.101 280.019L109.952 271.255C111.321 270.322 111.674 268.455 110.741 267.087Z" fill="#44B0EF"/>
<path d="M222.399 162.37L102.099 109.036C97.0739 106.808 91.2069 109.046 88.995 114.035L54.3342 192.214C52.1223 197.203 54.4031 203.054 59.4286 205.282L179.729 258.616C184.754 260.844 190.621 258.606 192.833 253.617L227.494 175.438C229.706 170.449 227.425 164.598 222.399 162.37Z" fill="#0B2540"/>
<path d="M215.907 169.831L102.283 119.456C99.5795 118.258 96.416 119.478 95.2173 122.181L64.2969 191.924C63.0982 194.628 64.3183 197.791 67.0219 198.99L180.646 249.364C183.349 250.563 186.513 249.343 187.712 246.639L218.632 176.897C219.831 174.193 218.611 171.03 215.907 169.831Z" fill="white"/>
<path d="M138.327 153.172L109.517 140.399C106.813 139.201 103.649 140.421 102.451 143.124L85.2761 181.862C84.0774 184.566 85.2974 187.73 88.0011 188.928L116.812 201.701C119.515 202.9 122.679 201.68 123.877 198.976L141.052 160.238C142.251 157.534 141.031 154.371 138.327 153.172Z" fill="#FFC747"/>
<path d="M183.165 214.111L140.73 195.121C139.98 194.776 139.095 195.121 138.765 195.841L137.58 198.511C137.25 199.246 137.595 200.116 138.345 200.461L180.78 219.451C181.53 219.796 182.415 219.451 182.745 218.731L183.93 216.061C184.26 215.326 183.915 214.456 183.165 214.111Z" fill="#00BCE8"/>
<path d="M179.52 222.331L137.085 203.341C136.335 202.996 135.45 203.341 135.12 204.061L133.935 206.731C133.605 207.466 133.95 208.336 134.7 208.681L177.135 227.671C177.885 228.016 178.77 227.671 179.1 226.951L180.285 224.281C180.615 223.546 180.27 222.676 179.52 222.331Z" fill="#00BCE8"/>
</svg>
