<svg width="15" height="15" viewBox="0 0 15 15" fill="none" xmlns="http://www.w3.org/2000/svg">
<path d="M6.6 10.425L10.1025 7.8C10.305 7.65 10.305 7.35 10.1025 7.2L6.6 4.575C6.3525 4.3875 6 4.5675 6 4.875V10.125C6 10.4325 6.3525 10.6125 6.6 10.425ZM7.5 0C3.36 0 0 3.36 0 7.5C0 11.64 3.36 15 7.5 15C11.64 15 15 11.64 15 7.5C15 3.36 11.64 0 7.5 0ZM7.5 13.5C4.1925 13.5 1.5 10.8075 1.5 7.5C1.5 4.1925 4.1925 1.5 7.5 1.5C10.8075 1.5 13.5 4.1925 13.5 7.5C13.5 10.8075 10.8075 13.5 7.5 13.5Z" fill="black"/>
</svg>
