<svg width="100" height="100" viewBox="0 0 100 100" fill="none" xmlns="http://www.w3.org/2000/svg">
<g clip-path="url(#clip0_3_268)">
<path d="M98.4761 39.9286C98.4761 39.9286 83.0595 92.2262 38.1071 87.8333C19.7142 86.0952 4.99994 71.2738 7.4047 52.5714C11.2857 22.5 36.6666 0 66.7261 0C66.7261 0 108.393 1 98.4642 39.9286H98.4761Z" fill="#C6CCE8"/>
<path d="M80.7382 76.0833L73.7263 43.2738C72.6191 38.0952 67.6072 34.8095 62.5358 35.9405L7.40485 48.2143C2.33342 49.3452 -0.880864 54.4524 0.226279 59.6309L7.23818 92.4405C8.34533 97.619 13.3572 100.905 18.4287 99.7738L73.5477 87.5C78.6191 86.369 81.8334 81.2619 80.7263 76.0833H80.7382Z" fill="#4054B2"/>
<path d="M24.8691 67.2738C26.0953 66.0714 27 64.2024 26.3453 61.2738C25.5476 57.6905 22.3214 55.4167 19.0714 56.0595C12.2381 57.3928 13.7857 64.0238 13.7857 64.0238C14.2857 66.2976 15.7619 68.0595 17.6072 68.869C13.9524 71.2738 11.9762 75.8452 12.9881 80.5L13.8572 84.4881C14.25 86.2857 15.9762 87.4286 17.7024 87.0476L32.3572 83.8452C34.0953 83.4643 35.1786 81.7024 34.7857 79.9048L33.9167 75.9167C32.9048 71.25 29.1786 67.9167 24.8572 67.2619L24.8691 67.2738Z" fill="white"/>
<path d="M64.0212 50.6406L38.4329 56.2245C37.7905 56.3647 37.3834 56.999 37.5236 57.6414L38.0312 59.9676C38.1714 60.61 38.8058 61.0171 39.4481 60.8769L65.0364 55.2931C65.6788 55.1529 66.0859 54.5185 65.9457 53.8761L65.4381 51.5499C65.2979 50.9076 64.6636 50.5005 64.0212 50.6406Z" fill="#0B2540"/>
<path d="M65.8542 59.0446L40.2659 64.6285C39.6235 64.7686 39.2164 65.403 39.3566 66.0454L39.8642 68.3716C40.0044 69.0139 40.6388 69.421 41.2811 69.2809L66.8694 63.697C67.5118 63.5569 67.9189 62.9225 67.7787 62.2801L67.2711 59.9539C67.1309 59.3115 66.4966 58.9044 65.8542 59.0446Z" fill="white"/>
<path d="M67.6875 67.4486L42.0991 73.0324C41.4568 73.1726 41.0497 73.807 41.1898 74.4494L41.6975 76.7756C41.8376 77.4179 42.472 77.825 43.1144 77.6849L68.7027 72.101C69.3451 71.9609 69.7522 71.3265 69.612 70.6841L69.1044 68.3579C68.9642 67.7155 68.3298 67.3084 67.6875 67.4486Z" fill="white"/>
<path d="M64.1429 30.1548L68.7738 12.1786C69.0476 11.131 68.1309 10.0833 66.9167 10.0595L56.8214 9.83333C55.6071 9.80952 54.7381 10.8095 55.0595 11.881L60.5238 30.0833C61.0357 31.7857 63.7143 31.8452 64.1548 30.1667L64.1429 30.1548Z" fill="#0B2540"/>
<path d="M87.0952 27.0476L82.2618 22.2738C81.9404 21.9643 81.4166 22.0119 81.1785 22.3691L73.8571 33.8095C73.488 34.3929 74.1785 35.0833 74.7976 34.7381L86.9523 28.0714C87.3333 27.8572 87.4047 27.3571 87.0952 27.0357V27.0476Z" fill="#0B2540"/>
</g>
<defs>
<clipPath id="clip0_3_268">
<rect width="100" height="100" fill="white"/>
</clipPath>
</defs>
</svg>
