<svg width="105" height="106" viewBox="0 0 105 106" fill="none" xmlns="http://www.w3.org/2000/svg">
<rect y="0.734863" width="105" height="105" rx="8" fill="#D5F2F9"/>
<g clip-path="url(#clip0_3_4184)">
<path d="M33.3029 48.5103H36.2176C36.3444 48.5103 36.4711 48.4595 36.5471 48.3705L47.0148 37.8705L43.4158 34.2603L32.9481 44.7603C32.8467 44.862 32.8087 44.9764 32.8087 45.1035V48.0272C32.8087 48.2942 33.0241 48.5103 33.2902 48.5103H33.3029Z" fill="#00BCE8"/>
<path d="M49.8028 35.0866C50.183 34.7053 50.183 34.1078 49.8028 33.7265L47.5598 31.4765C47.1796 31.0951 46.584 31.0951 46.2038 31.4765L44.4549 33.2307L48.054 36.8409L49.8028 35.0866Z" fill="#00BCE8"/>
<path d="M78.4432 35.8875L61.956 19.6035C60.7394 18.3959 59.13 17.7349 57.4191 17.7349H31.7695C26.9286 17.7349 23 21.6756 23 26.5315V80.5442C23 85.4002 26.9412 89.3408 31.7695 89.3408H71.5999C76.4409 89.3408 80.3695 85.4002 80.3695 80.5442V40.5019C80.3695 38.773 79.6725 37.0951 78.4432 35.8747V35.8875ZM76.5676 80.5569C76.5676 83.3027 74.3372 85.54 71.5999 85.54H31.7695C29.0322 85.54 26.8018 83.3027 26.8018 80.5569V26.5442C26.8018 23.7984 29.0322 21.5611 31.7695 21.5611H57.4191C57.8247 21.5611 58.2048 21.6628 58.5597 21.8281V35.0485C58.5597 37.5781 60.6127 39.6374 63.1345 39.6374H76.4156C76.5169 39.9171 76.5803 40.2095 76.5803 40.5146V80.5569H76.5676Z" fill="#00BCE8"/>
<path d="M33.6578 57.8918H61.918C62.8811 57.8918 63.6541 57.1163 63.6541 56.1502C63.6541 55.1841 62.8811 54.4087 61.918 54.4087H33.6578C32.6947 54.4087 31.9216 55.1841 31.9216 56.1502C31.9216 57.1163 32.6947 57.8918 33.6578 57.8918Z" fill="#00BCE8"/>
<path d="M69.7117 60.7774H33.6578C32.6947 60.7774 31.9216 61.5528 31.9216 62.5189C31.9216 63.485 32.6947 64.2604 33.6578 64.2604H69.7117C70.6748 64.2604 71.4479 63.485 71.4479 62.5189C71.4479 61.5528 70.6748 60.7774 69.7117 60.7774Z" fill="#00BCE8"/>
<path d="M69.7117 67.273H33.6578C32.6947 67.273 31.9216 68.0484 31.9216 69.0145C31.9216 69.9806 32.6947 70.756 33.6578 70.756H69.7117C70.6748 70.756 71.4479 69.9806 71.4479 69.0145C71.4479 68.0484 70.6748 67.273 69.7117 67.273Z" fill="#00BCE8"/>
<path d="M69.7117 73.6416H33.6578C32.6947 73.6416 31.9216 74.4171 31.9216 75.3832C31.9216 76.3493 32.6947 77.1247 33.6578 77.1247H69.7117C70.6748 77.1247 71.4479 76.3493 71.4479 75.3832C71.4479 74.4171 70.6748 73.6416 69.7117 73.6416Z" fill="#00BCE8"/>
</g>
<defs>
<clipPath id="clip0_3_4184">
<rect width="58" height="72" fill="white" transform="translate(23 17.7349)"/>
</clipPath>
</defs>
</svg>
