<svg width="105" height="106" viewBox="0 0 105 106" fill="none" xmlns="http://www.w3.org/2000/svg">
<rect y="0.734863" width="105" height="105" rx="8" fill="#FCF4E0"/>
<g clip-path="url(#clip0_3_4198)">
<path d="M77.8061 53.6924H58.4168C57.4579 53.6924 56.6806 54.4721 56.6806 55.4339C56.6806 56.3958 57.4579 57.1755 58.4168 57.1755H77.8061C78.7649 57.1755 79.5422 56.3958 79.5422 55.4339C79.5422 54.4721 78.7649 53.6924 77.8061 53.6924Z" fill="#FFC747"/>
<path d="M77.8061 60.0484H58.4168C57.4579 60.0484 56.6806 60.8281 56.6806 61.7899C56.6806 62.7517 57.4579 63.5314 58.4168 63.5314H77.8061C78.7649 63.5314 79.5422 62.7517 79.5422 61.7899C79.5422 60.8281 78.7649 60.0484 77.8061 60.0484Z" fill="#FFC747"/>
<path d="M77.8061 66.417H58.4168C57.4579 66.417 56.6806 67.1967 56.6806 68.1586C56.6806 69.1204 57.4579 69.9001 58.4168 69.9001H77.8061C78.7649 69.9001 79.5422 69.1204 79.5422 68.1586C79.5422 67.1967 78.7649 66.417 77.8061 66.417Z" fill="#FFC747"/>
<path d="M38.3685 61.8281C41.8408 61.8281 44.6415 59.0061 44.6415 55.5357C44.6415 52.0654 41.8282 49.2433 38.3685 49.2433C34.9088 49.2433 32.0955 52.0654 32.0955 55.5357C32.0955 59.0061 34.9088 61.8281 38.3685 61.8281ZM38.3685 64.9806C34.1738 64.9806 25.8098 67.0908 25.8098 71.273V72.8493C25.8098 73.7137 26.5195 74.4255 27.3812 74.4255H49.3558C50.2175 74.4255 50.9272 73.7137 50.9272 72.8493V71.273C50.9272 67.0908 42.5632 64.9806 38.3685 64.9806Z" fill="#FFC747"/>
<path d="M51.9917 15.7349C47.2268 15.7349 43.3489 19.6247 43.3489 24.4044V38.8069C43.3489 43.5866 47.2268 47.4764 51.9917 47.4764C56.7567 47.4764 60.6345 43.5866 60.6345 38.8069V24.4044C60.6345 19.6247 56.7567 15.7349 51.9917 15.7349ZM56.8454 38.7942C56.8454 41.4764 54.6784 43.6629 51.9917 43.6629C49.3051 43.6629 47.1381 41.4891 47.1381 38.7942V24.3916C47.1381 21.7094 49.3051 19.523 51.9917 19.523C54.6784 19.523 56.8454 21.6967 56.8454 24.3916V38.7942Z" fill="#FFC747"/>
<path d="M80.9489 33.8494H56.8454V37.663H80.9489C83.6862 37.663 85.9166 39.9002 85.9166 42.646V80.5147C85.9166 83.2604 83.6862 85.4977 80.9489 85.4977H23.7695C21.0322 85.4977 18.8018 83.2604 18.8018 80.5147V42.646C18.8018 39.9002 21.0322 37.663 23.7695 37.663H47.1381V33.8494H23.7695C18.9285 33.8494 15 37.7901 15 42.646V80.5147C15 85.3706 18.9285 89.3113 23.7695 89.3113H80.9489C85.7899 89.3113 89.7184 85.3706 89.7184 80.5147V42.646C89.7184 37.7901 85.7899 33.8494 80.9489 33.8494Z" fill="#FFC747"/>
</g>
<defs>
<clipPath id="clip0_3_4198">
<rect width="75" height="74" fill="white" transform="translate(15 15.7349)"/>
</clipPath>
</defs>
</svg>
