<svg width="105" height="106" viewBox="0 0 105 106" fill="none" xmlns="http://www.w3.org/2000/svg">
<rect y="0.734863" width="105" height="105" rx="8" fill="#E2E5F4"/>
<g clip-path="url(#clip0_3_4211)">
<path d="M27.8754 64.647L28.6104 64.7487L28.7372 65.7148C28.9653 67.38 29.7003 68.8673 30.8662 70.0495C32.0321 71.219 33.5274 71.9563 35.1749 72.1851L36.138 72.3122L36.2648 73.2783C36.4929 74.9436 37.2279 76.4309 38.3938 77.6131C39.5597 78.7826 41.055 79.5199 42.7152 79.7487L43.6783 79.8758L43.7797 80.6639C43.9318 81.7953 44.2612 82.9139 44.8949 83.88C46.3523 86.13 48.7347 87.4012 51.32 87.4012C53.3603 87.4012 55.2739 86.6131 56.7059 85.1766L85.8532 56.0029C90.8842 50.9563 90.8842 42.719 85.8532 37.6343L70.798 22.5325C65.7669 17.4859 57.555 17.4859 52.4859 22.5325L50.6356 24.3885C50.6356 24.3885 50.5849 24.4012 50.5723 24.3885L48.7094 22.5198C43.6783 17.4732 35.4664 17.4732 30.3973 22.5198L17.8259 35.13C14.569 38.397 13.3651 42.9224 14.3156 47.1427C14.7084 48.897 16.9135 49.5071 18.1808 48.236C18.7384 47.6766 18.9538 46.8758 18.7891 46.1004C18.1808 43.3546 18.9918 40.4309 21.0702 38.3461L33.6035 25.7741C36.8857 22.4817 42.2209 22.4817 45.5159 25.7741L57.9731 38.2699C59.1137 39.4139 59.3545 41.2953 58.3153 42.541C57.1494 43.9394 55.0711 44.0029 53.8165 42.7444L44.8062 33.7317C43.8304 32.7529 42.2463 32.7529 41.2705 33.7317L23.3386 51.6936C21.8939 53.1173 21.1082 55.0241 21.0955 57.0707C21.0955 59.5241 22.2234 61.7995 24.251 63.2995C25.3028 64.0749 26.5828 64.4944 27.8754 64.6724V64.647ZM26.5574 54.9605L42.994 38.4732C42.994 38.4732 43.0447 38.4605 43.0573 38.4732L50.5596 45.9605C53.4236 48.8334 58.4547 48.8207 61.3441 45.9605C63.3084 44.0029 64.0687 41.1554 63.2577 38.3207C62.9028 37.0749 62.1678 35.9817 61.2554 35.0665L53.8672 27.6554C53.8672 27.6554 53.8545 27.6046 53.8672 27.5919L55.6921 25.7613C58.9743 22.4563 64.3095 22.4563 67.5918 25.7613L82.5836 40.7995C85.8658 44.0919 85.8658 49.4436 82.5836 52.7487L53.4997 81.9224C52.9041 82.5199 52.1184 82.8122 51.3453 82.8122C50.5723 82.8122 49.7866 82.5199 49.1909 81.9224C48.646 81.3758 48.3292 80.6131 48.3039 79.8377C48.2785 78.9987 48.5953 78.1978 49.1909 77.6004L58.7208 68.041C59.6079 67.1512 59.6079 65.7021 58.7208 64.8122C57.8338 63.9224 56.3891 63.9224 55.502 64.8122L45.9721 74.3716C45.4271 74.9436 44.6034 75.2741 43.8177 75.2614C43.0193 75.2614 42.259 74.9436 41.6887 74.397C41.0677 73.7741 40.7509 72.9733 40.7762 72.1343C40.8016 71.3461 41.1184 70.5961 41.6633 70.0495L51.1932 60.4902C52.0803 59.6004 52.0803 58.1512 51.1932 57.2614C50.3061 56.3716 48.8615 56.3716 47.9744 57.2614L38.5585 66.7063C37.6841 67.5834 36.3661 67.9775 35.2129 67.5326C33.0459 66.6809 32.6657 64.0368 34.0977 62.5241L43.6403 52.9521C44.5274 52.0622 44.5274 50.6131 43.6403 49.7232H43.6276C42.7405 48.8207 41.3085 48.8207 40.4214 49.7232L30.8788 59.2953C29.6876 60.4902 27.7614 60.4902 26.5701 59.2953C25.4042 58.0749 25.4042 56.1936 26.5448 54.986L26.5574 54.9605Z" fill="#4054B2"/>
</g>
<defs>
<clipPath id="clip0_3_4211">
<rect width="76" height="69" fill="white" transform="translate(14 18.7349)"/>
</clipPath>
</defs>
</svg>
