<svg width="121" height="192" viewBox="0 0 121 192" fill="none" xmlns="http://www.w3.org/2000/svg">
<path d="M2.7907 16.7442C2.7907 9.03788 9.03789 2.7907 16.7442 2.7907H103.814C111.52 2.7907 117.767 9.03789 117.767 16.7442V189.209H2.7907V16.7442Z" fill="white" stroke="#121926" stroke-width="5.5814"/>
<path d="M5.58148 38.5116H114.977V192H5.58148V38.5116Z" fill="#EEF2F6"/>
<path d="M12.2794 48.0001C12.2794 46.767 13.2789 45.7675 14.512 45.7675H106.047C107.28 45.7675 108.279 46.767 108.279 48V181.954C108.279 183.187 107.28 184.186 106.047 184.186H14.512C13.2789 184.186 12.2794 183.187 12.2794 181.954V48.0001Z" fill="white" stroke="#44B0EF" stroke-width="1.11628"/>
<path d="M11.7213 48C11.7213 46.4588 12.9707 45.2094 14.512 45.2094H106.047C107.588 45.2094 108.838 46.4588 108.838 48V65.8605H11.7213V48Z" fill="#44B0EF"/>
<path d="M21.2094 145.674C21.2094 144.133 22.4588 142.884 24.0001 142.884H96.5583C98.0995 142.884 99.3489 144.133 99.3489 145.674V162.418C99.3489 163.96 98.0995 165.209 96.5582 165.209H24.0001C22.4588 165.209 21.2094 163.96 21.2094 162.418V145.674Z" fill="#44B0EF"/>
<path d="M38.9922 157.209H37.7364L40.0228 150.715H41.4753L43.7649 157.209H42.5091L40.7744 152.047H40.7237L38.9922 157.209ZM39.0334 154.663H42.4583V155.608H39.0334V154.663ZM44.5696 159.036V152.338H45.6986V153.144H45.7652C45.8244 153.026 45.9079 152.9 46.0157 152.767C46.1235 152.631 46.2694 152.516 46.4533 152.421C46.6373 152.324 46.8719 152.275 47.1573 152.275C47.5337 152.275 47.873 152.371 48.1753 152.564C48.4798 152.754 48.7208 153.036 48.8984 153.41C49.0781 153.782 49.1679 154.239 49.1679 154.78C49.1679 155.315 49.0802 155.77 48.9047 156.144C48.7292 156.518 48.4903 156.804 48.188 157C47.8857 157.197 47.5432 157.295 47.1605 157.295C46.8814 157.295 46.6499 157.249 46.466 157.156C46.2821 157.063 46.1341 156.95 46.022 156.819C45.9121 156.686 45.8265 156.56 45.7652 156.442H45.7176V159.036H44.5696ZM45.6954 154.774C45.6954 155.089 45.7398 155.365 45.8286 155.602C45.9195 155.838 46.0495 156.023 46.2187 156.157C46.3899 156.288 46.5971 156.353 46.8402 156.353C47.0939 156.353 47.3064 156.286 47.4776 156.15C47.6489 156.013 47.7778 155.826 47.8645 155.589C47.9533 155.35 47.9977 155.078 47.9977 154.774C47.9977 154.472 47.9544 154.203 47.8677 153.968C47.781 153.734 47.6521 153.55 47.4808 153.417C47.3096 153.283 47.096 153.217 46.8402 153.217C46.595 153.217 46.3867 153.281 46.2155 153.41C46.0442 153.539 45.9142 153.72 45.8254 153.953C45.7387 154.185 45.6954 154.459 45.6954 154.774ZM50.151 159.036V152.338H51.28V153.144H51.3466C51.4058 153.026 51.4893 152.9 51.5971 152.767C51.7049 152.631 51.8508 152.516 52.0347 152.421C52.2187 152.324 52.4533 152.275 52.7387 152.275C53.1151 152.275 53.4544 152.371 53.7567 152.564C54.0611 152.754 54.3022 153.036 54.4798 153.41C54.6595 153.782 54.7493 154.239 54.7493 154.78C54.7493 155.315 54.6616 155.77 54.4861 156.144C54.3106 156.518 54.0717 156.804 53.7694 157C53.4671 157.197 53.1246 157.295 52.7419 157.295C52.4628 157.295 52.2313 157.249 52.0474 157.156C51.8635 157.063 51.7155 156.95 51.6034 156.819C51.4935 156.686 51.4079 156.56 51.3466 156.442H51.299V159.036H50.151ZM51.2768 154.774C51.2768 155.089 51.3212 155.365 51.41 155.602C51.5009 155.838 51.6309 156.023 51.8 156.157C51.9713 156.288 52.1785 156.353 52.4216 156.353C52.6753 156.353 52.8878 156.286 53.059 156.15C53.2303 156.013 53.3592 155.826 53.4459 155.589C53.5347 155.35 53.5791 155.078 53.5791 154.774C53.5791 154.472 53.5358 154.203 53.4491 153.968C53.3624 153.734 53.2335 153.55 53.0622 153.417C52.891 153.283 52.6774 153.217 52.4216 153.217C52.1764 153.217 51.9681 153.281 51.7969 153.41C51.6256 153.539 51.4956 153.72 51.4068 153.953C51.3201 154.185 51.2768 154.459 51.2768 154.774ZM56.8804 150.715V157.209H55.7324V150.715H56.8804ZM58.7744 159.036C58.618 159.036 58.4731 159.023 58.34 158.998C58.2089 158.975 58.1042 158.947 58.026 158.916L58.2924 158.021C58.4594 158.07 58.6084 158.093 58.7395 158.091C58.8706 158.089 58.9858 158.048 59.0852 157.967C59.1867 157.889 59.2723 157.758 59.3421 157.574L59.4404 157.311L57.674 152.338H58.8917L60.0144 156.017H60.0651L61.1909 152.338H62.4118L60.4615 157.799C60.3706 158.057 60.2501 158.278 60.1 158.462C59.9499 158.648 59.766 158.79 59.5482 158.887C59.3326 158.986 59.0746 159.036 58.7744 159.036ZM66.5693 154.355V157.209H65.4213V152.338H66.5186V153.166H66.5757C66.6877 152.893 66.8664 152.677 67.1116 152.516C67.359 152.355 67.6645 152.275 68.0281 152.275C68.3643 152.275 68.6571 152.347 68.9065 152.491C69.1581 152.634 69.3526 152.843 69.4901 153.115C69.6296 153.388 69.6983 153.719 69.6962 154.108V157.209H68.5482V154.286C68.5482 153.96 68.4636 153.705 68.2945 153.521C68.1275 153.337 67.896 153.245 67.6 153.245C67.3991 153.245 67.2205 153.29 67.0641 153.379C66.9097 153.465 66.7882 153.591 66.6994 153.756C66.6127 153.921 66.5693 154.121 66.5693 154.355ZM72.9879 157.305C72.5123 157.305 72.1 157.2 71.7512 156.991C71.4023 156.781 71.1317 156.489 70.9393 156.112C70.749 155.736 70.6539 155.296 70.6539 154.793C70.6539 154.29 70.749 153.849 70.9393 153.471C71.1317 153.092 71.4023 152.798 71.7512 152.589C72.1 152.38 72.5123 152.275 72.9879 152.275C73.4636 152.275 73.8759 152.38 74.2247 152.589C74.5736 152.798 74.8431 153.092 75.0334 153.471C75.2258 153.849 75.322 154.29 75.322 154.793C75.322 155.296 75.2258 155.736 75.0334 156.112C74.8431 156.489 74.5736 156.781 74.2247 156.991C73.8759 157.2 73.4636 157.305 72.9879 157.305ZM72.9943 156.385C73.2522 156.385 73.4679 156.314 73.6412 156.172C73.8146 156.029 73.9435 155.836 74.0281 155.595C74.1148 155.354 74.1581 155.086 74.1581 154.79C74.1581 154.492 74.1148 154.222 74.0281 153.981C73.9435 153.738 73.8146 153.545 73.6412 153.401C73.4679 153.257 73.2522 153.185 72.9943 153.185C72.73 153.185 72.5101 153.257 72.3347 153.401C72.1613 153.545 72.0313 153.738 71.9446 153.981C71.86 154.222 71.8178 154.492 71.8178 154.79C71.8178 155.086 71.86 155.354 71.9446 155.595C72.0313 155.836 72.1613 156.029 72.3347 156.172C72.5101 156.314 72.73 156.385 72.9943 156.385ZM77.1621 157.209L75.7858 152.338H76.956L77.8122 155.763H77.8566L78.7319 152.338H79.8894L80.7646 155.744H80.8122L81.6558 152.338H82.8291L81.4496 157.209H80.2541L79.3407 153.918H79.2741L78.3608 157.209H77.1621Z" fill="#FCFCFD"/>
<path d="M40.776 110.93V106.059H43.7158V106.582H41.3659V108.228H43.5635V108.752H41.3659V110.407H43.7538V110.93H40.776ZM47.2905 108.095L46.7863 108.238C46.7546 108.154 46.7078 108.072 46.646 107.993C46.5857 107.912 46.5033 107.845 46.3986 107.793C46.294 107.741 46.16 107.715 45.9967 107.715C45.7731 107.715 45.5868 107.766 45.4377 107.869C45.2903 107.971 45.2165 108.1 45.2165 108.257C45.2165 108.396 45.2673 108.507 45.3688 108.587C45.4702 108.668 45.6288 108.736 45.8445 108.79L46.3867 108.923C46.7134 109.002 46.9568 109.123 47.1169 109.287C47.2771 109.448 47.3571 109.657 47.3571 109.912C47.3571 110.122 47.2969 110.309 47.1764 110.474C47.0575 110.638 46.891 110.768 46.6769 110.864C46.4628 110.959 46.2139 111.006 45.9301 111.006C45.5575 111.006 45.2491 110.925 45.0049 110.764C44.7607 110.602 44.6061 110.366 44.5411 110.055L45.0738 109.922C45.1246 110.118 45.2205 110.266 45.3616 110.364C45.5043 110.462 45.6906 110.512 45.9206 110.512C46.1822 110.512 46.3899 110.456 46.5437 110.345C46.6991 110.233 46.7768 110.098 46.7768 109.941C46.7768 109.814 46.7324 109.708 46.6436 109.622C46.5548 109.535 46.4185 109.47 46.2345 109.427L45.6256 109.284C45.2911 109.205 45.0453 109.082 44.8883 108.916C44.7329 108.748 44.6552 108.537 44.6552 108.285C44.6552 108.079 44.7131 107.897 44.8289 107.738C44.9462 107.58 45.1056 107.455 45.3069 107.365C45.5099 107.275 45.7398 107.229 45.9967 107.229C46.3582 107.229 46.642 107.309 46.8482 107.467C47.0559 107.626 47.2033 107.835 47.2905 108.095ZM49.7909 107.277V107.753H47.8976V107.277H49.7909ZM48.4494 106.402H49.0107V109.884C49.0107 110.042 49.0337 110.161 49.0797 110.24C49.1273 110.318 49.1875 110.37 49.2605 110.397C49.335 110.423 49.4135 110.435 49.4959 110.435C49.5578 110.435 49.6085 110.432 49.6482 110.426C49.6878 110.418 49.7195 110.412 49.7433 110.407L49.8575 110.911C49.8194 110.925 49.7663 110.94 49.6981 110.954C49.6299 110.97 49.5435 110.978 49.4389 110.978C49.2803 110.978 49.1249 110.944 48.9727 110.875C48.8221 110.807 48.6968 110.703 48.5969 110.564C48.4986 110.424 48.4494 110.248 48.4494 110.036V106.402ZM50.6352 110.93V107.277H51.1965V110.93H50.6352ZM50.9206 106.668C50.8112 106.668 50.7169 106.631 50.6376 106.556C50.5599 106.482 50.5211 106.392 50.5211 106.287C50.5211 106.183 50.5599 106.093 50.6376 106.019C50.7169 105.944 50.8112 105.907 50.9206 105.907C51.03 105.907 51.1236 105.944 51.2013 106.019C51.2806 106.093 51.3202 106.183 51.3202 106.287C51.3202 106.392 51.2806 106.482 51.2013 106.556C51.1236 106.631 51.03 106.668 50.9206 106.668ZM52.2246 110.93V107.277H52.7669V107.848H52.8145C52.8906 107.653 53.0135 107.501 53.1831 107.393C53.3528 107.284 53.5565 107.229 53.7944 107.229C54.0354 107.229 54.236 107.284 54.3961 107.393C54.5579 107.501 54.6839 107.653 54.7743 107.848H54.8123C54.9059 107.659 55.0462 107.509 55.2333 107.398C55.4204 107.286 55.6448 107.229 55.9064 107.229C56.2331 107.229 56.5002 107.332 56.708 107.536C56.9157 107.739 57.0195 108.055 57.0195 108.485V110.93H56.4582V108.485C56.4582 108.216 56.3845 108.023 56.237 107.907C56.0896 107.791 55.9159 107.734 55.7162 107.734C55.4593 107.734 55.2603 107.811 55.1192 107.967C54.978 108.12 54.9075 108.315 54.9075 108.552V110.93H54.3367V108.428C54.3367 108.22 54.2693 108.053 54.1345 107.926C53.9997 107.798 53.8261 107.734 53.6136 107.734C53.4677 107.734 53.3314 107.772 53.2045 107.85C53.0793 107.928 52.9778 108.036 52.9001 108.174C52.824 108.31 52.7859 108.468 52.7859 108.647V110.93H52.2246ZM59.1209 111.016C58.8894 111.016 58.6793 110.972 58.4906 110.885C58.3019 110.796 58.1521 110.669 58.0411 110.502C57.9301 110.334 57.8746 110.131 57.8746 109.893C57.8746 109.684 57.9158 109.514 57.9983 109.384C58.0807 109.253 58.1909 109.15 58.3289 109.075C58.4668 109 58.619 108.945 58.7855 108.909C58.9536 108.87 59.1225 108.84 59.2921 108.818C59.5141 108.79 59.6941 108.768 59.832 108.754C59.9716 108.738 60.073 108.712 60.1365 108.675C60.2015 108.639 60.234 108.576 60.234 108.485V108.466C60.234 108.231 60.1698 108.049 60.0413 107.919C59.9145 107.789 59.7218 107.724 59.4634 107.724C59.1954 107.724 58.9853 107.783 58.8331 107.9C58.6809 108.017 58.5738 108.143 58.512 108.276L57.9792 108.086C58.0744 107.864 58.2012 107.691 58.3598 107.567C58.5199 107.442 58.6943 107.355 58.883 107.305C59.0733 107.255 59.2604 107.229 59.4443 107.229C59.5617 107.229 59.6965 107.244 59.8487 107.272C60.0025 107.299 60.1507 107.355 60.2934 107.441C60.4377 107.527 60.5575 107.656 60.6526 107.829C60.7477 108.002 60.7953 108.233 60.7953 108.523V110.93H60.234V110.435H60.2054C60.1674 110.515 60.104 110.6 60.0152 110.69C59.9264 110.78 59.8082 110.857 59.6608 110.921C59.5133 110.984 59.3334 111.016 59.1209 111.016ZM59.2065 110.512C59.4285 110.512 59.6156 110.468 59.7678 110.381C59.9216 110.294 60.0374 110.181 60.1151 110.043C60.1943 109.905 60.234 109.76 60.234 109.608V109.094C60.2102 109.123 60.1579 109.149 60.077 109.173C59.9977 109.195 59.9058 109.215 59.8011 109.232C59.698 109.248 59.5974 109.262 59.4991 109.275C59.4023 109.286 59.3238 109.295 59.2636 109.303C59.1177 109.322 58.9813 109.353 58.8545 109.396C58.7292 109.437 58.6278 109.5 58.5501 109.584C58.4739 109.666 58.4359 109.779 58.4359 109.922C58.4359 110.117 58.508 110.264 58.6523 110.364C58.7982 110.462 58.9829 110.512 59.2065 110.512ZM63.4086 107.277V107.753H61.5154V107.277H63.4086ZM62.0672 106.402H62.6285V109.884C62.6285 110.042 62.6515 110.161 62.6975 110.24C62.745 110.318 62.8053 110.37 62.8782 110.397C62.9527 110.423 63.0312 110.435 63.1137 110.435C63.1755 110.435 63.2263 110.432 63.2659 110.426C63.3055 110.418 63.3373 110.412 63.361 110.407L63.4752 110.911C63.4371 110.925 63.384 110.94 63.3158 110.954C63.2477 110.97 63.1612 110.978 63.0566 110.978C62.898 110.978 62.7426 110.944 62.5904 110.875C62.4398 110.807 62.3145 110.703 62.2146 110.564C62.1163 110.424 62.0672 110.248 62.0672 110.036V106.402ZM65.7454 111.006C65.3934 111.006 65.0898 110.929 64.8345 110.773C64.5808 110.616 64.385 110.397 64.247 110.117C64.1106 109.835 64.0425 109.506 64.0425 109.132C64.0425 108.758 64.1106 108.428 64.247 108.143C64.385 107.856 64.5768 107.632 64.8226 107.472C65.0699 107.31 65.3585 107.229 65.6883 107.229C65.8786 107.229 66.0665 107.261 66.252 107.324C66.4375 107.388 66.6064 107.491 66.7586 107.634C66.9109 107.775 67.0322 107.962 67.1225 108.195C67.2129 108.428 67.2581 108.715 67.2581 109.056V109.294H64.442V108.809H66.6873C66.6873 108.602 66.6461 108.419 66.5636 108.257C66.4827 108.095 66.367 107.967 66.2163 107.874C66.0673 107.78 65.8913 107.734 65.6883 107.734C65.4648 107.734 65.2713 107.789 65.108 107.9C64.9463 108.009 64.8218 108.152 64.7346 108.328C64.6474 108.504 64.6038 108.693 64.6038 108.894V109.218C64.6038 109.494 64.6513 109.727 64.7465 109.919C64.8432 110.11 64.9772 110.255 65.1484 110.355C65.3197 110.453 65.5187 110.502 65.7454 110.502C65.8929 110.502 66.0261 110.481 66.145 110.44C66.2655 110.397 66.3694 110.334 66.4566 110.25C66.5438 110.164 66.6112 110.058 66.6587 109.931L67.201 110.083C67.1439 110.267 67.048 110.429 66.9132 110.569C66.7785 110.707 66.612 110.814 66.4138 110.892C66.2156 110.968 65.9928 111.006 65.7454 111.006ZM71.4798 111.006C71.1373 111.006 70.8424 110.925 70.595 110.764C70.3477 110.602 70.1574 110.379 70.0242 110.095C69.891 109.812 69.8244 109.487 69.8244 109.123C69.8244 108.752 69.8926 108.424 70.029 108.14C70.1669 107.855 70.3588 107.632 70.6046 107.472C70.8519 107.31 71.1405 107.229 71.4703 107.229C71.7272 107.229 71.9587 107.277 72.1648 107.372C72.3709 107.467 72.5398 107.6 72.6714 107.772C72.803 107.943 72.8847 108.143 72.9164 108.371H72.3551C72.3123 108.204 72.2171 108.057 72.0697 107.929C71.9238 107.799 71.7272 107.734 71.4798 107.734C71.261 107.734 71.0691 107.791 70.9042 107.905C70.7409 108.017 70.6133 108.177 70.5213 108.383C70.4309 108.587 70.3857 108.828 70.3857 109.104C70.3857 109.386 70.4301 109.632 70.5189 109.841C70.6093 110.05 70.7362 110.213 70.8995 110.328C71.0644 110.444 71.2578 110.502 71.4798 110.502C71.6257 110.502 71.7581 110.477 71.877 110.426C71.9959 110.375 72.0966 110.302 72.1791 110.207C72.2615 110.112 72.3202 109.998 72.3551 109.865H72.9164C72.8847 110.08 72.8062 110.275 72.6809 110.447C72.5573 110.619 72.3931 110.755 72.1886 110.856C71.9856 110.956 71.7494 111.006 71.4798 111.006ZM75.2211 111.006C74.8913 111.006 74.6019 110.928 74.353 110.771C74.1056 110.614 73.9122 110.394 73.7726 110.112C73.6347 109.83 73.5657 109.5 73.5657 109.123C73.5657 108.742 73.6347 108.41 73.7726 108.126C73.9122 107.842 74.1056 107.622 74.353 107.465C74.6019 107.308 74.8913 107.229 75.2211 107.229C75.5509 107.229 75.8395 107.308 76.0869 107.465C76.3358 107.622 76.5292 107.842 76.6672 108.126C76.8067 108.41 76.8765 108.742 76.8765 109.123C76.8765 109.5 76.8067 109.83 76.6672 110.112C76.5292 110.394 76.3358 110.614 76.0869 110.771C75.8395 110.928 75.5509 111.006 75.2211 111.006ZM75.2211 110.502C75.4716 110.502 75.6778 110.438 75.8395 110.309C76.0012 110.181 76.1209 110.012 76.1986 109.803C76.2763 109.593 76.3152 109.367 76.3152 109.123C76.3152 108.878 76.2763 108.651 76.1986 108.44C76.1209 108.229 76.0012 108.059 75.8395 107.929C75.6778 107.799 75.4716 107.734 75.2211 107.734C74.9706 107.734 74.7644 107.799 74.6027 107.929C74.441 108.059 74.3213 108.229 74.2436 108.44C74.1659 108.651 74.127 108.878 74.127 109.123C74.127 109.367 74.1659 109.593 74.2436 109.803C74.3213 110.012 74.441 110.181 74.6027 110.309C74.7644 110.438 74.9706 110.502 75.2211 110.502ZM80.3211 108.095L79.8168 108.238C79.7851 108.154 79.7383 108.072 79.6765 107.993C79.6163 107.912 79.5338 107.845 79.4292 107.793C79.3245 107.741 79.1905 107.715 79.0272 107.715C78.8036 107.715 78.6173 107.766 78.4683 107.869C78.3208 107.971 78.2471 108.1 78.2471 108.257C78.2471 108.396 78.2978 108.507 78.3993 108.587C78.5008 108.668 78.6593 108.736 78.875 108.79L79.4173 108.923C79.7439 109.002 79.9873 109.123 80.1474 109.287C80.3076 109.448 80.3877 109.657 80.3877 109.912C80.3877 110.122 80.3274 110.309 80.2069 110.474C80.088 110.638 79.9215 110.768 79.7074 110.864C79.4934 110.959 79.2444 111.006 78.9606 111.006C78.588 111.006 78.2796 110.925 78.0354 110.764C77.7912 110.602 77.6366 110.366 77.5716 110.055L78.1044 109.922C78.1551 110.118 78.251 110.266 78.3922 110.364C78.5349 110.462 78.7212 110.512 78.9511 110.512C79.2127 110.512 79.4204 110.456 79.5742 110.345C79.7296 110.233 79.8073 110.098 79.8073 109.941C79.8073 109.814 79.7629 109.708 79.6741 109.622C79.5853 109.535 79.449 109.47 79.265 109.427L78.6562 109.284C78.3216 109.205 78.0758 109.082 77.9188 108.916C77.7635 108.748 77.6858 108.537 77.6858 108.285C77.6858 108.079 77.7436 107.897 77.8594 107.738C77.9767 107.58 78.1361 107.455 78.3375 107.365C78.5404 107.275 78.7703 107.229 79.0272 107.229C79.3887 107.229 79.6725 107.309 79.8787 107.467C80.0864 107.626 80.2339 107.835 80.3211 108.095ZM82.8214 107.277V107.753H80.9282V107.277H82.8214ZM81.48 106.402H82.0413V109.884C82.0413 110.042 82.0643 110.161 82.1102 110.24C82.1578 110.318 82.2181 110.37 82.291 110.397C82.3655 110.423 82.444 110.435 82.5265 110.435C82.5883 110.435 82.639 110.432 82.6787 110.426C82.7183 110.418 82.75 110.412 82.7738 110.407L82.888 110.911C82.8499 110.925 82.7968 110.94 82.7286 110.954C82.6605 110.97 82.574 110.978 82.4694 110.978C82.3108 110.978 82.1554 110.944 82.0032 110.875C81.8526 110.807 81.7273 110.703 81.6274 110.564C81.5291 110.424 81.48 110.248 81.48 110.036V106.402Z" fill="#121926"/>
<path d="M38.8509 128.636V116.459H39.6311V128.636H38.8509ZM41.1009 120.355C41.0565 119.939 40.8694 119.616 40.5396 119.384C40.213 119.153 39.788 119.037 39.2648 119.037C38.8969 119.037 38.5814 119.092 38.3182 119.203C38.055 119.314 37.8536 119.465 37.7141 119.655C37.5745 119.846 37.5032 120.063 37.5 120.307C37.5 120.51 37.546 120.686 37.6379 120.835C37.7331 120.984 37.8615 121.111 38.0232 121.215C38.185 121.317 38.3642 121.403 38.5608 121.472C38.7574 121.542 38.9556 121.601 39.1554 121.648L40.0687 121.877C40.4366 121.962 40.7902 122.078 41.1295 122.224C41.472 122.37 41.778 122.554 42.0476 122.776C42.3203 122.998 42.5359 123.266 42.6945 123.58C42.8531 123.894 42.9323 124.261 42.9323 124.683C42.9323 125.254 42.7865 125.757 42.4947 126.191C42.203 126.622 41.7812 126.96 41.2294 127.204C40.6808 127.445 40.0164 127.566 39.2362 127.566C38.4783 127.566 37.8203 127.449 37.2621 127.214C36.7072 126.979 36.2727 126.637 35.9588 126.186C35.648 125.736 35.4799 125.187 35.4545 124.541H37.1908C37.2162 124.88 37.3208 125.162 37.5047 125.387C37.6887 125.612 37.9281 125.781 38.223 125.892C38.5211 126.002 38.8541 126.058 39.222 126.058C39.6057 126.058 39.9419 126.001 40.2304 125.887C40.5222 125.769 40.7505 125.608 40.9154 125.402C41.0803 125.192 41.1644 124.948 41.1675 124.669C41.1644 124.415 41.0898 124.206 40.944 124.041C40.7981 123.873 40.5935 123.733 40.3303 123.622C40.0703 123.508 39.7658 123.407 39.417 123.318L38.3087 123.033C37.5063 122.826 36.8721 122.514 36.4059 122.096C35.9429 121.674 35.7114 121.114 35.7114 120.416C35.7114 119.842 35.8668 119.34 36.1776 118.908C36.4915 118.477 36.9181 118.143 37.4572 117.905C37.9963 117.664 38.6068 117.543 39.2886 117.543C39.9799 117.543 40.5856 117.664 41.1057 117.905C41.629 118.143 42.0396 118.474 42.3377 118.899C42.6358 119.321 42.7896 119.806 42.7991 120.355H41.1009ZM47.7927 117.543C48.2588 117.546 48.7123 117.629 49.1531 117.791C49.5971 117.949 49.9967 118.209 50.3519 118.571C50.707 118.929 50.9893 119.409 51.1986 120.012C51.4079 120.615 51.5125 121.36 51.5125 122.248C51.5157 123.085 51.4269 123.833 51.2462 124.493C51.0686 125.149 50.8133 125.704 50.4803 126.158C50.1473 126.611 49.7462 126.957 49.2768 127.195C48.8075 127.433 48.2795 127.552 47.6928 127.552C47.0776 127.552 46.5321 127.431 46.0564 127.19C45.5839 126.949 45.2018 126.619 44.91 126.201C44.6183 125.782 44.4391 125.303 44.3725 124.764H46.1087C46.1975 125.151 46.3783 125.459 46.651 125.687C46.9269 125.912 47.2742 126.025 47.6928 126.025C48.3683 126.025 48.8883 125.731 49.253 125.145C49.6177 124.558 49.8001 123.743 49.8001 122.7H49.7335C49.5781 122.979 49.3767 123.22 49.1294 123.423C48.882 123.622 48.6013 123.776 48.2874 123.884C47.9766 123.992 47.6468 124.046 47.298 124.046C46.7271 124.046 46.2134 123.909 45.7567 123.637C45.3032 123.364 44.9433 122.99 44.6769 122.514C44.4137 122.038 44.2805 121.495 44.2773 120.883C44.2773 120.248 44.4232 119.679 44.715 119.175C45.0099 118.667 45.4206 118.268 45.947 117.976C46.4734 117.681 47.0887 117.537 47.7927 117.543ZM47.7974 118.97C47.4549 118.97 47.1457 119.054 46.8698 119.222C46.5971 119.387 46.3815 119.612 46.2229 119.898C46.0675 120.18 45.9898 120.496 45.9898 120.844C45.993 121.19 46.0707 121.504 46.2229 121.786C46.3783 122.069 46.5892 122.292 46.8556 122.457C47.1251 122.622 47.4327 122.704 47.7784 122.704C48.0353 122.704 48.2747 122.655 48.4967 122.557C48.7187 122.459 48.9121 122.322 49.077 122.148C49.2451 121.97 49.3751 121.769 49.4671 121.544C49.5622 121.319 49.6082 121.081 49.605 120.83C49.605 120.497 49.5258 120.19 49.3672 119.907C49.2118 119.625 48.9977 119.398 48.725 119.227C48.4555 119.056 48.1463 118.97 47.7974 118.97ZM53.797 127.523C53.5084 127.523 53.2611 127.422 53.055 127.219C52.8488 127.016 52.7473 126.768 52.7505 126.477C52.7473 126.191 52.8488 125.947 53.055 125.744C53.2611 125.541 53.5084 125.44 53.797 125.44C54.0761 125.44 54.3187 125.541 54.5248 125.744C54.7341 125.947 54.8404 126.191 54.8435 126.477C54.8404 126.67 54.7896 126.846 54.6913 127.005C54.5962 127.163 54.4693 127.29 54.3108 127.385C54.1554 127.477 53.9841 127.523 53.797 127.523ZM59.8406 117.543C60.3068 117.546 60.7603 117.629 61.2011 117.791C61.6451 117.949 62.0447 118.209 62.3998 118.571C62.755 118.929 63.0373 119.409 63.2466 120.012C63.4559 120.615 63.5605 121.36 63.5605 122.248C63.5637 123.085 63.4749 123.833 63.2941 124.493C63.1165 125.149 62.8612 125.704 62.5283 126.158C62.1953 126.611 61.7941 126.957 61.3248 127.195C60.8554 127.433 60.3274 127.552 59.7407 127.552C59.1255 127.552 58.5801 127.431 58.1044 127.19C57.6319 126.949 57.2497 126.619 56.958 126.201C56.6662 125.782 56.487 125.303 56.4204 124.764H58.1567C58.2455 125.151 58.4263 125.459 58.699 125.687C58.9749 125.912 59.3221 126.025 59.7407 126.025C60.4162 126.025 60.9363 125.731 61.301 125.145C61.6657 124.558 61.848 123.743 61.848 122.7H61.7814C61.626 122.979 61.4247 123.22 61.1773 123.423C60.93 123.622 60.6493 123.776 60.3353 123.884C60.0246 123.992 59.6948 124.046 59.3459 124.046C58.7751 124.046 58.2614 123.909 57.8047 123.637C57.3512 123.364 56.9913 122.99 56.7249 122.514C56.4617 122.038 56.3285 121.495 56.3253 120.883C56.3253 120.248 56.4712 119.679 56.7629 119.175C57.0579 118.667 57.4685 118.268 57.995 117.976C58.5214 117.681 59.1366 117.537 59.8406 117.543ZM59.8454 118.97C59.5029 118.97 59.1937 119.054 58.9178 119.222C58.6451 119.387 58.4294 119.612 58.2709 119.898C58.1155 120.18 58.0378 120.496 58.0378 120.844C58.041 121.19 58.1186 121.504 58.2709 121.786C58.4263 122.069 58.6371 122.292 58.9035 122.457C59.1731 122.622 59.4807 122.704 59.8264 122.704C60.0832 122.704 60.3227 122.655 60.5447 122.557C60.7666 122.459 60.9601 122.322 61.125 122.148C61.2931 121.97 61.4231 121.769 61.5151 121.544C61.6102 121.319 61.6562 121.081 61.653 120.83C61.653 120.497 61.5737 120.19 61.4152 119.907C61.2598 119.625 61.0457 119.398 60.773 119.227C60.5034 119.056 60.1942 118.97 59.8454 118.97ZM68.5267 117.543C68.9929 117.546 69.4463 117.629 69.8871 117.791C70.3311 117.949 70.7307 118.209 71.0859 118.571C71.4411 118.929 71.7233 119.409 71.9326 120.012C72.1419 120.615 72.2466 121.36 72.2466 122.248C72.2497 123.085 72.1609 123.833 71.9802 124.493C71.8026 125.149 71.5473 125.704 71.2143 126.158C70.8813 126.611 70.4802 126.957 70.0108 127.195C69.5415 127.433 69.0135 127.552 68.4268 127.552C67.8116 127.552 67.2661 127.431 66.7904 127.19C66.3179 126.949 65.9358 126.619 65.644 126.201C65.3523 125.782 65.1731 125.303 65.1065 124.764H66.8427C66.9315 125.151 67.1123 125.459 67.385 125.687C67.6609 125.912 68.0082 126.025 68.4268 126.025C69.1023 126.025 69.6223 125.731 69.987 125.145C70.3517 124.558 70.5341 123.743 70.5341 122.7H70.4675C70.3121 122.979 70.1107 123.22 69.8634 123.423C69.616 123.622 69.3353 123.776 69.0214 123.884C68.7106 123.992 68.3808 124.046 68.032 124.046C67.4611 124.046 66.9474 123.909 66.4907 123.637C66.0372 123.364 65.6773 122.99 65.4109 122.514C65.1477 122.038 65.0145 121.495 65.0114 120.883C65.0114 120.248 65.1572 119.679 65.449 119.175C65.7439 118.667 66.1546 118.268 66.681 117.976C67.2074 117.681 67.8227 117.537 68.5267 117.543ZM68.5314 118.97C68.1889 118.97 67.8797 119.054 67.6038 119.222C67.3311 119.387 67.1155 119.612 66.9569 119.898C66.8015 120.18 66.7238 120.496 66.7238 120.844C66.727 121.19 66.8047 121.504 66.9569 121.786C67.1123 122.069 67.3232 122.292 67.5896 122.457C67.8591 122.622 68.1667 122.704 68.5124 122.704C68.7693 122.704 69.0087 122.655 69.2307 122.557C69.4527 122.459 69.6461 122.322 69.811 122.148C69.9791 121.97 70.1091 121.769 70.2011 121.544C70.2962 121.319 70.3422 121.081 70.339 120.83C70.339 120.497 70.2598 120.19 70.1012 119.907C69.9458 119.625 69.7318 119.398 69.459 119.227C69.1895 119.056 68.8803 118.97 68.5314 118.97ZM76.0033 121.044L74.0411 128.334H73.0986L75.0608 121.044H76.0033ZM76.6901 127.418V122.852H77.7187V123.628H77.7723C77.8674 123.366 78.025 123.162 78.245 123.015C78.465 122.867 78.7276 122.792 79.0328 122.792C79.342 122.792 79.6027 122.868 79.8147 123.018C80.0288 123.167 80.1794 123.37 80.2666 123.628H80.3142C80.4153 123.374 80.5857 123.172 80.8256 123.021C81.0674 122.869 81.3538 122.792 81.6848 122.792C82.105 122.792 82.4479 122.925 82.7135 123.191C82.979 123.456 83.1118 123.844 83.1118 124.353V127.418H82.0326V124.52C82.0326 124.236 81.9573 124.029 81.8067 123.898C81.656 123.766 81.4717 123.699 81.2537 123.699C80.994 123.699 80.7909 123.78 80.6442 123.943C80.4995 124.104 80.4272 124.313 80.4272 124.57V127.418H79.3717V124.475C79.3717 124.239 79.3004 124.051 79.1577 123.91C79.017 123.77 78.8326 123.699 78.6047 123.699C78.4501 123.699 78.3094 123.739 78.1825 123.818C78.0557 123.895 77.9546 124.005 77.8793 124.148C77.804 124.289 77.7663 124.453 77.7663 124.642V127.418H76.6901ZM86.1956 127.508C85.7497 127.508 85.3632 127.41 85.0361 127.213C84.7091 127.017 84.4554 126.743 84.275 126.39C84.0967 126.037 84.0075 125.625 84.0075 125.153C84.0075 124.681 84.0967 124.268 84.275 123.913C84.4554 123.558 84.7091 123.283 85.0361 123.087C85.3632 122.891 85.7497 122.792 86.1956 122.792C86.6416 122.792 87.0281 122.891 87.3551 123.087C87.6822 123.283 87.9349 123.558 88.1132 123.913C88.2936 124.268 88.3838 124.681 88.3838 125.153C88.3838 125.625 88.2936 126.037 88.1132 126.39C87.9349 126.743 87.6822 127.017 87.3551 127.213C87.0281 127.41 86.6416 127.508 86.1956 127.508ZM86.2016 126.645C86.4434 126.645 86.6456 126.579 86.8081 126.446C86.9706 126.311 87.0915 126.131 87.1708 125.905C87.2521 125.679 87.2927 125.428 87.2927 125.15C87.2927 124.871 87.2521 124.618 87.1708 124.392C87.0915 124.164 86.9706 123.983 86.8081 123.848C86.6456 123.713 86.4434 123.646 86.2016 123.646C85.9538 123.646 85.7477 123.713 85.5832 123.848C85.4207 123.983 85.2988 124.164 85.2175 124.392C85.1382 124.618 85.0986 124.871 85.0986 125.15C85.0986 125.428 85.1382 125.679 85.2175 125.905C85.2988 126.131 85.4207 126.311 85.5832 126.446C85.7477 126.579 85.9538 126.645 86.2016 126.645Z" fill="#202939"/>
<path d="M36.1615 53.5582H37.1513L38.4769 56.7937H38.5292L39.8548 53.5582H40.8446V58.0233H40.0685V54.9557H40.027L38.793 58.0102H38.2131L36.9791 54.9492H36.9376V58.0233H36.1615V53.5582ZM43.1513 58.0887C42.8243 58.0887 42.5408 58.0168 42.301 57.8729C42.0612 57.729 41.8751 57.5277 41.7429 57.269C41.6121 57.0102 41.5467 56.7079 41.5467 56.362C41.5467 56.016 41.6121 55.713 41.7429 55.4528C41.8751 55.1926 42.0612 54.9906 42.301 54.8467C42.5408 54.7028 42.8243 54.6309 43.1513 54.6309C43.4783 54.6309 43.7618 54.7028 44.0016 54.8467C44.2414 54.9906 44.4267 55.1926 44.5576 55.4528C44.6898 55.713 44.756 56.016 44.756 56.362C44.756 56.7079 44.6898 57.0102 44.5576 57.269C44.4267 57.5277 44.2414 57.729 44.0016 57.8729C43.7618 58.0168 43.4783 58.0887 43.1513 58.0887ZM43.1557 57.4565C43.333 57.4565 43.4812 57.4078 43.6004 57.3104C43.7196 57.2115 43.8083 57.0793 43.8664 56.9136C43.926 56.7479 43.9558 56.5633 43.9558 56.3598C43.9558 56.1549 43.926 55.9695 43.8664 55.8038C43.8083 55.6367 43.7196 55.5037 43.6004 55.4049C43.4812 55.306 43.333 55.2566 43.1557 55.2566C42.974 55.2566 42.8228 55.306 42.7022 55.4049C42.583 55.5037 42.4936 55.6367 42.434 55.8038C42.3759 55.9695 42.3468 56.1549 42.3468 56.3598C42.3468 56.5633 42.3759 56.7479 42.434 56.9136C42.4936 57.0793 42.583 57.2115 42.7022 57.3104C42.8228 57.4078 42.974 57.4565 43.1557 57.4565ZM48.0726 55.5597L47.3532 55.6381C47.3328 55.5655 47.2972 55.4972 47.2463 55.4332C47.1969 55.3692 47.13 55.3176 47.0457 55.2784C46.9614 55.2392 46.8582 55.2195 46.7361 55.2195C46.5719 55.2195 46.4338 55.2551 46.3219 55.3264C46.2114 55.3976 46.1569 55.4899 46.1584 55.6033C46.1569 55.7006 46.1925 55.7799 46.2652 55.8409C46.3393 55.9019 46.4614 55.9521 46.6315 55.9913L47.2027 56.1134C47.5196 56.1817 47.755 56.29 47.9091 56.4383C48.0646 56.5865 48.1431 56.7806 48.1446 57.0204C48.1431 57.2312 48.0814 57.4172 47.9593 57.5785C47.8386 57.7384 47.6707 57.8634 47.4556 57.9535C47.2405 58.0437 46.9934 58.0887 46.7143 58.0887C46.3045 58.0887 45.9745 58.003 45.7245 57.8315C45.4745 57.6585 45.3255 57.4179 45.2776 57.1098L46.0472 57.0357C46.0821 57.1868 46.1562 57.3009 46.2696 57.378C46.383 57.455 46.5305 57.4935 46.7122 57.4935C46.8997 57.4935 47.0501 57.455 47.1635 57.378C47.2783 57.3009 47.3357 57.2057 47.3357 57.0924C47.3357 56.9964 47.2986 56.9172 47.2245 56.8547C47.1518 56.7922 47.0385 56.7442 46.8844 56.7108L46.3132 56.5909C45.992 56.524 45.7543 56.4114 45.6002 56.253C45.4462 56.0931 45.3699 55.891 45.3713 55.6469C45.3699 55.4405 45.4258 55.2617 45.5392 55.1105C45.654 54.9579 45.8132 54.8402 46.0167 54.7573C46.2216 54.673 46.4578 54.6309 46.7252 54.6309C47.1177 54.6309 47.4266 54.7144 47.6518 54.8816C47.8786 55.0488 48.0189 55.2748 48.0726 55.5597ZM50.4676 54.6745V55.2849H48.5425V54.6745H50.4676ZM49.0178 53.8722H49.807V57.016C49.807 57.1222 49.823 57.2035 49.855 57.2602C49.8884 57.3155 49.932 57.3533 49.9858 57.3736C50.0396 57.394 50.0992 57.4041 50.1646 57.4041C50.214 57.4041 50.259 57.4005 50.2997 57.3932C50.3419 57.386 50.3739 57.3794 50.3957 57.3736L50.5287 57.9906C50.4865 58.0051 50.4262 58.0211 50.3477 58.0386C50.2707 58.056 50.1762 58.0662 50.0643 58.0691C49.8666 58.0749 49.6885 58.0451 49.5301 57.9797C49.3717 57.9129 49.246 57.8097 49.1529 57.6701C49.0614 57.5306 49.0163 57.3562 49.0178 57.1469V53.8722ZM52.6855 58.0233V53.5582H54.3599C54.7029 53.5582 54.9907 53.6178 55.2233 53.737C55.4573 53.8562 55.6339 54.0233 55.753 54.2384C55.8737 54.4521 55.934 54.7014 55.934 54.9863C55.934 55.2726 55.873 55.5211 55.7509 55.7319C55.6302 55.9412 55.4522 56.1033 55.2167 56.2181C54.9812 56.3315 54.692 56.3881 54.349 56.3881H53.1564V55.7166H54.24C54.4405 55.7166 54.6048 55.689 54.7327 55.6338C54.8606 55.5771 54.9551 55.495 55.0161 55.3874C55.0786 55.2784 55.1099 55.1447 55.1099 54.9863C55.1099 54.8278 55.0786 54.6926 55.0161 54.5807C54.9536 54.4674 54.8584 54.3816 54.7305 54.3235C54.6026 54.2639 54.4376 54.2341 54.2356 54.2341H53.4943V58.0233H52.6855ZM54.9921 56.0001L56.0975 58.0233H55.1949L54.1092 56.0001H54.9921ZM58.0783 58.0887C57.7425 58.0887 57.4525 58.019 57.2084 57.8794C56.9656 57.7384 56.7788 57.5393 56.648 57.282C56.5172 57.0233 56.4518 56.7188 56.4518 56.3685C56.4518 56.024 56.5172 55.7217 56.648 55.4615C56.7803 55.1999 56.9649 54.9964 57.2018 54.8511C57.4387 54.7043 57.7171 54.6309 58.0368 54.6309C58.2432 54.6309 58.438 54.6643 58.6211 54.7312C58.8057 54.7966 58.9685 54.8983 59.1095 55.0364C59.252 55.1745 59.3639 55.3504 59.4453 55.564C59.5267 55.7762 59.5674 56.0291 59.5674 56.3227V56.5647H56.8224V56.0328H58.8108C58.8094 55.8816 58.7767 55.7472 58.7127 55.6294C58.6488 55.5102 58.5594 55.4165 58.4445 55.3482C58.3312 55.2799 58.1989 55.2457 58.0477 55.2457C57.8864 55.2457 57.7447 55.2849 57.6226 55.3634C57.5005 55.4405 57.4053 55.5422 57.337 55.6687C57.2701 55.7937 57.236 55.931 57.2345 56.0807V56.5451C57.2345 56.7399 57.2701 56.907 57.3413 57.0466C57.4126 57.1847 57.5121 57.2908 57.64 57.3649C57.7679 57.4376 57.9177 57.4739 58.0892 57.4739C58.204 57.4739 58.3079 57.4579 58.4009 57.4259C58.494 57.3925 58.5746 57.3438 58.6429 57.2799C58.7113 57.2159 58.7629 57.1367 58.7977 57.0422L59.5347 57.1251C59.4881 57.3198 59.3995 57.4899 59.2687 57.6352C59.1393 57.7791 58.9736 57.891 58.7716 57.971C58.5695 58.0495 58.3384 58.0887 58.0783 58.0887ZM61.6958 58.0887C61.3615 58.0887 61.0744 58.0153 60.8346 57.8685C60.5963 57.7217 60.4124 57.519 60.283 57.2602C60.1551 57.0001 60.0912 56.7006 60.0912 56.362C60.0912 56.0219 60.1566 55.7217 60.2874 55.4615C60.4182 55.1999 60.6028 54.9964 60.8412 54.8511C61.081 54.7043 61.3644 54.6309 61.6915 54.6309C61.9633 54.6309 62.2038 54.681 62.4131 54.7813C62.6239 54.8801 62.7917 55.0204 62.9167 55.2021C63.0417 55.3823 63.113 55.5931 63.1304 55.8344H62.376C62.3455 55.673 62.2729 55.5386 62.158 55.431C62.0447 55.322 61.8928 55.2675 61.7024 55.2675C61.541 55.2675 61.3993 55.3111 61.2772 55.3983C61.1551 55.4841 61.0599 55.6076 60.9916 55.769C60.9247 55.9303 60.8913 56.1236 60.8913 56.3489C60.8913 56.5771 60.9247 56.7733 60.9916 56.9376C61.0585 57.1004 61.1522 57.2261 61.2729 57.3147C61.3949 57.4019 61.5381 57.4456 61.7024 57.4456C61.8186 57.4456 61.9226 57.4238 62.0141 57.3801C62.1072 57.3351 62.1849 57.2704 62.2474 57.1861C62.3099 57.1018 62.3528 56.9993 62.376 56.8787H63.1304C63.1115 57.1156 63.0417 57.3256 62.9211 57.5088C62.8005 57.6905 62.6362 57.8329 62.4284 57.9361C62.2205 58.0379 61.9763 58.0887 61.6958 58.0887ZM65.2392 58.0887C64.9122 58.0887 64.6288 58.0168 64.3889 57.8729C64.1491 57.729 63.9631 57.5277 63.8308 57.269C63.7 57.0102 63.6346 56.7079 63.6346 56.362C63.6346 56.016 63.7 55.713 63.8308 55.4528C63.9631 55.1926 64.1491 54.9906 64.3889 54.8467C64.6288 54.7028 64.9122 54.6309 65.2392 54.6309C65.5663 54.6309 65.8497 54.7028 66.0895 54.8467C66.3294 54.9906 66.5147 55.1926 66.6455 55.4528C66.7778 55.713 66.8439 56.016 66.8439 56.362C66.8439 56.7079 66.7778 57.0102 66.6455 57.269C66.5147 57.5277 66.3294 57.729 66.0895 57.8729C65.8497 58.0168 65.5663 58.0887 65.2392 58.0887ZM65.2436 57.4565C65.4209 57.4565 65.5692 57.4078 65.6884 57.3104C65.8076 57.2115 65.8962 57.0793 65.9544 56.9136C66.0139 56.7479 66.0437 56.5633 66.0437 56.3598C66.0437 56.1549 66.0139 55.9695 65.9544 55.8038C65.8962 55.6367 65.8076 55.5037 65.6884 55.4049C65.5692 55.306 65.4209 55.2566 65.2436 55.2566C65.0619 55.2566 64.9107 55.306 64.7901 55.4049C64.6709 55.5037 64.5815 55.6367 64.5219 55.8038C64.4638 55.9695 64.4347 56.1549 64.4347 56.3598C64.4347 56.5633 64.4638 56.7479 64.5219 56.9136C64.5815 57.0793 64.6709 57.2115 64.7901 57.3104C64.9107 57.4078 65.0619 57.4565 65.2436 57.4565ZM67.5138 58.0233V54.6745H68.2681V55.2435H68.3074C68.3771 55.0517 68.4927 54.9019 68.654 54.7944C68.8154 54.6854 69.008 54.6309 69.2318 54.6309C69.4585 54.6309 69.6497 54.6861 69.8052 54.7966C69.9622 54.9056 70.0726 55.0546 70.1366 55.2435H70.1715C70.2456 55.0575 70.3706 54.9092 70.5465 54.7988C70.7238 54.6868 70.9338 54.6309 71.1766 54.6309C71.4847 54.6309 71.7361 54.7283 71.9309 54.923C72.1257 55.1178 72.2231 55.4019 72.2231 55.7755V58.0233H71.4316V55.8976C71.4316 55.6897 71.3764 55.5379 71.2659 55.4419C71.1555 55.3445 71.0203 55.2958 70.8604 55.2958C70.67 55.2958 70.521 55.3554 70.4135 55.4746C70.3074 55.5924 70.2543 55.7457 70.2543 55.9347V58.0233H69.4803V55.8649C69.4803 55.6919 69.428 55.5538 69.3234 55.4506C69.2202 55.3474 69.085 55.2958 68.9178 55.2958C68.8045 55.2958 68.7013 55.3249 68.6082 55.3831C68.5152 55.4397 68.4411 55.5204 68.3859 55.6251C68.3306 55.7283 68.303 55.8489 68.303 55.987V58.0233H67.5138ZM73.0238 58.0233V54.6745H73.7781V55.2435H73.8174C73.8871 55.0517 74.0027 54.9019 74.164 54.7944C74.3254 54.6854 74.5179 54.6309 74.7418 54.6309C74.9685 54.6309 75.1597 54.6861 75.3152 54.7966C75.4722 54.9056 75.5826 55.0546 75.6466 55.2435H75.6815C75.7556 55.0575 75.8806 54.9092 76.0565 54.7988C76.2338 54.6868 76.4438 54.6309 76.6866 54.6309C76.9947 54.6309 77.2461 54.7283 77.4409 54.923C77.6357 55.1178 77.7331 55.4019 77.7331 55.7755V58.0233H76.9416V55.8976C76.9416 55.6897 76.8864 55.5379 76.7759 55.4419C76.6655 55.3445 76.5303 55.2958 76.3704 55.2958C76.18 55.2958 76.031 55.3554 75.9235 55.4746C75.8174 55.5924 75.7643 55.7457 75.7643 55.9347V58.0233H74.9903V55.8649C74.9903 55.6919 74.938 55.5538 74.8334 55.4506C74.7302 55.3474 74.595 55.2958 74.4278 55.2958C74.3145 55.2958 74.2113 55.3249 74.1182 55.3831C74.0252 55.4397 73.9511 55.5204 73.8959 55.6251C73.8406 55.7283 73.813 55.8489 73.813 55.987V58.0233H73.0238ZM80.0163 58.0887C79.6806 58.0887 79.3906 58.019 79.1464 57.8794C78.9037 57.7384 78.7169 57.5393 78.5861 57.282C78.4553 57.0233 78.3899 56.7188 78.3899 56.3685C78.3899 56.024 78.4553 55.7217 78.5861 55.4615C78.7183 55.1999 78.9029 54.9964 79.1399 54.8511C79.3768 54.7043 79.6551 54.6309 79.9749 54.6309C80.1813 54.6309 80.376 54.6643 80.5592 54.7312C80.7438 54.7966 80.9066 54.8983 81.0476 55.0364C81.19 55.1745 81.3019 55.3504 81.3833 55.564C81.4647 55.7762 81.5054 56.0291 81.5054 56.3227V56.5647H78.7605V56.0328H80.7489C80.7474 55.8816 80.7147 55.7472 80.6508 55.6294C80.5868 55.5102 80.4974 55.4165 80.3826 55.3482C80.2692 55.2799 80.1369 55.2457 79.9858 55.2457C79.8244 55.2457 79.6827 55.2849 79.5606 55.3634C79.4385 55.4405 79.3433 55.5422 79.275 55.6687C79.2082 55.7937 79.174 55.931 79.1726 56.0807V56.5451C79.1726 56.7399 79.2082 56.907 79.2794 57.0466C79.3506 57.1847 79.4502 57.2908 79.5781 57.3649C79.706 57.4376 79.8557 57.4739 80.0272 57.4739C80.142 57.4739 80.246 57.4579 80.339 57.4259C80.432 57.3925 80.5127 57.3438 80.581 57.2799C80.6493 57.2159 80.7009 57.1367 80.7358 57.0422L81.4727 57.1251C81.4262 57.3198 81.3375 57.4899 81.2067 57.6352C81.0774 57.7791 80.9117 57.891 80.7096 57.971C80.5076 58.0495 80.2765 58.0887 80.0163 58.0887ZM82.9623 56.0611V58.0233H82.1731V54.6745H82.9275V55.2435H82.9667C83.0437 55.056 83.1666 54.907 83.3352 54.7966C83.5052 54.6861 83.7153 54.6309 83.9653 54.6309C84.1964 54.6309 84.3977 54.6803 84.5692 54.7791C84.7421 54.878 84.8759 55.0211 84.9703 55.2086C85.0663 55.3961 85.1135 55.6236 85.1121 55.891V58.0233H84.3228V56.0131C84.3228 55.7893 84.2647 55.6142 84.1484 55.4877C84.0336 55.3613 83.8744 55.298 83.6709 55.298C83.5328 55.298 83.41 55.3285 83.3025 55.3896C83.1964 55.4492 83.1128 55.5357 83.0517 55.649C82.9921 55.7624 82.9623 55.8998 82.9623 56.0611ZM87.1571 58.0822C86.894 58.0822 86.6586 58.0146 86.4507 57.8794C86.2429 57.7442 86.0786 57.548 85.958 57.2908C85.8373 57.0335 85.777 56.721 85.777 56.3533C85.777 55.9812 85.8381 55.6672 85.9602 55.4114C86.0837 55.1541 86.2501 54.9601 86.4594 54.8293C86.6687 54.697 86.902 54.6309 87.1593 54.6309C87.3555 54.6309 87.5169 54.6643 87.6433 54.7312C87.7698 54.7966 87.8701 54.8758 87.9442 54.9688C88.0183 55.0604 88.0757 55.1469 88.1164 55.2283H88.1491V53.5582H88.9405V58.0233H88.1644V57.4957H88.1164C88.0757 57.5771 88.0169 57.6636 87.9398 57.7551C87.8628 57.8453 87.761 57.9223 87.6346 57.9863C87.5081 58.0502 87.349 58.0822 87.1571 58.0822ZM87.3773 57.4347C87.5445 57.4347 87.6869 57.3896 87.8046 57.2995C87.9224 57.2079 88.0118 57.0807 88.0728 56.9179C88.1339 56.7551 88.1644 56.5655 88.1644 56.3489C88.1644 56.1323 88.1339 55.9441 88.0728 55.7842C88.0132 55.6243 87.9246 55.5001 87.8068 55.4114C87.6905 55.3227 87.5474 55.2784 87.3773 55.2784C87.2014 55.2784 87.0546 55.3242 86.9369 55.4158C86.8192 55.5073 86.7305 55.6338 86.6709 55.7951C86.6113 55.9565 86.5815 56.141 86.5815 56.3489C86.5815 56.5582 86.6113 56.745 86.6709 56.9092C86.732 57.072 86.8214 57.2006 86.9391 57.2951C87.0583 57.3881 87.2044 57.4347 87.3773 57.4347ZM91.2641 58.0887C90.9284 58.0887 90.6384 58.019 90.3942 57.8794C90.1515 57.7384 89.9647 57.5393 89.8339 57.282C89.7031 57.0233 89.6377 56.7188 89.6377 56.3685C89.6377 56.024 89.7031 55.7217 89.8339 55.4615C89.9662 55.1999 90.1508 54.9964 90.3877 54.8511C90.6246 54.7043 90.9029 54.6309 91.2227 54.6309C91.4291 54.6309 91.6239 54.6643 91.807 54.7312C91.9916 54.7966 92.1544 54.8983 92.2954 55.0364C92.4378 55.1745 92.5497 55.3504 92.6311 55.564C92.7125 55.7762 92.7532 56.0291 92.7532 56.3227V56.5647H90.0083V56.0328H91.9967C91.9952 55.8816 91.9625 55.7472 91.8986 55.6294C91.8346 55.5102 91.7452 55.4165 91.6304 55.3482C91.517 55.2799 91.3848 55.2457 91.2336 55.2457C91.0723 55.2457 90.9306 55.2849 90.8085 55.3634C90.6864 55.4405 90.5912 55.5422 90.5229 55.6687C90.456 55.7937 90.4218 55.931 90.4204 56.0807V56.5451C90.4204 56.7399 90.456 56.907 90.5272 57.0466C90.5984 57.1847 90.698 57.2908 90.8259 57.3649C90.9538 57.4376 91.1035 57.4739 91.275 57.4739C91.3899 57.4739 91.4938 57.4579 91.5868 57.4259C91.6798 57.3925 91.7605 57.3438 91.8288 57.2799C91.8971 57.2159 91.9487 57.1367 91.9836 57.0422L92.7205 57.1251C92.674 57.3198 92.5854 57.4899 92.4545 57.6352C92.3252 57.7791 92.1595 57.891 91.9574 57.971C91.7554 58.0495 91.5243 58.0887 91.2641 58.0887ZM94.6637 58.0822C94.4006 58.0822 94.1651 58.0146 93.9573 57.8794C93.7494 57.7442 93.5852 57.548 93.4645 57.2908C93.3439 57.0335 93.2836 56.721 93.2836 56.3533C93.2836 55.9812 93.3446 55.6672 93.4667 55.4114C93.5903 55.1541 93.7567 54.9601 93.966 54.8293C94.1753 54.697 94.4086 54.6309 94.6658 54.6309C94.8621 54.6309 95.0234 54.6643 95.1498 54.7312C95.2763 54.7966 95.3766 54.8758 95.4507 54.9688C95.5248 55.0604 95.5823 55.1469 95.623 55.2283H95.6557V53.5582H96.4471V58.0233H95.6709V57.4957H95.623C95.5823 57.5771 95.5234 57.6636 95.4464 57.7551C95.3693 57.8453 95.2676 57.9223 95.1411 57.9863C95.0147 58.0502 94.8555 58.0822 94.6637 58.0822ZM94.8839 57.4347C95.051 57.4347 95.1935 57.3896 95.3112 57.2995C95.4289 57.2079 95.5183 57.0807 95.5794 56.9179C95.6404 56.7551 95.6709 56.5655 95.6709 56.3489C95.6709 56.1323 95.6404 55.9441 95.5794 55.7842C95.5198 55.6243 95.4311 55.5001 95.3134 55.4114C95.1971 55.3227 95.0539 55.2784 94.8839 55.2784C94.708 55.2784 94.5612 55.3242 94.4435 55.4158C94.3257 55.5073 94.2371 55.6338 94.1775 55.7951C94.1179 55.9565 94.0881 56.141 94.0881 56.3489C94.0881 56.5582 94.1179 56.745 94.1775 56.9092C94.2385 57.072 94.3279 57.2006 94.4456 57.2951C94.5648 57.3881 94.7109 57.4347 94.8839 57.4347Z" fill="white"/>
<path d="M32.3723 55.8139L31.2609 54.4792L31.4179 52.7105L29.7665 52.316L28.9063 50.7906L27.3491 51.4942L25.7981 50.7906L24.9316 52.316L23.2865 52.7105L23.4435 54.4792L22.3258 55.8139L23.4372 57.1486L23.2802 58.9173L24.9316 59.3118L25.7919 60.8372L27.3491 60.1271L28.9 60.8306L29.7602 59.3052L31.4116 58.9107L31.2546 57.142L32.3723 55.8139ZM29.3458 54.8079L26.6835 57.5957C26.5579 57.7272 26.3632 57.7272 26.2377 57.5957L25.3523 56.6686C25.2267 56.5371 25.2267 56.3333 25.3523 56.2018C25.4779 56.0703 25.6725 56.0703 25.7981 56.2018L26.4637 56.8988L28.9063 54.3411C29.0319 54.2096 29.2265 54.2096 29.3521 54.3411C29.4777 54.4726 29.4714 54.683 29.3458 54.8079Z" fill="white"/>
<path d="M24.9267 90.4884H28.8068V90.0341L27.8736 89.899C27.6895 89.8744 27.6403 89.8253 27.6403 89.6166V87.3941C27.9964 87.4555 28.3402 87.48 28.8437 87.48C30.6733 87.48 31.5942 86.3626 31.5942 84.9505C31.5942 83.4034 30.1453 82.8754 28.7209 82.8754H24.9267V83.2929L25.5161 83.4402C25.7862 83.5139 25.8353 83.5139 25.8353 83.6858V89.678C25.8353 89.8499 25.7985 89.8376 25.5038 89.9236L24.9267 90.0709V90.4884ZM27.6403 87.0625V83.3911C27.7754 83.3543 27.9719 83.3051 28.2052 83.3051H28.2788C29.4085 83.3051 29.7892 84.0419 29.7892 84.9874C29.7892 86.2767 29.3594 87.0625 27.8491 87.0625H27.6403ZM34.523 90.6358C35.8492 90.6358 36.5491 89.8867 36.9297 89.0886L36.8069 88.9658C36.4509 89.3464 36.0088 89.5552 35.3212 89.5552C34.1792 89.5552 33.553 88.6588 33.5039 87.3818C33.5039 87.3081 33.5039 87.2467 33.5039 87.1731L36.9175 87.259C36.9666 87.038 37.0034 86.731 37.0034 86.51C37.0034 85.1838 35.886 84.5822 34.6704 84.5822C33.025 84.5822 31.7971 85.761 31.8216 87.6642C31.8462 89.5184 32.9145 90.6358 34.523 90.6358ZM33.5162 86.7433C33.6021 85.761 33.995 85.0488 34.6827 85.0488C35.1861 85.0488 35.4685 85.368 35.4685 86.0925C35.4685 86.3012 35.444 86.4486 35.3949 86.6205L33.5162 86.7433ZM39.4618 90.6358C40.26 90.6358 40.7634 90.1446 41.0335 89.7517C41.2054 90.2797 41.4879 90.6358 42.2123 90.6358C42.4702 90.6358 43.2315 90.5007 43.563 90.3042V90.0218C43.342 90.0218 43.0105 89.985 42.814 89.899C42.7403 89.6411 42.7281 89.4447 42.7281 88.9781V86.3504C42.7281 85.0611 41.7826 84.5822 40.6161 84.5822C40.0389 84.5822 39.4987 84.7786 39.1794 84.9874L38.8233 85.2084C38.5041 85.4049 38.0743 85.8224 38.0743 86.2153C38.0743 86.6205 38.283 86.9643 38.7251 86.9643C39.2408 86.9643 39.4741 86.6205 39.4741 86.1784C39.4741 86.0065 39.4004 85.7732 39.3145 85.5891L39.204 85.368C39.3881 85.2575 39.6583 85.1716 39.8916 85.1716C40.5301 85.1716 41.0213 85.454 41.0213 86.4854V87.1485L40.0267 87.3818C39.0566 87.6151 37.8164 88.0326 37.8164 89.1377C37.8164 90.12 38.4304 90.6358 39.4618 90.6358ZM40.1126 89.8253C39.6092 89.8253 39.3145 89.4938 39.3145 88.9412C39.3145 88.1308 39.9775 87.8852 40.5424 87.7133L41.0213 87.5905V89.3833C40.8494 89.592 40.5301 89.8253 40.1126 89.8253ZM46.6813 90.6358C47.8356 90.6358 48.5355 90.0464 48.9407 89.1623L48.8056 89.0272C48.425 89.4078 48.0689 89.5675 47.5163 89.5675C46.3744 89.5675 45.7236 88.6465 45.7236 87.3572C45.7236 85.9451 46.2516 85.0365 47.062 85.0365C47.3935 85.0365 47.6514 85.1838 47.7742 85.368L47.6145 85.6013C47.504 85.7732 47.4426 85.982 47.4426 86.1539C47.4426 86.5959 47.7742 86.9398 48.2285 86.9398C48.646 86.9398 48.9775 86.5837 48.9775 86.1048C48.9775 85.7118 48.6705 85.3189 48.4372 85.1224C48.1057 84.8278 47.59 84.5822 46.9638 84.5822C45.2324 84.5822 44.0168 85.761 44.0168 87.6028C44.0168 89.3833 45.0237 90.6358 46.6813 90.6358ZM52.498 90.6358C53.8241 90.6358 54.524 89.8867 54.9047 89.0886L54.7819 88.9658C54.4258 89.3464 53.9837 89.5552 53.2961 89.5552C52.1542 89.5552 51.5279 88.6588 51.4788 87.3818C51.4788 87.3081 51.4788 87.2467 51.4788 87.1731L54.8924 87.259C54.9415 87.038 54.9783 86.731 54.9783 86.51C54.9783 85.1838 53.8609 84.5822 52.6453 84.5822C50.9999 84.5822 49.772 85.761 49.7966 87.6642C49.8211 89.5184 50.8894 90.6358 52.498 90.6358ZM51.4911 86.7433C51.577 85.761 51.97 85.0488 52.6576 85.0488C53.161 85.0488 53.4435 85.368 53.4435 86.0925C53.4435 86.3012 53.4189 86.4486 53.3698 86.6205L51.4911 86.7433ZM55.8405 90.4884H59.2663V90.12L58.5541 89.9604C58.2103 89.8744 58.2226 89.8008 58.2226 89.6289V85.5522H59.5242V84.8891H58.2226V83.9437C58.2226 82.6421 58.591 82.1878 59.119 82.1878C58.9348 83.0104 59.5119 83.2683 59.8557 83.2683C60.1504 83.2683 60.4942 83.0473 60.4942 82.6175C60.4942 82.0036 59.9417 81.8071 59.3891 81.8071C57.6209 81.8071 56.5404 82.728 56.5404 84.5331V84.8891H55.9387L55.73 85.5522H56.5281V89.7271C56.5281 89.8744 56.4667 89.9236 56.1352 90.0341L55.8405 90.12V90.4884ZM62.2619 90.6358C63.1706 90.6358 63.7723 90.1937 64.0792 89.4078V90.6358L66.5228 90.3902V90.0709L66.1053 89.9113C65.8229 89.7885 65.7738 89.7639 65.7738 89.6043V86.3504C65.7738 85.7855 65.8106 85.0856 65.8597 84.5822H65.4913L63.3425 84.9997V85.3066L63.6618 85.4171C64.0424 85.5645 64.0792 85.6136 64.0792 86.0557V89.0149C63.9073 89.3464 63.4776 89.7394 63.0478 89.7394C62.2251 89.7394 62.1514 88.9412 62.1514 88.315V86.2767C62.1514 85.6136 62.2128 84.9383 62.2374 84.5822H61.869L59.8061 84.9997V85.3435L60.0394 85.4171C60.3955 85.5277 60.4569 85.6013 60.4569 85.896V88.5606C60.4569 89.7517 60.9849 90.6358 62.2619 90.6358ZM67.0269 90.4884H70.0844V90.12L69.7897 90.0341C69.4827 89.9236 69.409 89.899 69.409 89.7394V83.6612C69.409 82.9491 69.4704 82.065 69.5073 81.8071H69.1389L67.0023 82.2246V82.5684L67.383 82.728C67.6654 82.8385 67.7145 82.9491 67.7145 83.1824V89.7394C67.7145 89.899 67.6654 89.9113 67.3216 90.0341L67.0269 90.12V90.4884ZM73.2038 90.4884H79.1592L79.6012 87.8484H79.2697L78.9996 88.5483C78.8522 88.9412 78.6066 89.371 78.361 89.6657C77.9558 89.9113 77.305 90.0586 76.8384 90.0586H76.7157C76.4332 90.0586 76.0403 90.0218 75.9052 89.899V83.7472C75.9052 83.5753 75.9789 83.5016 76.2122 83.4648L76.9858 83.3297V82.8754H73.1916V83.2929L73.781 83.4402C74.0511 83.5139 74.1002 83.5139 74.1002 83.6858V89.678C74.1002 89.8499 74.0634 89.8376 73.7687 89.9236L73.2038 90.0709V90.4884ZM81.7665 83.3788C82.2945 83.3788 82.7242 82.9982 82.7242 82.5193C82.7242 82.0404 82.2945 81.6475 81.7665 81.6475C81.2385 81.6475 80.7841 82.0404 80.7841 82.5193C80.7841 82.9982 81.2385 83.3788 81.7665 83.3788ZM80.1948 90.4884H83.24V90.12L82.9575 90.0341C82.6383 89.9236 82.5769 89.899 82.5769 89.7394V84.5822H82.2085L80.207 84.9997V85.3435L80.4281 85.4663C80.7596 85.6382 80.8701 85.6996 80.8701 85.9943V89.7394C80.8701 89.899 80.8087 89.9236 80.4772 90.0341L80.1948 90.12V90.4884ZM83.8761 90.4884H87.3019V90.12L86.5898 89.9604C86.2459 89.8744 86.2582 89.8008 86.2582 89.6289V85.5522H87.5598V84.8891H86.2582V83.9437C86.2582 82.6421 86.6266 82.1878 87.1546 82.1878C86.9704 83.0104 87.5475 83.2683 87.8913 83.2683C88.186 83.2683 88.5298 83.0473 88.5298 82.6175C88.5298 82.0036 87.9773 81.8071 87.4247 81.8071C85.6565 81.8071 84.576 82.728 84.576 84.5331V84.8891H83.9743L83.7656 85.5522H84.5637V89.7271C84.5637 89.8744 84.5023 89.9236 84.1708 90.0341L83.8761 90.12V90.4884ZM90.6782 90.6358C92.0043 90.6358 92.7043 89.8867 93.0849 89.0886L92.9621 88.9658C92.606 89.3464 92.164 89.5552 91.4763 89.5552C90.3344 89.5552 89.7082 88.6588 89.659 87.3818C89.659 87.3081 89.659 87.2467 89.659 87.1731L93.0726 87.259C93.1217 87.038 93.1586 86.731 93.1586 86.51C93.1586 85.1838 92.0412 84.5822 90.8256 84.5822C89.1802 84.5822 87.9523 85.761 87.9768 87.6642C88.0014 89.5184 89.0696 90.6358 90.6782 90.6358ZM89.6713 86.7433C89.7573 85.761 90.1502 85.0488 90.8378 85.0488C91.3413 85.0488 91.6237 85.368 91.6237 86.0925C91.6237 86.3012 91.5991 86.4486 91.55 86.6205L89.6713 86.7433Z" fill="#BC1E2D"/>
<path d="M94.968 84.2964V82.98H95.5995C95.6661 82.98 95.7303 82.996 95.7922 83.0281C95.8552 83.0591 95.9069 83.1054 95.9474 83.1673C95.989 83.2279 96.0098 83.3028 96.0098 83.392C96.0098 83.4812 95.9884 83.5585 95.9456 83.6239C95.9039 83.6881 95.8504 83.7375 95.785 83.772C95.7208 83.8065 95.6542 83.8237 95.5852 83.8237H95.0965V83.6436H95.5246C95.5852 83.6436 95.6393 83.6221 95.6869 83.5793C95.7357 83.5353 95.7601 83.4729 95.7601 83.392C95.7601 83.3088 95.7357 83.2493 95.6869 83.2137C95.6393 83.178 95.587 83.1601 95.5299 83.1601H95.1981V84.2964H94.968ZM95.7351 83.6846L96.0633 84.2964H95.8064L95.4871 83.6846H95.7351ZM95.4514 85.0813C95.254 85.0813 95.0691 85.0445 94.8967 84.9707C94.7242 84.897 94.5726 84.7947 94.4418 84.6639C94.311 84.5331 94.2087 84.3815 94.135 84.209C94.0613 84.0366 94.0244 83.8517 94.0244 83.6543C94.0244 83.4568 94.0613 83.2719 94.135 83.0995C94.2087 82.9271 94.311 82.7754 94.4418 82.6446C94.5726 82.5138 94.7242 82.4115 94.8967 82.3378C95.0691 82.2641 95.254 82.2272 95.4514 82.2272C95.6489 82.2272 95.8338 82.2641 96.0062 82.3378C96.1787 82.4115 96.3303 82.5138 96.4611 82.6446C96.5919 82.7754 96.6942 82.9271 96.7679 83.0995C96.8416 83.2719 96.8785 83.4568 96.8785 83.6543C96.8785 83.8517 96.8416 84.0366 96.7679 84.209C96.6942 84.3815 96.5919 84.5331 96.4611 84.6639C96.3303 84.7947 96.1787 84.897 96.0062 84.9707C95.8338 85.0445 95.6489 85.0813 95.4514 85.0813ZM95.4514 84.8155C95.6655 84.8155 95.8599 84.7632 96.0348 84.6586C96.2108 84.5539 96.3511 84.4142 96.4557 84.2394C96.5604 84.0633 96.6127 83.8683 96.6127 83.6543C96.6127 83.4402 96.5604 83.2458 96.4557 83.0709C96.3511 82.8949 96.2108 82.7546 96.0348 82.65C95.8599 82.5453 95.6655 82.493 95.4514 82.493C95.2374 82.493 95.0424 82.5453 94.8664 82.65C94.6915 82.7546 94.5518 82.8949 94.4472 83.0709C94.3425 83.2458 94.2902 83.4402 94.2902 83.6543C94.2902 83.8683 94.3425 84.0633 94.4472 84.2394C94.5518 84.4142 94.6915 84.5539 94.8664 84.6586C95.0424 84.7632 95.2374 84.8155 95.4514 84.8155Z" fill="#BC1E2D"/>
<path d="M24.2031 20.423H25.531L26.8018 22.8043H26.8589L28.1297 20.423H29.4576L27.4158 23.9879V25.9324H26.245V23.9879L24.2031 20.423Z" fill="#44B0EF"/>
<path d="M31.0995 26.017C30.6712 26.017 30.3142 25.9325 30.0001 25.7493C29.6859 25.5661 29.4575 25.3266 29.2861 25.0025C29.1148 24.6784 29.0291 24.3121 29.0291 23.8893C29.0291 23.4666 29.1148 23.0862 29.2861 22.7621C29.4575 22.438 29.6859 22.1985 30.0001 22.0153C30.3142 21.8321 30.6712 21.7476 31.0995 21.7476C31.5279 21.7476 31.8848 21.8321 32.199 22.0153C32.5131 22.1985 32.7415 22.438 32.9129 22.7621C33.0842 23.0862 33.1699 23.4525 33.1699 23.8893C33.1699 24.3121 33.0842 24.6784 32.9129 25.0025C32.7415 25.3266 32.5131 25.5661 32.199 25.7493C31.8991 25.9325 31.5279 26.017 31.0995 26.017ZM31.1138 25.1293C31.3137 25.1293 31.4708 25.0729 31.5993 24.9602C31.7278 24.8475 31.8277 24.7066 31.8991 24.5093C31.9705 24.3121 31.9991 24.1007 31.9991 23.8612C31.9991 23.6216 31.9705 23.4103 31.8991 23.213C31.8277 23.0157 31.742 22.8748 31.5993 22.7621C31.4565 22.6494 31.3137 22.593 31.1138 22.593C30.9139 22.593 30.7568 22.6494 30.6283 22.7621C30.4998 22.8748 30.3999 23.0157 30.3285 23.213C30.2571 23.3962 30.2285 23.6216 30.2285 23.8612C30.2285 24.1007 30.2571 24.3121 30.3285 24.5093C30.3999 24.6925 30.4998 24.8475 30.6283 24.9602C30.7568 25.0729 30.9139 25.1293 31.1138 25.1293Z" fill="#44B0EF"/>
<path d="M36.6111 24.1711V21.8038H37.7677V25.9465H36.654V25.1997H36.6111C36.5112 25.4392 36.3541 25.6365 36.1399 25.7774C35.9258 25.9183 35.6545 26.0028 35.3403 26.0028C35.0548 26.0028 34.812 25.9465 34.5978 25.8197C34.3837 25.6928 34.2123 25.5097 34.0981 25.2842C33.9839 25.0588 33.9125 24.777 33.9125 24.4529V21.8038H35.069V24.2274C35.069 24.467 35.1404 24.6642 35.2689 24.8051C35.3974 24.946 35.5688 25.0165 35.7972 25.0165C35.94 25.0165 36.0685 24.9883 36.1971 24.9179C36.3256 24.8474 36.4112 24.7629 36.4969 24.6361C36.5826 24.5092 36.6111 24.3542 36.6111 24.1711Z" fill="#44B0EF"/>
<path d="M38.7101 25.9325V21.8039H39.8382V22.5225H39.881C39.9524 22.2689 40.0809 22.0716 40.2665 21.9448C40.4521 21.818 40.652 21.7476 40.8948 21.7476C40.9519 21.7476 41.009 21.7476 41.0804 21.7616C41.1518 21.7757 41.2089 21.7757 41.2517 21.7898V22.8044C41.1946 22.7903 41.1232 22.7762 41.0233 22.7621C40.9233 22.748 40.8377 22.748 40.752 22.748C40.5806 22.748 40.4236 22.7903 40.2951 22.8607C40.1666 22.9312 40.0523 23.0298 39.9809 23.1707C39.9095 23.2975 39.8667 23.4525 39.8667 23.6216V25.9607H38.7101V25.9325Z" fill="#44B0EF"/>
<path d="M47.3991 22.1536H46.898C46.8562 21.975 46.8005 21.7965 46.7031 21.6454C46.6057 21.4943 46.4804 21.3569 46.3412 21.2333C46.202 21.1097 46.035 21.0272 45.8401 20.9586C45.6452 20.8899 45.4504 20.8624 45.2416 20.8624C44.8936 20.8624 44.5874 20.9448 44.2951 21.1234C44.0028 21.302 43.7801 21.5629 43.613 21.9063C43.446 22.2497 43.3625 22.6618 43.3625 23.1563C43.3625 23.6508 43.446 24.0766 43.613 24.42C43.7801 24.7634 44.0028 25.0244 44.2951 25.1893C44.5735 25.3678 44.8936 25.4502 45.2416 25.4502C45.4504 25.4502 45.6592 25.4228 45.8401 25.3541C46.0211 25.2854 46.1881 25.203 46.3412 25.0794C46.4943 24.9557 46.6057 24.8321 46.7031 24.6673C46.8005 24.5162 46.8701 24.3376 46.898 24.1591H47.3991C47.3573 24.4063 47.2738 24.6398 47.1485 24.8459C47.0232 25.0519 46.8701 25.2442 46.6892 25.409C46.5082 25.5739 46.2855 25.6975 46.0489 25.7799C45.8123 25.8623 45.5339 25.9173 45.2416 25.9173C44.7822 25.9173 44.3786 25.8074 44.0167 25.5739C43.6687 25.3404 43.3903 25.0244 43.1815 24.6123C42.9867 24.2003 42.8753 23.7058 42.8753 23.1563C42.8753 22.5931 42.9727 22.1124 43.1815 21.7003C43.3764 21.2882 43.6548 20.9723 44.0167 20.7388C44.3647 20.5053 44.7822 20.3954 45.2416 20.3954C45.5339 20.3954 45.7983 20.4366 46.0489 20.5327C46.2855 20.6152 46.5082 20.7388 46.6892 20.9036C46.8701 21.0685 47.0372 21.247 47.1485 21.4668C47.2738 21.6728 47.3573 21.9063 47.3991 22.1536Z" fill="#44B0EF"/>
<path d="M50.0578 25.9309C49.7098 25.9309 49.3897 25.8485 49.1252 25.6699C48.8607 25.4914 48.638 25.2441 48.4849 24.9419C48.3318 24.626 48.2622 24.2689 48.2622 23.8568C48.2622 23.4447 48.3318 23.0738 48.4849 22.7716C48.638 22.4557 48.8468 22.2085 49.1252 22.0299C49.3897 21.8513 49.7098 21.7689 50.0578 21.7689C50.4058 21.7689 50.7259 21.8513 50.9904 22.0299C51.2548 22.2085 51.4775 22.4557 51.6307 22.7716C51.7838 23.0876 51.8673 23.4447 51.8673 23.8568C51.8673 24.2689 51.7977 24.626 51.6446 24.9419C51.4915 25.2579 51.2827 25.5051 51.0043 25.6699C50.7259 25.8485 50.4058 25.9309 50.0578 25.9309ZM50.0578 25.5051C50.3362 25.5051 50.5867 25.4364 50.7816 25.2853C50.9765 25.1342 51.1296 24.9282 51.227 24.681C51.3244 24.4337 51.3801 24.159 51.3801 23.8568C51.3801 23.5546 51.3244 23.2799 51.227 23.0326C51.1296 22.7854 50.9765 22.5793 50.7816 22.4282C50.5867 22.2772 50.3501 22.1947 50.0578 22.1947C49.7794 22.1947 49.5289 22.2772 49.334 22.4282C49.1391 22.5793 48.986 22.7854 48.8886 23.0326C48.7911 23.2799 48.7355 23.5546 48.7355 23.8568C48.7355 24.159 48.7911 24.4337 48.8886 24.681C48.986 24.9282 49.1391 25.1342 49.334 25.2853C49.5289 25.4364 49.7794 25.5051 50.0578 25.5051Z" fill="#44B0EF"/>
<path d="M52.8973 25.8485V21.8239H53.3566V22.442H53.3984C53.4819 22.2359 53.6211 22.0711 53.802 21.9475C53.9969 21.8239 54.2196 21.7689 54.4841 21.7689C54.7625 21.7689 54.9991 21.8376 55.18 21.9612C55.361 22.0986 55.5002 22.2772 55.5837 22.4969H55.6115C55.709 22.2772 55.8482 22.0986 56.0569 21.9612C56.2657 21.8239 56.5163 21.7689 56.8225 21.7689C57.1983 21.7689 57.5045 21.8925 57.7272 22.1261C57.95 22.3596 58.0613 22.703 58.0613 23.1563V25.8623H57.5881V23.1563C57.5881 22.8403 57.5045 22.5931 57.3375 22.442C57.1705 22.2772 56.9617 22.2085 56.6833 22.2085C56.3771 22.2085 56.1265 22.3046 55.9595 22.4969C55.7925 22.6892 55.709 22.9227 55.709 23.2112V25.8623H55.2218V23.1151C55.2218 22.8403 55.1383 22.6206 54.9852 22.4557C54.832 22.2909 54.6093 22.2085 54.331 22.2085C54.1361 22.2085 53.9691 22.2497 53.8299 22.3458C53.6768 22.442 53.5654 22.5656 53.4819 22.7304C53.3984 22.8953 53.3566 23.0738 53.3566 23.2936V25.876H52.8973V25.8485Z" fill="#44B0EF"/>
<path d="M59.314 27.3595V21.8239H59.7734V22.5931H59.829C59.8847 22.4695 59.9543 22.3458 60.0657 22.2222C60.177 22.0986 60.3023 21.9887 60.4554 21.9063C60.6224 21.8239 60.8312 21.7689 61.0818 21.7689C61.4158 21.7689 61.7081 21.8513 61.9726 22.0299C62.2231 22.2085 62.418 22.442 62.5711 22.7579C62.7103 23.0738 62.7799 23.431 62.7799 23.8431C62.7799 24.2551 62.7103 24.626 62.5711 24.9419C62.4319 25.2579 62.2371 25.5051 61.9865 25.6699C61.736 25.8348 61.4437 25.9309 61.1096 25.9309C60.8591 25.9309 60.6503 25.8897 60.4832 25.7936C60.3162 25.7112 60.177 25.6013 60.0796 25.4639C59.9821 25.3403 59.8986 25.2029 59.843 25.093H59.8012V27.3595H59.314ZM59.7873 23.8431C59.7873 24.1727 59.843 24.4612 59.9404 24.7084C60.0378 24.9557 60.177 25.1617 60.3719 25.2991C60.5528 25.4364 60.7895 25.5189 61.04 25.5189C61.3184 25.5189 61.5411 25.4502 61.736 25.2991C61.9308 25.148 62.07 24.9557 62.1675 24.6947C62.2649 24.4474 62.3206 24.159 62.3206 23.8431C62.3206 23.5271 62.2788 23.2524 62.1814 23.0052C62.0839 22.7579 61.9448 22.5656 61.7499 22.4145C61.5689 22.2634 61.3323 22.1947 61.0539 22.1947C60.7895 22.1947 60.5668 22.2634 60.3719 22.4008C60.1909 22.5381 60.0378 22.7304 59.9543 22.9777C59.829 23.2249 59.7873 23.5134 59.7873 23.8431Z" fill="#44B0EF"/>
<path d="M64.9514 25.9448C64.7008 25.9448 64.4781 25.9036 64.2693 25.8075C64.0605 25.7113 63.9074 25.574 63.7821 25.3954C63.6569 25.2168 63.6012 24.9971 63.6012 24.7361C63.6012 24.53 63.643 24.3652 63.7126 24.2278C63.7821 24.0905 63.8935 23.9806 64.0327 23.8982C64.1719 23.8158 64.3389 23.7471 64.5338 23.6921C64.7287 23.6372 64.9374 23.596 65.1602 23.5685C65.3829 23.541 65.5777 23.5136 65.7448 23.4998C65.9118 23.4861 66.0231 23.4449 66.1067 23.4037C66.1902 23.3625 66.2319 23.2801 66.2319 23.1839V23.0878C66.2319 22.813 66.1484 22.5933 65.9814 22.4422C65.8144 22.2773 65.5777 22.2087 65.2715 22.2087C64.9792 22.2087 64.7426 22.2773 64.5477 22.401C64.3668 22.5246 64.2276 22.6757 64.158 22.8542L63.7126 22.6894C63.81 22.4696 63.9353 22.2911 64.1023 22.1537C64.2693 22.0163 64.4503 21.9202 64.6451 21.8653C64.8539 21.8103 65.0488 21.7828 65.2576 21.7828C65.4107 21.7828 65.5777 21.7966 65.7448 21.8378C65.9118 21.879 66.0649 21.9477 66.218 22.0438C66.3711 22.14 66.4825 22.2773 66.566 22.4559C66.6495 22.6345 66.7052 22.8542 66.7052 23.129V25.8624H66.2319V25.2306H66.2041C66.1484 25.3542 66.0649 25.4641 65.9536 25.574C65.8422 25.6839 65.703 25.78 65.536 25.8487C65.3829 25.9036 65.188 25.9448 64.9514 25.9448ZM65.021 25.519C65.2715 25.519 65.4942 25.4641 65.6752 25.3542C65.8561 25.2443 65.9953 25.0932 66.1067 24.9146C66.2041 24.7361 66.2598 24.53 66.2598 24.3103V23.7334C66.218 23.7608 66.1623 23.802 66.0788 23.8158C65.9953 23.8295 65.8979 23.8707 65.8004 23.8844C65.6891 23.8982 65.5917 23.9257 65.4803 23.9394C65.3689 23.9531 65.2715 23.9669 65.188 23.9806C64.9514 24.0081 64.7565 24.0493 64.6034 24.118C64.4364 24.1729 64.3111 24.2553 64.2276 24.3652C64.144 24.4751 64.1023 24.5987 64.1023 24.7636C64.1023 25.0108 64.1858 25.2031 64.3668 25.3267C64.5477 25.4504 64.7565 25.519 65.021 25.519Z" fill="#44B0EF"/>
<path d="M68.459 23.3348V25.8623H67.9857V21.8239H68.4451V22.4557H68.4868C68.5842 22.2497 68.7374 22.0848 68.9322 21.9612C69.1271 21.8376 69.3916 21.7689 69.6839 21.7689C69.9622 21.7689 70.1989 21.8239 70.4077 21.9338C70.6164 22.0436 70.7835 22.2085 70.8948 22.4282C71.0062 22.648 71.0758 22.909 71.0758 23.2387V25.8485H70.6025V23.2661C70.6025 22.9365 70.5051 22.6755 70.3241 22.4832C70.1432 22.2909 69.8927 22.1947 69.5725 22.1947C69.3637 22.1947 69.1689 22.2359 69.0018 22.3321C68.8348 22.4282 68.7095 22.5519 68.6121 22.7304C68.5007 22.8953 68.459 23.1013 68.459 23.3348Z" fill="#44B0EF"/>
<path d="M72.5095 27.3597C72.4121 27.3597 72.3286 27.346 72.2451 27.3322C72.1616 27.3185 72.092 27.291 72.0502 27.2773L72.1755 26.8652C72.4121 26.9476 72.6209 26.9476 72.7879 26.8652C72.955 26.7828 73.0942 26.6042 73.2055 26.302L73.3586 25.89L71.8553 21.8241H72.3704L73.5813 25.2444H73.6231L74.8341 21.8241L75.3491 21.8378L73.6231 26.4943C73.5535 26.6866 73.4561 26.8515 73.3586 26.9751C73.2473 27.0987 73.122 27.2086 72.9967 27.2636C72.8297 27.3322 72.6766 27.3597 72.5095 27.3597Z" fill="#44B0EF"/>
<path d="M17.7083 27.9068C20.3985 27.9068 22.5794 25.7828 22.5794 23.1626C22.5794 20.5425 20.3985 18.4185 17.7083 18.4185C15.0181 18.4185 12.8373 20.5425 12.8373 23.1626C12.8373 25.7828 15.0181 27.9068 17.7083 27.9068Z" fill="#44B0EF"/>
<path d="M17.7083 19.4146C16.7664 19.4146 15.9052 19.7422 15.2459 20.2795C15.2324 20.2926 15.2055 20.3057 15.1921 20.3188C14.3847 21.0003 13.8734 21.9963 13.8599 23.1234C13.8599 23.1365 13.8599 23.1496 13.8599 23.1627C13.8599 23.1758 13.8599 23.1889 13.8599 23.202C13.8734 24.316 14.3847 25.3251 15.1921 26.0066C15.2055 26.0197 15.2324 26.0459 15.2459 26.0459C15.9052 26.5833 16.7664 26.9109 17.6949 26.9109C19.8209 26.9109 21.5432 25.2334 21.5432 23.1627C21.5567 21.0921 19.8343 19.4146 17.7083 19.4146ZM21.1934 22.9792H20.2111C20.1842 22.1798 19.9958 21.4197 19.6594 20.7906C19.794 20.7382 19.9151 20.6858 20.0496 20.6334C20.7224 21.2231 21.153 22.0619 21.1934 22.9792ZM19.4845 20.5023C19.3768 20.3319 19.2557 20.1878 19.1212 20.0567C19.3365 20.1485 19.5518 20.2664 19.7402 20.3975C19.6594 20.4368 19.5787 20.463 19.4845 20.5023ZM17.8967 25.5479C18.3273 25.561 18.7444 25.6266 19.1346 25.7183C18.7982 26.177 18.3677 26.4915 17.8967 26.5439C17.8967 26.308 17.8967 25.9804 17.8967 25.5479ZM17.5334 26.5439C17.0893 26.4784 16.6722 26.1901 16.3358 25.7052C16.7126 25.6134 17.1163 25.5479 17.5334 25.5479C17.5334 25.9804 17.5334 26.2949 17.5334 26.5439ZM17.5334 20.2271C17.5334 20.4106 17.5334 20.594 17.5334 20.7775C17.1163 20.7644 16.7126 20.712 16.3358 20.6203C16.6722 20.1354 17.0893 19.847 17.5334 19.7815C17.5334 19.9388 17.5334 20.0829 17.5334 20.2271ZM17.8967 20.2271C17.8967 20.0829 17.8967 19.9388 17.8967 19.7815C18.3677 19.847 18.7982 20.1485 19.1346 20.6072C18.7444 20.712 18.3273 20.7644 17.8967 20.7775C17.8967 20.594 17.8967 20.4106 17.8967 20.2271ZM15.9725 20.5154C15.8649 20.4761 15.7707 20.4499 15.6765 20.4106C15.8918 20.2664 16.1205 20.1354 16.3627 20.0436C16.2282 20.1616 16.0936 20.3319 15.9725 20.5154ZM17.5334 21.1314C17.5334 21.5901 17.5334 22.1536 17.5334 22.9923H15.6226C15.6496 22.2322 15.8245 21.5114 16.134 20.9348C16.578 21.0527 17.049 21.1183 17.5334 21.1314ZM17.5468 23.3331C17.5468 24.0932 17.5468 24.7092 17.5468 25.1941C17.0624 25.2072 16.5915 25.2727 16.1474 25.3907C15.8379 24.814 15.6496 24.0932 15.6361 23.3331H17.5468ZM15.9725 25.81C16.0936 25.9935 16.2147 26.1508 16.3627 26.2949C16.1205 26.1901 15.8918 26.0721 15.6765 25.928C15.7707 25.8887 15.8783 25.8493 15.9725 25.81ZM19.4845 25.8231C19.5787 25.8493 19.6594 25.8887 19.7402 25.928C19.5518 26.059 19.3365 26.177 19.1212 26.2687C19.2557 26.1377 19.3768 25.9935 19.4845 25.8231ZM17.8967 25.1941C17.8967 24.7092 17.8967 24.1063 17.8967 23.3331H19.8613C19.8343 24.1194 19.6325 24.8402 19.323 25.4038C18.879 25.2858 18.3946 25.2072 17.8967 25.1941ZM17.8967 22.9792C17.8967 22.1405 17.8967 21.577 17.8967 21.1183C18.3946 21.1052 18.879 21.0265 19.323 20.9086C19.6325 21.4721 19.8343 22.1929 19.8613 22.9792H17.8967ZM15.367 20.6465C15.5015 20.712 15.6496 20.7644 15.7976 20.8168C15.4746 21.4328 15.2997 22.1798 15.2728 22.9792H14.2367C14.2771 22.0619 14.7076 21.2362 15.367 20.6465ZM14.2232 23.3331H15.2728C15.2997 24.1325 15.4746 24.8795 15.7976 25.4955C15.6496 25.5479 15.5015 25.6003 15.367 25.6659C14.7076 25.0892 14.2771 24.2636 14.2232 23.3331ZM20.0496 25.679C19.9285 25.6266 19.794 25.5741 19.6594 25.5217C19.9958 24.9058 20.1842 24.1456 20.2111 23.3331H21.1934C21.153 24.2636 20.7224 25.0892 20.0496 25.679Z" fill="white"/>
</svg>
