<svg width="128" height="31" viewBox="0 0 128 31" fill="none" xmlns="http://www.w3.org/2000/svg">
<path d="M12.1204 18.1805V24.2407H6.06018V0H0V30.3009H18.1805V18.1805H12.1204ZM18.1805 12.1204V6.06018H24.2407V30.3009H30.3009V0H12.1204V12.1204H18.1805ZM48.4299 16.4928H42.6455V22.256H39.4214V7.76612H42.6485V13.4475H48.4329V7.76612H51.6812V22.256H48.4329V16.4928H48.4299ZM58.6655 18.2714V17.8169L56.7475 18.126C56.093 18.226 55.6021 18.532 55.6021 19.2471C55.6021 19.7804 55.9475 20.2895 56.8081 20.2895C57.7262 20.2895 58.6655 19.841 58.6655 18.2684V18.2714ZM57.9323 16.0231C58.4837 15.9413 58.6655 15.6746 58.6655 15.3262C58.6655 14.7353 58.1565 14.2232 57.1747 14.2232C56.093 14.2232 55.4991 14.9595 55.4385 15.7171L52.7417 15.1656C52.8629 13.7111 54.2113 11.7931 57.1959 11.7931C60.4866 11.7931 61.6896 13.6324 61.6896 15.7171V20.6834C61.6896 21.4803 61.7926 22.153 61.8108 22.256H59.014C58.9928 22.1742 58.911 21.8075 58.911 21.1106C58.3807 21.9712 57.399 22.5408 56.0506 22.5408C53.8235 22.5408 52.5357 21.0712 52.5357 19.4562C52.5357 17.6563 53.8659 16.6382 55.5415 16.3897L57.9323 16.0231ZM65.5923 22.256L61.4259 12.0991H64.7954L67.1468 18.4138L69.3133 12.0991H72.5827L68.7194 22.256H65.5923ZM79.0368 15.9625C78.9974 15.1838 78.4672 14.2444 76.9945 14.2444C75.6886 14.2444 75.0341 15.205 74.9735 15.9625H79.0368ZM77.1794 22.562C74.3796 22.562 71.8858 20.5622 71.8858 17.1473C71.8858 13.8748 74.319 11.7931 76.9551 11.7931C80.1004 11.7931 82.0427 13.7324 82.0427 17.0049C82.0427 17.4321 82.0002 17.9018 81.9821 17.9654H74.9098C74.9704 19.1077 76.0158 19.9259 77.2218 19.9259C78.3429 19.9259 78.9792 19.3956 79.2641 18.5987L81.8578 19.332C81.367 21.0894 79.7549 22.562 77.1794 22.562ZM82.9214 22.256V12.0991H85.9242V13.2627C86.4757 12.3022 87.7241 11.8325 88.7634 11.8325C91.3208 11.8325 92.4631 13.6505 92.4631 15.8807V22.256H89.3573V16.411C89.3573 15.411 88.827 14.6535 87.7029 14.6535C86.6817 14.6535 86.0272 15.411 86.0272 16.4322V22.256H82.9214ZM96.4719 7.77824H99.699V19.1805H105.953V22.2711H96.4719V7.77824ZM106.914 22.2681V12.1113H110.019V22.2681H106.914ZM110.286 9.58417C110.286 10.0663 110.095 10.5288 109.754 10.8697C109.413 11.2107 108.95 11.4022 108.468 11.4022C107.986 11.4022 107.523 11.2107 107.183 10.8697C106.842 10.5288 106.65 10.0663 106.65 9.58417C106.65 9.10199 106.842 8.63956 107.183 8.29861C107.523 7.95766 107.986 7.76612 108.468 7.76612C108.95 7.76612 109.413 7.95766 109.754 8.29861C110.095 8.63956 110.286 9.10199 110.286 9.58417ZM115.495 22.2681H112.386V14.7262H110.771V12.1113H112.386V11.7022C112.386 9.37206 113.795 7.77824 116.268 7.77824C116.904 7.77824 117.452 7.86005 117.74 8.00246V10.5356C117.577 10.4962 117.31 10.4356 116.819 10.4356C116.268 10.4356 115.492 10.678 115.492 11.8052V12.1082H117.698V14.7262H115.492V22.2711L115.495 22.2681ZM124.997 15.9746C124.955 15.1959 124.424 14.2566 122.952 14.2566C121.646 14.2566 120.991 15.2171 120.931 15.9746H124.997ZM123.137 22.5742C120.337 22.5742 117.843 20.5713 117.843 17.1594C117.843 13.8869 120.276 11.8052 122.912 11.8052C126.058 11.8052 128 13.7445 128 17.017C128 17.4442 127.958 17.9139 127.939 17.9745H120.87C120.931 19.1199 121.973 19.938 123.179 19.938C124.3 19.938 124.937 19.4077 125.221 18.6108L127.815 19.3441C127.327 21.1015 125.712 22.5742 123.137 22.5742Z" fill="#9AA3B2"/>
</svg>
