<svg width="71" height="30" viewBox="0 0 71 30" fill="none" xmlns="http://www.w3.org/2000/svg">
<path d="M16.6857 0.039843H15.1538V15.6378L3.53645 0.620709C3.39268 0.439825 3.20999 0.29367 3.00196 0.193106C2.79393 0.0925429 2.56591 0.0401572 2.33485 0.039843H0V19.0831C0.00449834 19.488 0.168477 19.8747 0.456344 20.1593C0.744211 20.444 1.13274 20.6037 1.53759 20.6036H3.06378V5.00568L14.6811 20.0228C14.8249 20.2036 15.0076 20.3498 15.2156 20.4504C15.4236 20.5509 15.6516 20.6033 15.8827 20.6036H18.1777V1.56034C18.183 1.36161 18.1483 1.16384 18.0756 0.978813C18.0029 0.793788 17.8936 0.625303 17.7544 0.483406C17.6152 0.341508 17.4488 0.229104 17.2652 0.152898C17.0815 0.0766906 16.8844 0.0382415 16.6857 0.039843ZM34.0205 3.08085V0.0455377H20.9112V20.6093H33.9806V17.5626H23.9579V11.828H31.9875V10.3018C31.983 9.89796 31.8198 9.5121 31.5332 9.22759C31.2465 8.94308 30.8594 8.78277 30.4556 8.7813H23.9693V3.08654H34.0205V3.08085ZM69.2426 0.039843H55.4385V3.08085H61.5547V20.5979H64.6185V3.08654H70.7346V1.56034C70.74 1.36161 70.7053 1.16384 70.6326 0.978813C70.5598 0.793788 70.4506 0.625303 70.3114 0.483406C70.1721 0.341508 70.0057 0.229104 69.8221 0.152898C69.6385 0.0766906 69.4414 0.0382415 69.2426 0.039843Z" fill="#9AA3B2"/>
<path d="M46.8052 10.4499L40.1765 0.768793C40.0415 0.56338 39.8647 0.38874 39.6577 0.25627C39.4506 0.1238 39.218 0.036477 38.9749 0H35.5524L42.033 9.54442L42.0672 9.61276L42.6537 10.4499L42.0672 11.2813L35.5524 20.6036H39.0091C39.5558 20.6036 40.0683 20.3189 40.3929 19.8462L44.7266 13.4966L46.8052 10.4499Z" fill="#9AA3B2"/>
<path d="M45.6777 6.05916L47.7506 9.10585L53.9123 0.0397949H50.4556C49.9772 0.113827 49.5444 0.364396 49.254 0.802893L45.6834 6.05916H45.6777ZM45.6777 14.869L49.0661 19.8803C49.2235 20.1045 49.4299 20.2897 49.6697 20.4219C49.9095 20.5542 50.1764 20.6299 50.4499 20.6434H53.9066L47.762 11.8621L45.6834 14.8746L45.6777 14.869ZM0 24.2653H1.60592C2.36902 24.2653 2.91572 24.3792 3.24601 24.5956C3.57062 24.812 3.75854 25.1765 3.75854 25.6491C3.75854 25.9737 3.64465 26.2642 3.46242 26.4806C3.28018 26.697 2.98975 26.845 2.66515 26.9191V26.9532C3.53645 27.0956 3.93508 27.5341 3.93508 28.2972C3.93508 28.804 3.75285 29.2027 3.42255 29.4931C3.09795 29.7778 2.59112 29.9259 2.00456 29.9259H0V24.271V24.2653ZM0.660592 26.697H1.74829C2.22665 26.697 2.55125 26.6286 2.77335 26.4806C2.98975 26.3382 3.05809 26.0819 3.05809 25.7573C3.05809 25.427 2.94989 25.2106 2.73349 25.0683C2.51708 24.9202 2.15262 24.8462 1.64009 24.8462H0.666287V26.697H0.660592ZM0.660592 27.2437V29.3507H1.82232C2.29499 29.3507 2.61959 29.2767 2.84738 29.0945C3.06378 28.9122 3.20615 28.656 3.20615 28.2573C3.20615 27.8986 3.09795 27.6423 2.84169 27.4942C2.62529 27.3177 2.26082 27.2437 1.74829 27.2437H0.666287H0.660592ZM7.24943 27.0956L8.74146 24.271H9.47039L7.57973 27.7163V29.8917H6.91914V27.7505L5.02847 24.271H5.7574L7.24943 27.0956ZM17.1925 25.9396C17.1925 26.5147 17.0103 26.9532 16.6116 27.2437C16.213 27.5284 15.6663 27.7163 14.9374 27.7163H14.2768V29.9259H13.6219V24.271H15.074C16.4579 24.271 17.1868 24.812 17.1868 25.9396H17.1925ZM14.2426 27.1355H14.8292C15.2736 27.1655 15.7171 27.0645 16.1048 26.845C16.3554 26.6628 16.5034 26.3724 16.5034 25.9339C16.5034 25.5751 16.3895 25.2847 16.139 25.1024C15.8019 24.8925 15.4077 24.7929 15.0114 24.8177H14.2768V27.1355H14.2369H14.2426ZM22.5854 29.9259L21.8907 28.1491H19.6355L18.9408 29.9259H18.2859L20.5068 24.271H21.0535L23.2745 29.9259H22.5911H22.5854ZM21.6743 27.5341L21.0194 25.7915C20.9453 25.5751 20.8371 25.279 20.7631 24.9942C20.6891 25.2505 20.615 25.5068 20.5068 25.7915L19.8519 27.5341H21.6743ZM27.1014 24.7778C26.8278 24.7642 26.5546 24.8124 26.3022 24.9189C26.0498 25.0254 25.8247 25.1874 25.6435 25.3929C25.279 25.7915 25.0968 26.3724 25.0968 27.1013C25.0968 27.8245 25.279 28.4054 25.6093 28.804C25.9738 29.2027 26.4465 29.4191 27.1014 29.4191C27.5 29.4191 27.9385 29.345 28.451 29.2027V29.7835C28.0524 29.9259 27.574 29.9999 26.9932 29.9999C26.156 29.9999 25.5011 29.7437 25.057 29.2368C24.5787 28.6287 24.336 27.8684 24.3736 27.0956C24.3736 26.5204 24.4818 26.0136 24.6982 25.5751C24.9146 25.1366 25.2449 24.812 25.6435 24.5614C26.0421 24.3052 26.5547 24.197 27.1014 24.197C27.6822 24.197 28.2289 24.3052 28.6674 24.5216L28.377 25.1024C27.9856 24.8893 27.547 24.7777 27.1014 24.7778ZM30.3417 29.9259V24.271H30.9966V29.8917H30.3417V29.9259ZM33.8383 29.9259H33.1834V24.271H36.3497V24.8462H33.844V26.9191H36.1674V27.4942H33.8383V29.9259ZM37.9157 29.9259V24.271H38.5706V29.8917H37.9157V29.9259ZM43.2005 24.7778C42.9269 24.7642 42.6537 24.8124 42.4013 24.9189C42.1489 25.0254 41.9237 25.1874 41.7426 25.3929C41.3781 25.7915 41.1959 26.3724 41.1959 27.1013C41.1959 27.8245 41.3781 28.4054 41.7084 28.804C42.0729 29.2027 42.5456 29.4191 43.2005 29.4191C43.5991 29.4191 44.0376 29.345 44.5501 29.2027V29.7835C44.1515 29.9259 43.6731 29.9999 43.0923 29.9999C42.2551 29.9999 41.6002 29.7437 41.156 29.2368C40.6778 28.6287 40.4351 27.8684 40.4727 27.0956C40.4727 26.5204 40.5752 26.0136 40.7973 25.5751C41.0137 25.1366 41.344 24.812 41.7426 24.5614C42.1412 24.3052 42.6538 24.197 43.2005 24.197C43.7813 24.197 44.328 24.3052 44.7665 24.5216L44.4761 25.1024C44.0847 24.8893 43.6461 24.7777 43.2005 24.7778ZM49.1344 29.9259V24.271H49.7893V29.3109H52.3064V29.8917H49.1287V29.9259H49.1344ZM53.9123 29.9259V24.271H54.5615V29.8917H53.9123V29.9259ZM57.4431 29.9259H56.7825V24.271H59.9545V24.8462H57.4431V26.9191H59.7722V27.4942H57.4374V29.9259H57.4431ZM64.6526 29.9259H61.4806V24.271H64.6526V24.8462H62.1412V26.6628H64.4704V27.2437H62.1355V29.3109H64.6526V29.9259Z" fill="#9AA3B2"/>
</svg>
