<svg width="100" height="100" viewBox="0 0 100 100" fill="none" xmlns="http://www.w3.org/2000/svg">
<g clip-path="url(#clip0_3_256)">
<path d="M98.4761 39.9286C98.4761 39.9286 83.0595 92.2262 38.1071 87.8333C19.7142 86.0952 4.99994 71.2738 7.4047 52.5714C11.2857 22.5 36.6666 0 66.7261 0C66.7261 0 108.393 1 98.4761 39.9286Z" fill="#FCF4E0"/>
<path d="M14.806 81.0233C16.302 80.0516 17.622 78.3026 17.6 75.1017C17.578 71.1806 14.839 68.0826 11.44 68.0026C4.29 67.8426 4.4 75.1017 4.4 75.1017C4.4 77.5824 5.5 79.7544 7.172 81.0233C2.981 82.6924 0 87.0136 0 92.1007V96.4562C0 98.411 1.474 100 3.3 100H18.7C20.526 100 22 98.411 22 96.4562V92.1007C22 87.0021 18.997 82.6809 14.806 81.0119V81.0233Z" fill="#0B2540"/>
<path d="M42.806 81.0233C44.302 80.0516 45.622 78.3026 45.6 75.1017C45.578 71.1806 42.839 68.0826 39.44 68.0026C32.29 67.8426 32.4 75.1017 32.4 75.1017C32.4 77.5824 33.5 79.7544 35.172 81.0233C30.981 82.6924 28 87.0136 28 92.1007V96.4562C28 98.411 29.474 100 31.3 100H46.7C48.526 100 50 98.411 50 96.4562V92.1007C50 87.0021 46.997 82.6809 42.806 81.0119V81.0233Z" fill="#FFC747"/>
<path d="M28.536 32.3067C30.712 30.9458 32.632 28.4812 32.6 23.9912C32.568 18.4725 28.5893 14.1219 23.64 14.004C13.24 13.7683 13.4 23.9805 13.4 23.9805C13.4 27.4632 15.0107 30.5279 17.432 32.3067C11.3413 34.6642 7 40.7401 7 47.8876V54.0064C7 56.7604 9.144 59 11.8 59H34.2C36.856 59 39 56.7604 39 54.0064V47.8876C39 40.7294 34.6373 34.6428 28.536 32.296V32.3067Z" fill="#FFC747"/>
<path d="M62.1516 41.3825L79.9135 46.7516C80.9492 47.0611 82.0325 46.192 82.1159 44.9777L82.7587 34.8944C82.8302 33.6801 81.8659 32.7754 80.7944 33.0492L62.3897 37.7635C60.6635 38.2039 60.4968 40.8825 62.1635 41.3825H62.1516Z" fill="#0B2540"/>
<path d="M63.0843 15.7481L56.5129 14.0219C56.0843 13.9148 55.6438 14.2124 55.6319 14.6529L55.001 28.2243C54.9653 28.9148 55.9176 29.1648 56.2867 28.5576L63.4891 16.7124C63.7153 16.3314 63.5248 15.8672 63.0962 15.7481H63.0843Z" fill="#0B2540"/>
</g>
<defs>
<clipPath id="clip0_3_256">
<rect width="100" height="100" fill="white"/>
</clipPath>
</defs>
</svg>
